<?xml version="1.0" standalone="no"?>
<!DOCTYPE svg PUBLIC "-//W3C//DTD SVG 20010904//EN"
 "http://www.w3.org/TR/2001/REC-SVG-20010904/DTD/svg10.dtd">
<svg version="1.0" xmlns="http://www.w3.org/2000/svg"
 width="499.000000pt" height="504.000000pt" viewBox="0 0 499.000000 504.000000"
 preserveAspectRatio="xMidYMid meet">
<metadata>
Created by potrace 1.16, written by Peter Selinger 2001-2019
</metadata>
<g transform="translate(0.000000,504.000000) scale(0.100000,-0.100000)"
fill="#000000" stroke="none">
<path d="M0 2520 l0 -2520 2495 0 2495 0 0 2520 0 2520 -2495 0 -2495 0 0
-2520z m3580 2137 c260 -4 304 -7 371 -25 109 -29 212 -75 284 -127 81 -58
210 -196 258 -276 48 -81 97 -234 96 -297 -1 -46 -1 -47 -10 -14 -6 18 -18 41
-28 51 -10 10 -23 27 -29 36 -12 23 -42 13 -42 -15 0 -18 -6 -20 -52 -20 -29
0 -48 -4 -43 -8 11 -8 13 -37 4 -46 -3 -4 -12 13 -19 36 -28 97 -115 225 -209
309 -64 58 -223 140 -318 163 -103 27 -435 36 -1273 35 -938 0 -1383 -11
-1485 -34 -155 -35 -288 -126 -423 -290 -32 -38 -32 -39 -17 -7 9 19 11 32 5
32 -6 0 -14 -10 -19 -22 -6 -16 -10 -18 -16 -9 -4 8 -2 17 6 22 7 4 10 12 5
16 -5 4 -10 4 -13 -2 -14 -37 -63 -54 -87 -30 -13 14 -21 9 -70 -42 -31 -31
-58 -54 -61 -52 -13 13 34 126 92 224 78 132 217 246 388 319 165 71 128 69
1055 73 459 2 860 4 890 6 56 2 228 1 760 -6z m-1651 -441 c7 -8 11 -36 9 -63
l-3 -48 -60 0 -60 0 -7 55 c-3 30 -4 58 -2 62 9 14 111 9 123 -6z m609 2 c6
-9 7 -105 3 -273 l-6 -260 -54 -3 c-30 -2 -58 1 -62 5 -5 5 -11 126 -15 270
-7 295 -14 270 77 272 27 1 51 -4 57 -11z m-273 -80 c2 -7 1 -62 -3 -123 l-7
-110 -60 0 -60 0 -3 123 -3 122 66 0 c44 0 67 -4 70 -12z m541 4 c19 -12 26
-71 19 -158 l-7 -84 -64 0 -64 0 0 125 0 125 53 0 c28 0 57 -4 63 -8z m-1359
-155 l241 -22 194 -200 c315 -325 1037 -1041 1196 -1185 45 -41 80 -80 78 -87
-11 -28 -92 -122 -106 -122 -9 -1 -60 44 -115 99 -55 55 -105 100 -111 100 -7
0 -15 6 -17 13 -3 6 -6 -1 -6 -17 -1 -16 -9 -35 -18 -42 -17 -13 -17 -13 0
-14 14 0 16 -5 11 -27 -4 -16 -12 -32 -18 -36 -8 -6 -7 -10 2 -14 6 -2 12 -20
12 -39 0 -24 5 -34 15 -34 8 0 15 -6 15 -13 0 -8 18 -28 40 -46 22 -17 40 -39
40 -47 0 -8 -53 36 -117 98 -366 354 -559 536 -748 703 -55 49 -174 161 -265
250 -91 89 -190 181 -220 204 -30 24 -77 68 -104 98 -45 50 -129 115 -186 142
-22 11 -23 10 -8 -2 18 -14 18 -11 3 -189 l-8 -88 129 -123 c71 -68 212 -197
314 -287 230 -203 344 -309 724 -677 166 -161 308 -303 315 -316 12 -22 9 -29
-35 -86 -26 -33 -51 -61 -57 -61 -5 0 -21 14 -35 32 -36 42 -324 324 -387 378
-27 24 -140 130 -250 235 -110 106 -245 230 -300 276 -157 131 -402 348 -491
435 l-82 79 -11 97 c-10 90 -30 197 -66 363 -18 87 -20 181 -2 188 27 12 205
5 434 -16z m2481 -12 c2 -16 -13 -140 -33 -273 -19 -134 -35 -267 -35 -295 0
-57 10 -46 -180 -202 -115 -95 -504 -458 -542 -505 -31 -39 -44 -38 -67 9 -11
21 -33 48 -48 59 l-27 20 290 285 c255 252 289 289 292 319 1 18 5 59 10 90 6
42 5 61 -5 70 -13 14 -7 58 8 58 5 0 9 5 9 11 0 5 -4 7 -10 4 -16 -10 -12 7 7
27 17 19 39 25 28 8 -3 -5 -2 -10 3 -10 11 0 37 48 30 56 -18 17 -148 -94
-388 -330 -169 -166 -325 -301 -306 -265 4 7 0 5 -8 -5 -16 -20 -16 -20 -16 0
0 16 -2 17 -10 4 -8 -13 -10 -12 -10 3 0 10 -7 32 -16 48 -13 25 -20 30 -40
25 -18 -5 -24 -2 -26 11 -3 36 4 66 19 90 24 36 10 37 -28 1 -19 -18 -68 -63
-110 -100 l-76 -67 -46 54 c-26 29 -47 55 -47 57 0 2 65 69 143 148 151 152
444 462 512 542 l40 47 230 16 c329 22 324 22 390 21 59 -1 60 -1 63 -31z
m-2958 -935 c0 -55 -2 -61 -25 -70 -14 -5 -38 -7 -54 -4 -31 7 -41 25 -41 81
0 39 20 52 78 53 l42 0 0 -60z m3161 -296 c17 -20 17 -140 0 -157 -16 -15
-149 -14 -179 2 -19 10 -22 20 -22 75 0 39 5 68 13 74 30 25 168 29 188 6z
m-3137 -10 c11 -4 16 -19 16 -49 0 -58 -37 -100 -82 -91 -17 3 -41 6 -54 6
-18 0 -26 8 -34 38 -16 51 -1 89 37 95 47 7 100 7 117 1z m2588 -189 c62 -58
117 -117 122 -130 9 -22 -10 -44 -225 -262 -598 -608 -664 -673 -689 -673 -17
0 -54 30 -132 108 -59 59 -108 113 -108 119 0 6 28 44 61 84 61 73 114 129
418 444 350 362 404 415 422 415 10 0 69 -47 131 -105z m-1975 8 c74 -83 226
-242 592 -621 90 -93 171 -181 179 -195 16 -26 16 -26 -96 -136 -74 -73 -120
-111 -134 -111 -21 0 -229 206 -747 736 -144 148 -162 171 -155 190 5 13 58
68 118 123 140 130 139 130 243 14z m-617 -242 c14 -27 13 -74 -3 -95 -10 -13
-24 -17 -67 -14 l-55 3 -3 48 c-4 63 8 77 69 77 38 0 51 -4 59 -19z m3096 -4
c3 -13 4 -41 2 -63 l-3 -39 -65 0 -65 0 -3 54 c-4 64 3 71 75 71 47 0 53 -3
59 -23z m-1791 -157 c6 -19 53 -64 77 -73 8 -3 -5 -23 -37 -56 -46 -48 -75
-64 -75 -41 0 5 -18 22 -40 36 -40 27 -51 56 -27 71 7 4 26 25 43 45 32 42 50
48 59 18z m-912 -119 c-15 -20 -108 -118 -207 -219 -131 -132 -186 -181 -197
-177 -9 3 -31 24 -48 46 -30 36 -31 41 -17 61 8 12 104 110 212 219 l196 198
44 -46 44 -46 -27 -36z m2442 -73 c111 -112 210 -215 219 -230 17 -26 17 -28
-1 -52 -22 -30 -64 -56 -90 -56 -12 0 -45 30 -86 78 -36 42 -111 122 -167 177
-105 103 -180 186 -180 201 0 10 82 83 94 84 4 0 99 -91 211 -202z m-250 -1
l27 -23 -27 -54 c-14 -30 -29 -66 -31 -80 -3 -14 -9 -29 -15 -35 -5 -5 -9 -16
-9 -25 0 -19 -59 -60 -88 -60 -12 0 -21 -5 -19 -11 1 -6 -16 -12 -38 -13 -32
-3 -47 3 -77 27 -21 17 -38 34 -38 39 0 11 92 118 171 200 64 66 99 75 144 35z
m-2019 -99 c57 -56 107 -110 110 -121 8 -27 -33 -69 -65 -65 -15 2 -25 10 -27
23 -1 11 -50 65 -108 120 -126 120 -134 142 -47 144 30 1 46 -11 137 -101z
m257 -196 c34 -48 34 -49 16 -74 -10 -14 -109 -112 -220 -218 l-201 -193 -34
39 c-18 21 -33 46 -34 54 0 12 423 440 435 440 2 0 19 -22 38 -48z m1396 4
c60 -45 391 -379 391 -395 0 -19 -71 -102 -84 -99 -6 2 -67 62 -136 133 -69
72 -160 164 -203 205 -106 100 -108 103 -61 151 21 21 40 39 42 39 2 0 25 -15
51 -34z m636 -8 c26 -12 42 -48 30 -68 -3 -5 -39 -35 -80 -65 -41 -30 -92 -79
-115 -110 -22 -30 -47 -55 -54 -55 -17 0 -66 38 -66 52 0 36 155 210 215 241
37 20 38 20 70 5z m-2630 -32 c62 -42 185 -162 185 -181 0 -8 -12 -22 -26 -32
-21 -13 -30 -14 -45 -5 -10 6 -24 9 -31 7 -15 -6 -218 183 -218 202 0 14 47
42 70 43 8 0 38 -15 65 -34z m2954 -31 c16 -8 31 -25 35 -37 9 -36 7 -197 -4
-267 -14 -83 -37 -126 -99 -184 -74 -69 -118 -87 -222 -87 -136 0 -229 39
-229 97 0 58 40 128 112 198 40 39 97 96 126 127 32 34 75 67 110 83 31 15 71
40 90 56 38 33 43 34 81 14z m-3281 -39 c26 -24 70 -53 98 -65 39 -17 77 -50
172 -151 l122 -130 0 -53 c0 -66 -23 -92 -101 -112 -136 -37 -232 -13 -341 85
-75 67 -90 106 -96 250 -6 168 11 217 81 219 10 1 39 -19 65 -43z m1141 -465
c17 -11 30 -129 30 -293 1 -158 -5 -178 -56 -178 -67 0 -65 -4 -64 224 2 205
5 234 25 248 15 10 48 10 65 -1z m423 -27 c64 -46 68 -58 30 -96 -31 -31 -33
-32 -64 -19 -90 37 -158 14 -178 -59 -15 -57 -5 -94 37 -130 29 -26 42 -31 76
-28 33 2 44 9 56 30 18 32 11 44 -17 29 -37 -20 -53 -4 -50 48 l3 46 80 -4
c45 -2 83 -8 87 -15 4 -6 8 -50 8 -98 0 -81 -2 -88 -25 -106 -35 -27 -116 -45
-180 -40 -68 6 -126 42 -166 105 -25 41 -29 56 -29 120 0 86 17 127 79 191 47
48 86 62 159 58 39 -2 63 -10 94 -32z m238 17 c5 -11 10 -54 10 -96 0 -89 2
-90 95 -80 l65 7 0 89 c0 85 1 89 24 95 13 3 36 4 52 2 40 -4 46 -41 42 -259
-3 -203 -8 -219 -59 -219 -46 0 -59 22 -59 103 l0 72 -77 -2 -78 -2 -3 -79
c-3 -75 -4 -80 -27 -86 -30 -8 -70 7 -79 29 -3 9 -6 106 -6 215 0 167 2 201
16 214 22 23 71 20 84 -3z m-822 -3 c14 -14 16 -77 2 -98 -7 -12 -31 -15 -102
-15 l-93 -1 -3 -37 -3 -37 79 0 c90 0 105 -9 100 -62 l-3 -33 -84 -5 -85 -5
-1 -71 c-1 -38 -5 -76 -9 -82 -11 -18 -82 -15 -101 4 -13 14 -15 41 -9 222 4
114 11 213 17 220 13 17 278 17 295 0z m1511 -1 c18 -22 24 -73 12 -96 -10
-18 -21 -21 -72 -21 l-61 0 4 -156 c3 -146 2 -156 -17 -170 -24 -18 -75 -11
-92 13 -9 12 -13 62 -13 164 l0 148 -52 3 -53 3 -3 39 c-2 22 -1 50 2 63 6 23
7 23 170 23 125 0 166 -3 175 -13z m-86 -807 c237 0 428 -2 425 -5 -3 -3 -56
-8 -118 -11 -63 -3 -117 -7 -121 -10 -4 -2 -10 0 -14 6 -3 5 -11 10 -16 10 -6
0 -8 -4 -5 -9 4 -6 -149 -9 -379 -9 -212 1 -385 5 -385 9 0 5 -19 10 -42 11
-24 1 4 5 62 8 58 4 118 5 134 3 16 -1 222 -3 459 -3z"/>
<path d="M1896 2025 c3 -8 10 -15 14 -15 12 0 20 -28 14 -45 -5 -11 -11 -12
-24 -5 -12 6 -21 7 -25 0 -3 -5 -12 -7 -20 -4 -8 4 -12 10 -9 15 3 5 3 9 0 9
-2 0 -13 3 -23 7 -12 4 -6 -7 17 -34 19 -22 43 -51 54 -64 10 -13 64 -71 120
-129 56 -58 109 -116 118 -130 l15 -25 42 38 c22 20 48 37 56 37 8 0 15 3 15
8 0 8 -334 333 -356 345 -10 6 -12 3 -8 -8z"/>
<path d="M865 1429 c-15 -24 -7 -126 13 -166 28 -54 93 -110 139 -120 51 -11
155 -9 176 3 15 9 5 20 -67 77 -81 65 -206 191 -206 208 0 13 -48 11 -55 -2z"/>
</g>
</svg>
