<?xml version="1.0" standalone="no"?>
<!DOCTYPE svg PUBLIC "-//W3C//DTD SVG 20010904//EN"
 "http://www.w3.org/TR/2001/REC-SVG-20010904/DTD/svg10.dtd">
<svg version="1.0" xmlns="http://www.w3.org/2000/svg"
 width="1020.000000pt" height="1021.000000pt" viewBox="0 0 1020.000000 1021.000000"
 preserveAspectRatio="xMidYMid meet">
<metadata>
Created by potrace 1.16, written by Peter Selinger 2001-2019
</metadata>
<g transform="translate(0.000000,1021.000000) scale(0.100000,-0.100000)"
fill="#000000" stroke="none">
<path d="M0 7180 l0 -3030 25 0 c24 0 24 0 28 -113 1 -61 4 1292 7 3008 2
1716 7 3010 11 2875 4 -135 7 -915 8 -1735 0 -2042 4 -4035 8 -3947 2 39 8 72
12 72 5 0 7 28 4 63 -3 41 -1 57 5 48 8 -11 10 -11 15 0 3 8 6 3 6 -11 1 -20
3 -22 12 -10 8 11 12 12 16 3 2 -7 13 -13 24 -13 17 0 19 -11 22 -142 3 -158
10 921 11 1849 1 325 5 595 10 600 5 4 7 -349 5 -832 -3 -819 2 -1753 8 -1527
2 63 8 112 13 112 6 0 10 7 10 16 0 20 27 48 32 33 2 -7 13 -9 25 -5 18 6 23
16 25 54 2 26 4 -156 5 -403 l1 -451 -49 -28 c-62 -35 -83 -65 -76 -110 8 -49
33 -82 76 -103 l38 -18 7 -95 c3 -52 6 -287 6 -522 0 -279 3 -428 10 -428 6 0
9 75 8 207 0 115 0 348 0 520 l2 311 37 19 c43 21 83 74 83 111 0 34 -38 88
-77 109 -28 15 -32 22 -38 82 -4 36 -6 243 -4 458 4 435 2 423 66 364 21 -19
37 -48 48 -84 9 -30 23 -58 32 -61 30 -12 9 90 -32 151 -19 29 -35 55 -35 58
0 4 -36 43 -80 87 l-80 80 1 157 c1 86 5 203 9 261 5 83 7 50 8 -153 l1 -258
71 -79 c40 -44 75 -78 79 -76 8 5 32 -13 51 -39 8 -11 0 -7 -18 9 -47 44 -39
22 18 -46 31 -37 50 -70 51 -86 0 -15 4 -36 9 -47 7 -17 9 -15 9 11 1 17 7 49
15 71 10 28 11 45 4 59 -15 28 -120 134 -129 129 -4 -3 -23 14 -43 38 -20 23
-48 53 -61 67 -25 25 -25 28 -24 185 1 94 4 141 8 114 7 -49 36 -103 51 -94 4
3 16 27 26 53 10 26 22 50 27 53 5 3 12 60 15 125 l7 119 6 -210 c3 -115 5 66
3 403 l-4 613 26 9 c35 14 34 14 34 -20 0 -16 -4 -30 -10 -30 -5 0 -10 9 -10
20 0 11 -4 20 -10 20 -13 0 -13 -61 0 -364 6 -132 11 -395 13 -583 2 -283 0
-338 -11 -317 -7 13 -16 24 -20 24 -5 0 -23 -29 -42 -64 -30 -55 -32 -66 -21
-80 11 -14 16 -14 23 -4 7 10 9 10 5 -2 -2 -9 30 -51 79 -102 46 -48 84 -95
85 -105 0 -11 3 -13 6 -5 2 6 11 12 19 12 9 0 12 -4 9 -10 -3 -5 1 -10 9 -10
9 0 16 -8 16 -18 0 -19 34 -62 50 -62 14 0 22 20 8 20 -10 1 -9 4 2 13 32 25
19 127 -16 127 -10 0 -14 5 -10 15 3 8 -1 21 -9 29 -25 25 -17 31 9 7 29 -28
76 -23 112 10 13 12 24 17 24 11 0 -6 7 -9 16 -5 13 5 13 7 2 14 -11 8 -11 11
1 18 8 5 10 14 6 21 -5 8 -4 11 2 7 12 -7 61 44 92 96 26 43 42 46 65 14 11
-13 9 -7 -3 16 -21 37 -21 51 -21 663 0 548 2 624 15 624 13 0 15 -77 17 -622
1 -516 3 -585 9 -403 5 121 12 240 17 265 9 45 9 45 17 15 5 -16 16 -37 25
-45 10 -8 20 -33 23 -55 2 -22 12 -65 21 -95 21 -72 32 -371 15 -412 -6 -15
-18 -28 -26 -28 -7 0 -55 -43 -105 -95 -50 -53 -103 -103 -119 -112 -15 -9
-25 -22 -22 -29 3 -9 14 -5 35 14 16 15 32 26 34 24 6 -4 100 78 177 152 l57
57 0 691 c0 380 2 689 4 687 2 -2 6 -321 10 -708 l6 -704 -67 -66 c-36 -36
-80 -82 -97 -101 l-31 -35 40 32 c58 45 153 147 164 176 6 14 9 41 7 59 -2 18
-1 25 1 16 2 -10 10 -18 17 -18 27 0 36 -52 38 -208 l2 -157 7 175 c3 96 8
247 9 335 2 130 4 150 11 105 5 -30 6 -67 3 -83 -3 -16 -1 -27 5 -27 6 0 11 9
11 20 0 13 7 20 20 20 11 0 20 5 20 10 0 6 14 10 30 10 l30 0 2 88 2 87 6 -90
c6 -84 6 -86 9 -30 2 33 7 164 10 290 7 212 7 196 9 -199 1 -236 5 -426 9
-422 4 3 10 90 14 192 8 198 12 224 35 224 8 0 14 5 14 10 0 6 7 10 15 10 9 0
15 10 15 26 0 20 4 25 16 20 18 -7 44 15 44 38 0 9 4 16 9 16 5 0 13 10 16 21
5 16 9 18 15 9 7 -11 12 -10 25 3 23 23 28 21 22 -9 -5 -30 8 -19 18 15 5 15
4 21 -3 17 -18 -11 -22 10 -6 33 9 12 21 18 27 15 7 -4 9 -4 5 1 -8 9 15 35
32 35 6 0 9 4 6 9 -7 10 17 21 45 21 10 0 19 6 19 14 0 13 34 30 54 27 4 -1
16 7 26 19 9 11 25 20 34 20 22 0 55 17 82 42 32 28 77 30 105 4 27 -25 58
-40 77 -37 6 1 12 -5 12 -12 0 -8 15 -21 33 -28 17 -7 38 -19 45 -26 8 -7 18
-10 23 -7 11 6 69 -14 69 -25 0 -3 9 -12 21 -19 12 -8 18 -9 15 -3 -4 6 -1 9
7 6 7 -3 21 -19 31 -35 14 -25 23 -30 57 -30 21 0 39 -4 39 -10 0 -5 9 -10 19
-10 11 0 21 -6 24 -12 2 -7 7 14 11 47 11 95 12 95 21 -2 4 -51 11 -93 14 -93
4 0 13 9 21 20 8 12 26 20 42 20 15 0 28 5 28 10 0 6 7 10 15 10 8 0 15 8 16
18 0 14 2 14 9 -3 9 -20 9 -20 9 0 1 29 20 45 53 45 22 0 28 -5 29 -22 1 -22
1 -22 9 2 4 14 9 84 11 155 2 121 3 124 8 50 5 -68 9 -80 24 -79 14 2 17 -8
18 -55 l2 -56 8 65 c5 36 9 173 8 305 0 252 8 405 22 405 4 0 11 -37 15 -82
l7 -82 23 27 c13 15 28 27 33 27 19 0 24 75 17 270 -6 195 -6 197 16 217 41
36 54 38 24 3 l-28 -34 7 -201 c4 -110 9 -218 11 -240 1 -22 3 -145 3 -273 1
-137 5 -231 10 -228 5 4 7 -3 4 -15 -5 -19 -3 -21 26 -14 20 4 31 3 31 -4 0
-6 -7 -11 -16 -11 -8 0 -12 -5 -9 -11 4 -6 14 -7 24 -3 9 4 28 6 44 5 24 -1
27 2 27 29 0 16 5 30 10 30 6 0 10 -13 10 -29 0 -27 3 -30 51 -36 27 -4 53 -4
56 -1 4 3 -8 6 -25 6 -25 0 -32 4 -32 20 0 18 7 20 83 21 45 1 87 0 92 -1 30
-6 221 2 223 10 2 6 12 10 23 10 14 0 19 7 19 30 0 28 2 30 39 30 30 0 40 4
44 20 5 18 14 20 101 20 89 0 96 1 96 20 0 13 7 20 20 20 18 0 20 7 20 61 0
59 1 61 23 55 29 -7 62 29 59 64 l-3 25 80 -3 c78 -3 81 -3 81 18 0 18 4 21
23 16 18 -4 32 3 60 30 38 37 41 37 37 -3 -1 -17 4 -23 19 -23 11 0 23 -5 26
-11 4 -6 13 -8 19 -6 8 3 12 -4 12 -17 -1 -19 5 -21 62 -24 l62 -3 0 31 c0 28
2 30 40 30 33 0 40 -3 40 -20 0 -17 7 -20 40 -20 33 0 40 -3 40 -20 0 -19 7
-20 160 -20 138 0 159 2 154 15 -4 9 0 15 9 15 8 0 17 5 19 11 6 19 58 -1 58
-22 0 -17 8 -19 60 -19 53 0 60 -2 60 -20 0 -17 7 -20 40 -20 33 0 40 3 40 20
0 18 7 20 60 20 47 0 60 3 60 15 0 9 9 15 24 15 17 0 26 8 34 33 l11 32 -5
-34 c-5 -25 -3 -32 6 -26 7 4 48 7 91 6 l79 -2 0 40 0 41 40 0 40 0 0 -52 c0
-63 -9 -81 -36 -71 -19 7 -19 6 0 -12 17 -17 19 -17 28 -2 6 12 22 17 48 17
33 0 40 -3 40 -20 0 -19 7 -20 100 -20 93 0 100 1 100 20 0 13 7 20 20 20 17
0 20 7 20 40 l0 40 40 0 c33 0 40 -3 40 -20 0 -18 7 -20 55 -20 30 0 55 5 55
10 0 6 6 10 13 10 17 0 37 -42 37 -75 0 -22 4 -25 40 -25 l40 0 0 -40 c0 -28
4 -40 14 -40 8 0 17 -10 19 -22 l4 -23 2 23 c1 29 41 32 41 2 0 -17 7 -20 40
-20 34 0 40 -3 40 -21 0 -19 4 -21 38 -15 88 15 86 16 83 -36 -2 -43 0 -48 18
-48 14 0 21 6 21 19 0 15 9 20 43 23 23 3 46 0 50 -6 6 -8 10 -7 14 1 3 8 14
11 29 7 15 -4 24 -2 24 5 0 6 7 11 15 11 8 0 15 5 15 10 0 6 7 10 15 10 8 0
15 -4 15 -10 0 -5 7 -10 15 -10 8 0 15 5 15 10 0 6 7 10 15 10 11 0 15 11 15
40 0 22 5 40 10 40 6 0 10 9 10 20 0 22 16 27 22 8 9 -25 38 20 40 59 1 33 2
30 8 -17 4 -33 7 37 8 170 0 124 3 232 7 241 3 10 2 20 -4 24 -6 3 -11 11 -11
16 0 6 5 7 11 3 8 -4 9 18 5 77 -8 115 -11 325 -7 499 2 118 5 139 13 110 6
-20 8 -97 6 -181 l-5 -146 31 -21 c17 -11 46 -26 64 -34 l32 -13 3 -493 2
-494 23 -18 c24 -20 28 -40 11 -57 -5 -5 -7 -22 -3 -37 11 -47 24 -27 24 39 0
77 16 86 26 15 4 -27 10 -50 14 -50 4 0 10 -9 13 -20 3 -12 14 -20 26 -20 14
0 21 -6 21 -20 0 -13 7 -20 19 -20 11 0 31 -13 44 -30 14 -16 33 -30 41 -30 9
0 16 -4 16 -10 0 -23 18 -8 23 20 6 28 27 43 27 18 0 -6 8 -1 19 10 10 12 26
22 35 22 9 0 16 8 16 20 0 17 7 20 40 20 l40 0 2 -47 c0 -27 0 -59 -1 -72 l-2
-24 36 21 36 22 19 -33 c11 -17 20 -37 20 -42 0 -20 -24 -35 -57 -35 -29 0
-36 5 -48 33 -11 23 -14 27 -15 12 0 -11 8 -31 17 -44 9 -14 11 -21 5 -17 -14
9 -15 5 -3 -65 6 -30 13 -94 16 -144 3 -49 8 -100 12 -112 8 -35 23 -17 23 28
0 28 4 39 15 39 17 0 20 -25 5 -35 -5 -3 -10 -15 -10 -25 0 -17 5 -19 33 -13
35 7 47 14 32 19 -6 3 -8 67 -4 181 3 98 6 179 7 179 1 1 17 1 35 0 23 -1 37
-8 49 -28 10 -16 26 -28 37 -28 18 0 26 6 59 45 9 11 26 15 50 13 l37 -3 0
-220 c0 -196 2 -220 17 -223 14 -3 17 11 23 93 4 52 5 165 2 251 -4 134 -2
157 12 171 15 16 16 15 19 -5 3 -17 9 -20 35 -17 39 5 57 -9 57 -45 0 -22 -6
-29 -27 -35 -21 -5 -24 -8 -12 -15 16 -11 19 -26 25 -172 4 -88 2 -111 -11
-132 -27 -41 11 -85 51 -58 18 12 23 39 10 58 -7 11 -12 34 -11 52 1 17 2 64
3 102 l2 70 30 0 c17 0 30 5 30 10 0 6 5 10 10 10 6 0 10 -9 10 -20 0 -14 7
-20 23 -20 l24 0 -5 -117 c-2 -65 -8 -126 -13 -135 -12 -22 1 -29 40 -22 30 6
41 27 21 39 -12 7 -14 175 -2 175 5 0 14 -10 20 -22 11 -23 11 -23 11 3 1 22
5 26 26 21 19 -3 32 4 54 27 16 17 34 31 41 31 18 0 35 22 47 60 9 30 11 14
14 -105 6 -277 16 720 18 1684 0 541 3 982 5 980 2 -2 7 -735 10 -1629 4 -894
9 -1627 12 -1629 2 -2 4 43 4 100 0 204 11 605 18 639 6 34 6 34 12 -15 3 -35
9 -50 20 -50 10 0 14 9 13 27 -1 15 5 29 12 32 9 3 12 0 8 -10 -4 -10 2 -14
21 -14 21 0 26 -5 26 -25 0 -14 5 -25 12 -25 9 0 9 -3 0 -12 -16 -16 -15 -28
3 -28 8 0 15 8 15 18 1 15 2 15 13 1 7 -8 21 -18 31 -22 10 -4 16 -10 13 -13
-3 -3 -15 0 -27 6 -18 10 -21 9 -18 -2 3 -7 14 -14 26 -16 12 -2 22 -7 22 -12
0 -5 -8 -7 -17 -4 -15 5 -16 4 -3 -5 21 -15 28 -14 33 6 4 17 5 17 6 1 0 -10
6 -18 12 -18 5 0 8 4 5 9 -3 5 1 12 10 15 12 5 14 1 9 -15 -5 -15 -4 -19 4
-15 14 9 14 4 1 -28 -9 -25 -50 -38 -50 -16 0 6 3 9 8 9 18 -3 29 2 29 15 0 9
-12 13 -36 12 -21 -1 -41 5 -48 14 -11 13 -12 13 -13 0 0 -9 5 -21 12 -28 9
-9 9 -12 -1 -12 -9 0 -11 -8 -7 -26 5 -19 3 -25 -6 -21 -7 2 -12 10 -10 17 2
7 -3 17 -10 21 -10 7 -8 9 5 9 11 0 17 5 14 13 -2 6 -10 11 -16 9 -6 -1 -11 2
-11 8 0 5 4 10 10 10 5 0 6 7 3 17 -4 11 -3 14 5 9 7 -4 12 -2 12 4 0 13 -28
25 -37 16 -10 -9 -9 -106 0 -106 5 0 6 -13 2 -30 l-6 -29 30 15 c17 8 33 19
36 25 4 5 11 9 18 9 6 0 2 -7 -9 -15 -10 -8 -14 -15 -9 -16 6 -1 15 -2 20 -4
6 -1 16 -3 23 -3 6 -1 12 -6 12 -11 0 -6 -14 -5 -36 0 -31 9 -38 8 -55 -12
-24 -28 -24 -32 0 -20 10 6 21 7 25 4 3 -3 6 -1 6 5 0 17 30 15 36 -3 8 -20
44 3 37 24 -4 14 -4 14 6 1 6 -8 8 -23 5 -32 -4 -12 0 -18 11 -18 11 0 15 6
11 18 -3 9 -1 24 5 32 8 12 9 11 7 -5 -1 -11 1 -26 6 -33 5 -9 1 -15 -13 -19
-12 -3 -21 -10 -21 -15 0 -5 6 -8 13 -5 6 2 19 -5 28 -15 13 -15 18 -16 22 -4
4 10 19 13 53 10 26 -1 52 0 58 3 6 4 22 8 35 9 20 2 22 1 11 -6 -8 -5 -10
-10 -4 -10 5 0 16 6 23 12 11 10 13 10 7 1 -5 -9 0 -13 13 -13 12 0 21 -5 21
-12 0 -6 9 -2 20 10 12 12 22 22 23 22 2 0 1 -15 -1 -33 -3 -30 -1 -33 26 -35
19 -1 32 3 36 13 3 8 1 15 -4 15 -6 0 -10 10 -10 23 0 16 3 18 9 9 4 -8 11
-13 15 -12 4 1 12 0 19 -3 9 -3 9 -8 -2 -21 -8 -9 -11 -20 -7 -24 10 -10 36
27 30 43 -8 21 88 41 115 24 13 -8 11 -9 -9 -8 -50 3 -52 1 -46 -46 4 -42 3
-45 -20 -43 -28 3 -29 6 -8 36 13 19 13 22 1 22 -8 0 -20 -7 -27 -15 -7 -9 -8
-15 -2 -15 5 0 9 -8 8 -17 -1 -11 10 -19 33 -24 28 -6 34 -4 38 12 7 25 19 24
26 -2 3 -12 10 -18 16 -14 6 3 9 11 6 16 -4 5 2 9 13 9 16 0 18 -6 15 -45 -4
-43 9 -61 21 -30 3 8 1 15 -5 15 -6 0 -8 4 -5 9 3 5 16 7 28 3 21 -5 21 -5 -2
18 l-23 23 24 13 c25 13 43 9 34 -7 -4 -5 0 -9 7 -9 8 0 9 -3 3 -8 -12 -8 -13
-61 -2 -80 5 -6 14 -12 20 -11 8 0 8 2 -1 6 -10 4 -10 8 -1 19 9 11 8 14 -7
14 -16 0 -15 4 8 23 20 16 25 26 19 36 -5 8 -6 24 0 37 7 19 4 26 -11 34 -11
6 -20 17 -20 25 0 8 -12 18 -26 21 -18 5 -22 9 -13 15 7 4 19 3 26 -2 6 -6 21
-8 33 -4 11 4 20 2 20 -4 0 -6 -6 -11 -13 -11 -8 0 -14 -7 -14 -15 0 -9 6 -14
13 -11 8 3 16 1 19 -5 4 -5 11 -7 16 -4 14 9 11 -2 -7 -19 -14 -14 -13 -18 5
-38 l21 -22 0 26 c0 22 3 25 23 20 12 -3 25 -10 30 -16 5 -7 12 -5 21 7 7 9
16 17 20 17 11 0 -1 -62 -14 -70 -8 -5 -7 -9 5 -13 10 -5 14 -3 9 5 -5 8 0 9
15 5 16 -4 20 -2 12 6 -10 13 -3 67 9 67 26 0 37 -74 16 -108 -4 -7 -3 -12 2
-12 5 0 10 -74 11 -172 1 -95 4 -175 7 -177 3 -3 4 177 4 399 -3 1193 4 2758
11 2555 4 -121 8 -731 7 -1355 -2 -1477 -2 -1427 20 -1433 16 -4 16 -5 0 -6
-14 -1 -18 -10 -18 -35 0 -19 5 -38 11 -41 6 -4 10 -1 8 6 -4 37 1 41 41 34
l40 -7 0 2866 0 2866 -2300 0 c-1527 0 -2300 -3 -2300 -10 0 -5 -9 -10 -20
-10 -25 0 -27 -37 -2 -43 9 -3 -1 -6 -23 -7 l-40 -2 40 -8 c22 -4 1046 -8
2275 -9 2190 -1 2235 -1 2251 -20 14 -17 15 -57 12 -338 -3 -175 -7 -320 -9
-323 -3 -2 -4 141 -3 319 2 308 1 325 -17 339 -16 12 -316 13 -2249 8 -1227
-3 -2232 -6 -2235 -7 -18 -4 56 -17 107 -18 l62 -1 -2 -37 c-2 -38 -2 -38 -52
-44 -27 -3 117 -7 320 -9 351 -3 360 -4 175 -10 -107 -4 -301 -9 -430 -10
-167 -2 -215 -5 -165 -10 39 -4 77 -10 86 -14 10 -4 20 -3 24 3 3 6 25 11 48
10 23 0 36 -3 30 -6 -18 -7 -16 -23 2 -23 17 0 20 -16 5 -25 -5 -3 -10 -1 -10
4 0 6 -4 11 -9 11 -4 0 -8 -13 -7 -30 1 -30 16 -43 16 -14 0 10 6 14 15 11 8
-4 22 4 33 18 18 23 19 23 31 3 8 -12 19 -18 31 -15 11 3 21 -1 24 -9 3 -8 14
-14 25 -14 11 0 31 -11 45 -25 29 -29 35 -29 386 -18 l214 6 36 33 c26 24 40
30 50 23 8 -5 10 -9 4 -9 -6 0 -28 -13 -49 -30 -33 -26 -46 -30 -104 -31 -36
0 -58 -3 -49 -7 9 -4 -90 -8 -220 -8 -217 -1 -241 -3 -284 -22 -33 -14 -73
-22 -129 -24 -54 -1 -83 -7 -86 -15 -5 -14 -41 -28 -93 -37 -8 -1 -35 -6 -60
-11 -25 -4 -54 -14 -65 -21 -11 -8 -35 -15 -55 -15 l-35 -1 40 -9 c22 -4 378
-8 790 -9 413 -1 759 -5 770 -10 12 -6 -867 -8 -2124 -7 l-2144 2 -26 35 c-49
66 -161 168 -191 175 -17 4 -30 11 -30 16 0 11 0 11 41 -3 19 -6 61 -34 94
-61 l60 -49 429 3 c343 3 430 1 434 -9 3 -10 -81 -12 -432 -10 -240 2 -436 0
-436 -4 0 -4 13 -22 29 -40 l29 -33 1104 0 c607 -1 1039 1 961 2 -84 2 -143 8
-143 13 0 6 -7 10 -15 10 -13 0 -46 49 -45 67 0 5 -14 12 -30 16 -17 4 -45 17
-63 27 -29 18 -51 20 -253 20 -121 0 -304 3 -405 7 l-184 6 -47 49 c-26 28
-49 44 -53 38 -4 -7 -187 -10 -558 -9 -304 0 -543 4 -532 8 11 5 258 9 548 9
311 1 535 5 545 11 13 7 28 -1 67 -38 l51 -48 221 -7 c122 -4 287 -5 366 -1
136 7 147 9 166 31 15 17 19 32 15 53 -4 18 -1 32 7 37 8 5 64 11 124 15 108
6 107 6 -65 9 -96 1 -254 6 -350 9 l-175 7 295 4 c162 2 257 5 210 7 -114 4
-129 8 -123 33 3 11 10 20 15 20 6 0 5 7 -2 15 -15 18 -44 16 290 24 281 8
-880 13 -3186 15 -1218 1 -1252 0 -1273 -18 -40 -37 -16 -106 37 -106 18 0 22
6 22 31 0 28 -2 31 -25 25 -18 -5 -25 -2 -25 9 0 21 33 19 53 -3 21 -23 22
-46 1 -67 -18 -17 -48 -13 -76 13 -26 22 -24 84 3 108 21 19 77 19 2338 24
1938 4 2517 9 2151 16 -30 0 -68 2 -85 3 -30 3 -30 3 -5 11 l25 8 -28 1 c-25
1 -27 3 -13 16 8 8 22 15 30 15 9 0 16 5 16 10 0 7 -780 10 -2340 10 l-2340 0
0 -3030z m3655 2810 c4 -6 -34 -10 -107 -10 -62 0 -614 -2 -1227 -5 -613 -3
-1111 -1 -1107 3 4 4 530 9 1169 12 639 3 1185 6 1214 8 28 1 55 -2 58 -8z
m5380 -20 c14 -14 8 -15 -57 -9 -40 4 -514 8 -1053 10 -539 1 -1043 5 -1120 9
-77 4 390 7 1037 6 1045 -1 1179 -3 1193 -16z m-8235 -60 c0 -37 -4 -50 -14
-50 -8 0 -18 -5 -22 -12 -5 -8 -2 -9 10 -5 19 7 55 -26 56 -50 0 -7 10 -13 23
-13 35 0 148 -52 143 -66 -3 -7 2 -10 15 -7 14 4 19 0 19 -16 0 -11 3 -21 8
-21 21 0 82 -146 81 -193 l-1 -42 -9 40 c-5 22 -11 47 -12 55 -1 8 -6 20 -10
25 -5 6 -21 32 -35 59 -34 61 -64 84 -122 91 -39 4 -42 3 -24 -8 83 -50 133
-111 158 -197 56 -187 -32 -348 -220 -405 -72 -22 -109 -19 -180 16 -152 75
-236 247 -189 388 9 28 36 78 61 111 24 33 40 60 34 60 -5 0 -17 -11 -25 -24
-9 -13 -24 -27 -33 -31 -13 -5 -12 -2 4 17 31 36 48 48 65 42 9 -2 24 5 34 16
20 22 8 28 -14 8 -11 -10 -12 -10 -7 -1 4 7 16 18 28 24 15 8 19 8 14 0 -10
-16 -1 -14 41 9 25 13 57 20 95 20 32 0 58 4 58 10 0 6 -28 10 -65 10 l-65 0
16 25 c9 14 20 23 24 20 5 -3 6 29 3 70 l-6 75 32 0 c31 0 31 -1 31 -50z
m6257 -15 l35 -35 699 0 c459 0 699 -3 699 -10 0 -7 -240 -10 -699 -10 l-698
0 -31 -50 c-25 -40 -37 -50 -58 -50 -20 0 -40 13 -74 50 l-46 50 -80 0 c-80 0
-81 0 -138 -45 -65 -50 -68 -51 -86 -30 -10 13 -9 15 12 15 15 0 47 17 76 40
50 40 50 40 137 40 86 0 88 1 126 35 24 21 49 35 65 35 16 0 39 -13 61 -35z
m-4832 -80 c31 -19 81 -39 110 -46 40 -9 59 -19 76 -42 12 -16 16 -26 9 -22
-10 6 -12 2 -7 -16 27 -97 30 -148 14 -214 -29 -116 -37 -126 -151 -189 l-104
-56 -93 53 c-100 58 -131 91 -150 161 -13 49 -4 174 17 224 18 43 18 47 0 33
-45 -38 -59 -190 -26 -285 13 -39 16 -56 7 -54 -20 7 -47 71 -42 100 2 15 -1
30 -7 34 -14 9 -4 111 16 159 22 52 42 67 148 119 53 26 102 54 108 61 7 8 14
15 15 15 1 0 28 -16 60 -35z m1404 -10 l48 -45 43 15 c50 18 64 13 23 -8 -56
-30 -79 -26 -128 23 -25 24 -45 39 -45 32 0 -9 -49 -12 -192 -12 -261 0 -719
12 -713 19 3 2 208 4 455 4 262 -1 450 3 450 8 0 16 10 10 59 -36z m6129 11
c7 -4 19 -21 28 -37 8 -17 33 -46 54 -65 22 -20 69 -88 106 -152 37 -65 91
-145 120 -180 61 -72 66 -98 34 -162 -31 -60 -40 -56 -18 8 19 58 20 59 0 90
l-19 32 0 -58 c-1 -32 -9 -85 -19 -118 -18 -60 -52 -120 -62 -110 -2 3 0 11 6
18 23 28 62 153 62 198 0 40 -8 59 -48 121 -27 41 -74 122 -106 182 -40 74
-66 112 -85 122 -15 7 -46 29 -69 48 -39 33 -42 34 -94 25 -29 -5 -125 -6
-214 -2 l-161 7 -46 -27 c-37 -22 -58 -47 -108 -129 -35 -56 -85 -133 -113
-172 -27 -38 -64 -97 -82 -131 l-32 -61 21 -36 c12 -20 49 -78 82 -128 33 -50
91 -138 128 -195 60 -91 70 -102 86 -92 25 15 63 -17 55 -48 -5 -21 -3 -23 28
-19 18 2 115 7 216 10 l184 5 43 31 c26 19 48 28 56 24 7 -5 10 -4 6 2 -4 6 3
19 14 29 12 10 39 49 61 87 22 37 54 77 71 89 l31 22 -34 -59 c-54 -96 -79
-133 -113 -173 -18 -20 -40 -48 -49 -63 l-16 -25 -269 -3 -269 -3 -45 54 c-25
29 -60 78 -78 108 -19 30 -85 135 -148 233 l-115 177 40 53 c39 51 114 165
199 301 55 89 136 173 171 179 44 7 498 1 510 -7z m-203 -67 c22 -6 58 -14 80
-17 22 -4 66 -22 97 -40 57 -33 75 -55 143 -177 16 -27 43 -67 60 -88 35 -40
65 -129 65 -190 0 -29 -19 -69 -85 -180 -47 -78 -99 -158 -115 -177 -47 -58
-46 -26 2 37 88 114 120 173 114 207 -3 19 1 41 10 56 15 24 15 24 9 -15 -10
-58 4 -37 20 32 18 73 10 129 -21 149 -15 10 -25 30 -29 57 -8 47 -36 101
-102 194 -38 54 -46 61 -65 54 -17 -6 -38 0 -83 25 -56 30 -67 32 -177 36 -94
2 -114 1 -106 -10 7 -8 8 -16 2 -22 -16 -16 -122 -49 -142 -43 -25 6 -82 -42
-82 -70 -1 -20 -2 -20 -11 -5 -7 13 -6 27 6 52 24 50 53 72 120 90 l60 16 -60
-5 -60 -6 34 26 c33 24 42 25 155 25 67 0 139 -5 161 -11z m-4370 -158 c-4 -7
9 -11 37 -10 36 1 39 2 18 9 -14 4 25 6 89 4 63 -2 119 -8 125 -13 6 -5 22 -9
36 -9 197 4 2252 -23 2270 -30 34 -13 -408 -25 -730 -20 -294 4 -1541 -4
-1487 -9 20 -2 37 -8 37 -13 0 -5 10 -11 23 -13 16 -3 13 -5 -10 -6 -18 0 -33
-6 -33 -12 0 -6 6 -9 13 -6 17 6 44 -9 34 -19 -4 -5 -26 -7 -49 -5 -23 1 -44
-3 -48 -9 -4 -6 -26 -14 -48 -17 -23 -3 -40 -9 -37 -13 11 -18 -38 -39 -97
-42 -35 -2 227 -2 582 -1 355 1 816 -1 1025 -6 354 -7 318 -8 -520 -12 -495
-2 -954 -4 -1020 -3 -66 0 -107 -3 -90 -7 l30 -7 -30 -2 c-25 -2 -26 -3 -7 -7
29 -6 31 -43 2 -43 -13 0 -20 -7 -20 -19 0 -24 -23 -43 -44 -35 -15 6 -15 3
-4 -21 10 -22 9 -28 -3 -36 -12 -8 -12 -9 0 -9 11 0 10 -3 -3 -13 -11 -8 -17
-20 -14 -27 5 -16 -21 -50 -38 -50 -7 0 -15 -6 -18 -12 -3 -7 -5 -2 -4 12 2
35 -19 80 -37 80 -9 0 -15 9 -15 25 0 15 -6 25 -14 25 -8 0 -23 11 -34 25 -11
14 -27 25 -36 25 -9 0 -16 7 -16 15 0 8 -8 15 -18 15 -10 0 -31 13 -47 30
l-28 29 79 4 c43 1 -433 4 -1058 5 l-1138 2 -51 -65 c-28 -36 -53 -65 -55 -65
-6 0 85 124 100 135 8 7 285 9 792 8 923 -3 1509 6 1449 20 -41 11 -69 30 -57
41 3 4 -1 4 -11 0 -10 -3 -17 -1 -17 5 0 6 -9 11 -20 11 -11 0 -20 6 -20 14 0
10 -14 16 -42 18 -39 3 -43 5 -43 30 l1 26 -336 3 c-648 4 -1669 1 -1690 -6
-19 -6 -21 -4 -15 17 4 12 10 25 12 28 3 3 262 5 576 5 1378 1 1657 4 1657 18
0 10 23 14 86 16 58 1 84 -1 79 -8z m4392 -47 c72 -24 144 -83 178 -145 26
-46 30 -64 29 -124 -2 -140 -68 -239 -193 -286 -73 -27 -133 -21 -227 26 -58
28 -78 44 -103 83 -38 60 -61 114 -61 147 0 14 -5 25 -11 25 -14 0 -3 50 23
110 58 135 226 211 365 164z m-517 -135 c0 -40 -18 -72 -36 -65 -9 3 -14 -1
-14 -13 0 -36 10 -48 35 -43 14 2 33 1 42 -4 13 -6 6 -9 -27 -13 -41 -6 -45
-8 -42 -31 2 -14 12 -38 22 -55 10 -16 21 -46 25 -65 9 -42 49 -123 81 -166
26 -33 29 -44 15 -44 -6 0 -31 39 -57 88 -26 48 -65 111 -86 141 -21 30 -38
61 -38 70 0 11 3 10 14 -5 13 -17 13 -12 1 41 -16 72 -9 147 17 175 28 30 48
26 48 -11z m-1264 -134 c26 -20 108 -72 183 -116 75 -45 187 -115 250 -157 63
-42 182 -111 264 -152 l149 -75 0 -544 c0 -518 -1 -545 -18 -555 -42 -25 -349
-186 -352 -185 -2 1 -31 -17 -65 -39 -34 -22 -87 -53 -117 -68 -81 -41 -150
-73 -150 -70 0 2 66 41 148 87 81 46 212 124 292 173 80 49 162 98 182 110 37
21 49 36 27 36 -6 0 -22 -9 -37 -20 -18 -15 -28 -18 -36 -9 -8 8 3 23 39 56
l50 46 3 436 c1 240 -1 454 -5 474 -9 40 -27 51 -29 17 -1 -22 -14 -41 -14
-22 0 7 -10 12 -23 12 -33 0 -40 10 -21 31 26 29 12 50 -55 86 -35 18 -141 84
-235 145 -94 62 -223 139 -286 172 -97 51 -126 61 -185 67 -65 6 -75 4 -130
-23 -83 -42 -243 -134 -415 -240 -262 -161 -265 -163 -268 -189 -4 -34 -23
-69 -38 -69 -9 0 -10 8 -1 35 12 40 4 54 -21 39 -16 -10 -17 -54 -18 -543 -1
-463 1 -531 13 -531 12 0 14 8 9 35 -4 22 -3 35 4 35 5 0 10 -7 10 -15 0 -9 7
-18 15 -21 18 -7 20 -34 3 -34 -7 0 24 -20 70 -45 46 -25 97 -54 112 -65 16
-12 87 -51 157 -89 70 -37 157 -89 192 -115 36 -26 94 -63 130 -83 36 -20 79
-45 94 -56 26 -18 30 -18 46 -3 13 12 20 13 29 4 7 -7 12 -18 12 -24 0 -7 109
42 247 112 136 68 253 124 260 124 6 0 13 6 15 12 3 7 7 2 10 -10 5 -18 2 -22
-15 -22 -24 -1 -88 -34 -357 -189 -167 -96 -210 -112 -210 -80 0 6 -7 8 -16 5
-8 -3 -13 -2 -10 3 3 4 -4 17 -17 27 -21 19 -21 19 -8 -1 8 -11 3 -8 -12 7
-23 23 -189 128 -303 192 -19 11 -30 22 -24 26 9 6 -198 115 -212 112 -5 -1
-8 2 -8 8 0 5 -7 10 -15 10 -8 0 -15 3 -15 8 0 8 -39 27 -164 78 l-78 32 0
548 0 548 24 18 c12 9 74 43 137 75 63 31 137 72 165 91 28 18 64 39 82 47 17
7 40 22 51 34 11 12 54 39 94 60 106 55 236 133 299 180 30 23 58 41 62 41 4
0 29 -16 54 -35z m-3586 -133 c16 -13 24 -32 26 -63 4 -58 -6 -116 -17 -97 -6
9 -9 7 -9 -9 0 -19 7 -22 75 -28 41 -4 81 -5 90 -1 8 3 15 0 15 -7 -1 -7 32
-78 72 -159 l73 -146 112 -1 112 -1 19 43 c10 23 42 83 71 132 43 75 51 96 47
125 -4 30 -3 32 7 18 11 -14 29 -16 122 -12 112 3 94 -4 -48 -21 -56 -6 -60
-9 -74 -43 -8 -20 -31 -60 -50 -90 -19 -30 -43 -76 -53 -103 -19 -46 -19 -52
-4 -96 9 -27 36 -85 60 -130 23 -45 46 -98 50 -117 l6 -36 82 0 c68 0 88 4
125 25 24 14 45 24 46 23 1 -2 6 -23 11 -48 l9 -45 125 -3 125 -2 18 27 c32
50 107 186 107 195 0 4 -25 48 -55 97 l-54 88 -103 6 c-72 4 -105 2 -113 -6
-5 -7 -9 -11 -8 -9 1 2 -16 38 -37 80 -20 43 -41 88 -45 101 -12 39 10 16 45
-47 50 -89 53 -90 171 -95 96 -5 103 -6 111 -27 5 -13 29 -56 54 -97 l46 -73
122 0 122 0 47 83 c26 46 47 91 47 100 0 9 5 19 10 22 23 14 7 -36 -40 -124
l-50 -94 34 -56 c61 -99 85 -126 117 -131 35 -6 39 -26 5 -22 -19 3 -26 -4
-40 -40 -10 -24 -42 -85 -72 -136 l-55 -93 19 -32 c140 -231 121 -214 237
-216 l94 -2 24 38 c13 21 36 61 50 88 14 28 34 61 46 75 11 14 -6 -26 -39 -89
-66 -126 -67 -128 -16 -201 17 -25 51 -81 76 -125 l46 -79 100 3 c54 1 105 8
112 14 7 6 12 6 11 1 -4 -25 6 -48 57 -130 31 -49 65 -101 76 -116 23 -35 18
-50 -78 -210 l-67 -113 47 -87 c52 -97 96 -213 96 -250 0 -14 -8 -36 -18 -49
-10 -13 -37 -58 -59 -99 l-40 -76 50 -79 c58 -94 80 -142 68 -149 -5 -3 -11 5
-15 17 -3 13 -18 41 -32 63 -15 21 -41 64 -59 94 l-31 55 -116 0 -117 0 -16
-41 c-16 -41 -67 -126 -92 -152 -11 -11 -13 -11 -13 1 0 9 -3 23 -7 33 -4 11
-2 15 4 11 23 -14 118 130 109 166 -3 12 -32 64 -65 116 -33 52 -63 102 -66
112 -6 17 -18 19 -126 19 -100 0 -119 2 -119 15 0 16 -43 101 -113 225 l-43
75 -74 6 c-93 8 -161 35 -191 74 -15 18 -17 25 -6 16 29 -23 31 -4 3 22 -14
13 -26 29 -26 35 0 5 -11 20 -25 33 -13 13 -25 31 -25 40 0 9 -7 30 -15 45 -8
16 -15 24 -15 19 0 -7 -16 -10 -37 -8 l-38 4 30 -14 c17 -8 33 -12 38 -10 10
6 9 -35 -2 -42 -5 -3 -13 0 -16 6 -7 11 -137 73 -177 84 -20 5 -20 4 -5 -5 23
-15 22 -33 -1 -26 -12 4 -26 -1 -37 -14 -22 -25 -40 -26 -31 -3 5 13 -1 10
-19 -7 -15 -14 -30 -24 -33 -24 -7 1 -93 -40 -142 -67 -42 -24 -101 -66 -175
-124 -65 -51 -95 -66 -95 -47 0 4 15 17 33 29 17 13 63 52 102 88 38 36 74 64
80 61 6 -2 19 2 30 10 18 14 18 14 -1 15 -14 0 -15 2 -4 6 8 4 20 12 27 19 7
7 17 14 22 16 5 1 12 17 14 33 4 27 7 30 38 28 71 -6 110 -2 103 9 -3 4 -47 8
-97 9 -104 1 -85 16 23 18 36 1 85 6 109 12 35 8 48 7 68 -7 26 -16 34 -18
135 -30 l56 -7 33 64 c17 35 49 90 71 121 21 32 41 65 44 73 4 9 -24 68 -66
143 -40 70 -73 128 -74 129 0 1 -113 4 -251 8 l-250 7 -52 -94 c-29 -51 -59
-110 -68 -131 -16 -38 -15 -39 16 -95 81 -144 110 -203 106 -215 -3 -7 -8 -4
-12 8 -4 11 -37 71 -74 133 l-66 113 -114 -3 -115 -3 -68 -125 c-37 -69 -68
-130 -68 -137 0 -7 21 -47 46 -90 65 -109 94 -169 93 -190 0 -10 -6 -2 -13 18
-8 19 -35 68 -61 108 -25 41 -54 89 -63 107 l-16 34 -117 0 -118 0 -20 -42
c-11 -24 -40 -81 -65 -128 l-44 -84 28 -56 c15 -30 49 -91 74 -135 25 -44 46
-84 46 -90 0 -10 -78 117 -127 208 l-26 47 -96 2 -96 2 91 3 90 4 13 37 c7 20
38 81 69 136 l55 98 -66 128 c-37 71 -67 135 -67 142 0 14 102 -165 125 -220
l14 -33 113 3 113 3 24 45 c13 25 45 82 72 128 27 46 49 91 49 100 0 9 -31 73
-68 142 l-68 125 -90 3 c-127 4 -146 -1 -166 -46 -31 -66 -119 -218 -113 -192
4 14 32 70 63 125 69 124 69 141 1 277 -28 55 -48 102 -46 104 2 2 27 -41 56
-96 34 -65 56 -97 65 -94 7 3 25 -8 40 -23 18 -19 36 -28 54 -27 15 0 51 2 80
2 47 2 54 5 63 29 5 14 35 71 66 126 30 55 56 109 56 121 0 20 -71 156 -129
247 l-24 39 -103 0 c-56 0 -107 -4 -112 -8 -6 -4 -23 -27 -37 -52 -36 -62
-102 -159 -95 -140 2 8 28 53 56 99 54 90 59 112 37 166 -8 19 -13 35 -10 35
3 0 13 -19 23 -43 16 -37 22 -43 47 -41 16 1 68 2 116 3 l88 1 21 43 c12 23
44 76 71 117 36 55 48 80 43 98 -3 13 -36 78 -73 144 -47 85 -74 123 -91 130
-14 5 -66 8 -117 7 -91 -2 -92 -1 -122 30 -55 58 -52 154 7 186 36 19 65 18
91 -3z m5882 -919 c-8 -168 -9 -113 -9 357 l0 555 9 -357 c6 -212 5 -437 0
-555z m-3544 707 c29 -55 62 -106 72 -112 11 -7 16 -16 11 -23 -5 -5 -34 -66
-66 -135 -52 -116 -85 -171 -85 -143 0 6 30 73 67 147 59 121 65 138 51 149
-9 6 -38 54 -64 106 l-49 93 -104 -6 c-57 -4 -108 -9 -113 -12 -5 -3 -34 -57
-65 -119 l-55 -114 47 -88 c27 -48 57 -101 69 -118 11 -16 20 -31 18 -32 -15
-16 13 -23 101 -25 l102 -2 -104 -3 c-84 -3 -107 -7 -117 -21 -12 -15 -12 -13
-5 13 7 27 2 41 -40 110 -27 44 -56 100 -66 125 -9 25 -22 52 -30 61 -19 23
-17 28 27 80 21 26 55 73 74 105 l34 59 119 3 118 3 53 -101z m1223 44 c40
-43 109 -89 219 -147 143 -74 260 -140 325 -183 l55 -37 -2 -86 -2 -86 -5 85
c-6 84 -6 83 -14 -63 -4 -85 -3 -155 2 -165 5 -9 10 -120 12 -245 l4 -229 -90
-55 c-50 -30 -103 -65 -120 -77 -63 -48 -283 -194 -337 -225 -33 -19 -65 -30
-75 -27 -10 3 -35 22 -56 41 -21 19 -42 35 -47 35 -5 0 -15 6 -22 14 -19 18
-77 47 -163 81 -89 36 -192 93 -276 156 l-66 49 -7 152 c-3 84 -11 180 -16
212 -11 67 -3 139 13 129 7 -4 8 44 4 151 l-7 157 47 27 c25 15 92 57 147 93
56 36 165 98 243 139 78 40 154 86 169 102 15 15 31 28 34 28 4 0 17 -12 31
-26z m-4766 -84 c4 -6 70 -43 148 -81 78 -39 194 -104 258 -145 83 -52 122
-71 138 -67 21 5 21 4 21 -163 0 -201 -11 -454 -19 -454 -3 0 -7 134 -9 297
-1 163 -5 299 -8 302 -11 11 -24 -25 -18 -53 3 -15 2 -78 -2 -140 l-8 -111 -7
65 c-4 36 -12 100 -16 142 -6 53 -6 79 1 81 6 3 9 7 6 9 -16 17 -302 181 -386
222 l-100 48 -72 -31 c-103 -45 -306 -156 -376 -205 l-59 -41 2 -82 c1 -54 -2
-83 -8 -83 -7 0 -11 32 -11 86 0 82 1 87 29 113 50 47 171 126 316 205 77 43
144 82 150 87 12 12 22 11 30 -1z m6210 -11 c4 -5 12 -8 18 -6 7 2 48 -10 92
-26 67 -25 95 -30 170 -30 78 0 100 5 168 32 43 18 84 30 90 28 7 -2 -3 -19
-25 -39 -45 -43 -70 -48 -257 -48 -136 0 -211 11 -211 32 0 4 -19 21 -42 38
-23 17 -34 30 -25 30 9 0 19 -5 22 -11z m-6087 -128 c181 -92 328 -185 324
-206 -2 -9 1 -14 6 -11 15 9 15 -251 0 -269 -38 -46 -32 -44 -214 -44 -246 1
-313 23 -449 147 -22 20 -66 56 -97 79 -32 24 -58 47 -58 53 0 5 -11 12 -24
16 -14 3 -32 16 -40 29 -15 23 -14 24 37 58 127 84 351 206 380 207 9 0 70
-27 135 -59z m-2608 -23 c40 -65 38 -105 -6 -157 -37 -44 -84 -43 -130 3 -47
47 -48 100 -3 151 27 30 37 35 75 35 39 0 47 -4 64 -32z m659 13 c39 -39 53
-79 41 -116 -15 -47 -63 -85 -105 -85 -43 0 -100 47 -109 91 -7 38 14 91 45
113 33 23 104 21 128 -3z m668 -106 c110 -34 196 -98 235 -175 28 -55 53 -144
38 -135 -4 3 -7 -9 -6 -27 2 -57 -19 -39 -37 31 -33 126 -92 189 -213 226 -67
20 -146 19 -229 -4 -60 -17 -76 -26 -117 -71 -35 -37 -53 -68 -68 -116 -11
-37 -20 -72 -20 -80 0 -8 -10 -14 -22 -15 l-23 -1 23 -6 c13 -4 22 -9 21 -12
-6 -13 14 -118 31 -161 10 -27 16 -49 14 -49 -7 0 -44 79 -44 95 0 8 -4 15 -9
15 -5 0 -9 6 -8 13 1 38 -6 49 -12 17 -7 -32 -8 -30 -15 30 -9 75 6 175 34
231 44 85 136 161 240 196 82 28 87 28 187 -2z m5191 -413 l2 -402 -23 0 c-23
0 -23 1 -16 83 4 45 10 140 13 211 6 111 5 128 -8 123 -12 -5 -13 0 -5 26 5
18 9 108 9 200 0 131 3 168 13 165 9 -4 13 -96 15 -406z m-5200 292 c76 -31
124 -98 126 -176 2 -41 0 -45 -15 -37 -28 14 -32 12 -103 -56 -66 -64 -68 -65
-122 -65 -36 0 -68 7 -92 20 -20 11 -56 25 -80 31 -24 5 -46 17 -49 24 -9 24
27 162 49 191 54 68 202 104 286 68z m-1021 -5 c61 -23 113 -93 113 -153 0
-46 -9 -66 -34 -77 -11 -6 -32 -16 -46 -24 -46 -27 -134 -14 -177 27 -24 23
-32 63 -10 55 6 -2 12 -11 12 -20 0 -8 4 -19 9 -24 5 -5 6 -2 1 6 -5 10 -4 12
4 7 6 -4 9 -12 6 -17 -4 -5 13 -9 38 -9 34 0 49 6 70 28 15 15 27 35 27 43 0
28 -30 59 -57 59 -37 0 -20 13 21 16 45 4 83 -36 89 -91 l4 -40 1 42 c2 31 -4
48 -20 67 -13 13 -29 31 -36 40 -22 27 -108 21 -149 -10 -18 -14 -33 -22 -33
-19 0 17 32 64 52 77 41 27 75 32 115 17z m8756 -119 c19 -16 73 -48 121 -69
88 -41 122 -66 41 -31 -25 11 -66 29 -92 40 -25 11 -61 34 -80 50 -38 34 -77
39 -105 13 -26 -23 -23 -75 6 -104 l24 -24 -28 -1 c-57 -2 -300 -178 -277
-200 3 -3 13 6 22 19 15 24 142 107 163 107 5 0 30 12 56 26 25 14 46 23 46
21 0 -3 -26 -20 -57 -38 -32 -18 -78 -47 -103 -65 -25 -17 -60 -39 -78 -48
-46 -24 -79 -80 -104 -179 -16 -64 -26 -87 -39 -90 -22 -6 -22 -12 -8 94 10
73 37 159 39 120 0 -11 3 -11 15 -1 8 7 15 17 15 22 0 5 9 21 20 35 24 31 25
51 3 75 -20 22 -54 23 -93 3 -37 -19 -46 -36 -55 -103 -4 -32 -26 -90 -56
-149 -27 -53 -49 -108 -49 -122 0 -15 15 -51 34 -80 19 -29 51 -91 72 -137 32
-71 42 -84 62 -84 l23 0 -31 58 c-30 53 -30 55 -6 27 15 -16 39 -43 54 -60 15
-16 30 -39 33 -50 7 -19 7 -19 8 2 1 12 4 24 9 26 4 3 33 -15 65 -39 52 -39
77 -52 77 -40 0 2 -25 23 -55 46 -30 23 -55 47 -55 52 0 9 38 -10 187 -94 47
-26 51 -31 43 -53 -6 -17 -5 -27 5 -35 26 -22 4 -31 -24 -11 -34 25 -129 67
-191 85 -39 12 -49 12 -53 1 -3 -7 0 -18 6 -24 8 -8 8 -11 -1 -11 -7 0 -12 5
-12 10 0 6 -5 10 -11 10 -6 0 -9 -7 -5 -15 5 -13 1 -13 -27 2 -32 17 -32 17
-8 23 44 10 35 29 -15 32 -33 2 -50 9 -58 22 -8 14 -8 20 2 23 11 4 11 8 -1
22 -7 9 -22 39 -32 66 -10 28 -43 92 -73 144 -50 85 -54 95 -42 115 76 118 84
137 120 273 6 24 21 54 33 67 18 21 137 74 226 101 13 4 40 14 60 23 36 15 52
17 81 5 9 -3 -2 -10 -30 -18 -25 -8 -78 -25 -118 -39 -41 -14 -80 -26 -88 -26
-8 0 -14 -5 -14 -10 0 -22 29 -19 101 10 41 17 97 38 124 47 61 20 60 20 48
35 -6 7 -14 28 -18 46 -16 77 81 111 148 52z m-9350 -836 c2 -390 0 -686 -4
-659 -8 55 -12 1381 -4 1374 2 -3 6 -324 8 -715z m9391 529 c63 -23 131 -83
161 -144 20 -39 25 -62 24 -121 -1 -40 -5 -86 -9 -103 -5 -18 -6 -1 -3 45 9
132 -46 229 -167 294 -70 38 -129 39 -205 2 -102 -50 -175 -161 -175 -264 0
-52 30 -137 61 -175 22 -27 101 -74 169 -101 14 -5 -10 -2 -67 8 -33 7 -76 32
-105 63 -106 111 -94 315 26 437 28 29 67 57 86 63 55 17 150 15 204 -4z m-8
-62 c116 -55 168 -150 145 -264 -25 -122 -61 -166 -165 -201 -64 -22 -92 -20
-156 10 -69 32 -96 56 -127 117 -70 138 -10 300 127 347 75 26 105 25 176 -9z
m-7527 -351 c47 -45 39 -115 -18 -145 -80 -41 -141 1 -141 98 0 77 97 105 159
47z m-1558 -311 c94 -32 145 -146 104 -233 -20 -42 -89 -86 -135 -86 -43 0
-104 39 -125 80 -43 83 6 209 95 243 22 8 24 8 61 -4z m1984 -65 c165 -84 218
-118 355 -228 52 -41 102 -76 111 -76 13 0 15 -41 17 -350 l2 -349 -48 -28
c-26 -15 -85 -54 -131 -87 -78 -56 -421 -246 -443 -246 -7 0 -7 4 0 13 9 10
-1 19 -46 39 -96 45 -219 118 -395 236 -92 61 -172 112 -176 112 -5 0 -11 -6
-13 -12 -8 -23 -16 505 -9 589 l6 82 110 73 c61 41 128 86 150 102 54 38 337
204 351 205 5 1 77 -33 159 -75z m-1335 37 c37 -27 70 -90 70 -137 0 -49 -49
-130 -89 -145 -45 -18 -102 -1 -143 42 -59 62 -63 147 -11 210 50 59 117 71
173 30z m7189 -238 c18 -37 39 -76 48 -86 15 -16 15 -19 -9 -45 -14 -15 -35
-46 -47 -69 l-21 -43 -78 0 c-53 0 -72 -3 -62 -10 8 -5 44 -10 80 -10 l65 -1
44 -69 c25 -39 49 -70 54 -70 5 0 -2 -13 -16 -30 -14 -16 -36 -52 -49 -80
l-23 -51 -85 7 c-47 3 -88 8 -93 11 -4 2 -30 34 -57 69 l-49 65 36 47 c20 26
43 62 52 80 15 32 14 36 -8 75 -34 60 -84 122 -89 109 -2 -6 16 -45 38 -87
l42 -75 -43 -65 -43 -65 -86 0 -85 0 -55 71 -54 71 29 55 c53 102 55 103 154
103 55 0 93 5 103 13 9 6 34 41 56 77 l41 65 89 3 90 3 31 -68z m328 -221 l25
-33 -20 -22 c-27 -30 -62 -102 -62 -127 0 -20 -1 -20 -16 -6 -11 12 -36 16
-92 16 l-77 0 -40 63 c-22 34 -40 69 -40 77 0 8 18 45 40 82 l40 67 85 3 85 3
24 -45 c13 -25 35 -60 48 -78z m-7825 48 c44 -13 74 -51 82 -105 l5 -40 -10
35 c-5 20 -21 49 -35 65 l-24 30 19 -35 c32 -59 35 -106 10 -146 -14 -23 -31
-37 -50 -41 -16 -3 -29 -8 -29 -12 0 -3 -31 -5 -70 -3 -74 4 -75 4 -86 68 -15
92 -15 99 -5 84 8 -11 11 -4 11 32 0 50 6 57 54 69 46 10 86 10 128 -1z m8466
-217 c44 -35 91 -116 92 -157 0 -52 -47 -140 -92 -169 -66 -43 -91 -44 -166
-5 -59 29 -70 39 -94 87 -32 63 -35 110 -9 166 51 111 181 149 269 78z m-1278
-36 c0 -5 16 -34 35 -63 19 -29 35 -60 35 -70 0 -9 -17 -50 -37 -91 l-37 -73
-93 0 c-92 0 -93 0 -93 24 0 14 -20 55 -45 92 -25 36 -45 68 -45 71 0 2 15 17
34 33 18 17 39 42 45 57 11 28 13 28 106 29 57 1 95 -3 95 -9z m539 -3 c28 -6
37 -17 70 -82 l38 -76 -36 -68 -36 -69 -88 2 c-57 1 -92 -2 -100 -10 -7 -7
-32 -46 -57 -88 l-45 -77 -85 0 -85 -1 -38 65 c-20 36 -42 72 -48 80 -9 12 0
35 41 104 29 49 55 84 59 78 4 -6 46 -12 93 -14 l87 -3 18 -39 c20 -44 50 -86
63 -86 5 0 -9 29 -31 65 -21 35 -39 68 -39 71 0 4 14 30 32 58 17 28 37 61 45
74 11 18 22 22 62 22 27 0 63 -3 80 -6z m-7662 -20 c28 -8 38 -53 25 -109 -6
-22 -10 -32 -11 -21 -1 17 -8 18 -93 14 -51 -3 -84 -3 -73 -1 16 3 21 11 19
36 -1 26 0 27 3 5 4 -23 9 -28 34 -28 16 0 29 4 29 10 0 5 -7 7 -15 4 -11 -5
-15 1 -15 20 0 27 15 35 23 14 4 -8 6 -7 6 4 1 9 -7 19 -16 22 -10 2 -4 4 12
3 28 -2 30 -5 30 -40 0 -20 3 -37 6 -37 9 0 18 62 12 78 -6 14 -79 16 -88 2
-3 -5 -11 -10 -16 -10 -6 0 -7 5 -4 10 3 6 1 10 -4 10 -11 0 -15 -13 -12 -37
1 -7 -3 -13 -8 -13 -5 0 -8 12 -5 26 3 15 1 23 -5 20 -5 -4 -12 -2 -15 2 -3 5
-22 9 -42 10 -20 1 -39 4 -42 7 -7 7 238 6 265 -1z m-85 -361 c24 -21 24 -86
1 -104 -15 -11 -16 -11 -5 1 6 8 12 23 12 34 0 20 -1 20 -16 -2 -21 -30 -118
-33 -134 -3 -11 22 -14 74 -3 84 14 15 126 7 145 -10z m753 -185 c71 -33 108
-90 113 -172 5 -83 -17 -144 -71 -192 -78 -71 -156 -90 -226 -54 -95 48 -140
114 -149 216 -8 106 36 171 146 215 58 24 120 19 187 -13z m7429 -22 c24 -4
32 -16 34 -54 2 -25 -3 -44 -13 -52 -8 -7 -13 -16 -10 -19 5 -9 -6 -11 -65
-14 -44 -2 -45 -1 -59 39 -19 56 -9 88 31 101 18 6 41 9 52 6 10 -3 24 -6 30
-7z m530 -416 c21 -26 24 -35 15 -58 -27 -72 -75 -82 -114 -25 -30 46 -31 51
-2 85 30 38 68 37 101 -2z m-8646 -281 c1 8 5 11 8 8 4 -4 1 -13 -6 -22 -10
-12 -10 -15 0 -15 8 0 11 -13 8 -40 -2 -22 0 -40 4 -40 15 0 30 55 31 117 1
72 8 74 18 5 l6 -47 3 60 c2 57 3 58 11 25 5 -19 8 -136 7 -260 -1 -201 -4
-229 -21 -263 -15 -30 -22 -35 -33 -26 -16 13 -19 23 -4 14 6 -3 10 -1 10 4 0
6 -5 11 -12 11 -19 0 -58 42 -58 62 0 10 7 18 15 18 8 0 15 -4 15 -8 0 -5 8
-19 19 -31 16 -18 20 -19 25 -6 3 9 10 13 16 10 7 -4 9 56 8 177 -2 140 -3
155 -5 66 -2 -67 -8 -118 -13 -118 -6 0 -10 24 -10 54 0 49 -2 55 -20 53 -21
-1 -27 -13 -10 -19 7 -2 5 -19 -5 -47 -8 -24 -15 -58 -15 -77 0 -18 -4 -36
-10 -39 -12 -7 -14 384 -2 436 7 32 7 32 13 -21 3 -30 6 -49 7 -41z m-129 -52
c1 -27 6 -59 11 -71 9 -25 12 -111 4 -138 -3 -10 -14 -18 -24 -18 -26 0 -52
29 -45 50 3 10 0 20 -9 23 -7 3 -16 22 -18 42 -5 43 11 61 41 46 25 -14 31
-14 31 -1 0 6 -8 10 -19 10 -14 0 -20 10 -24 41 -7 53 0 69 27 67 20 -2 23 -8
25 -51z m-376 -1675 c78 -52 76 -136 -3 -177 -40 -21 -64 -19 -95 8 -40 34
-47 108 -14 144 42 44 72 51 112 25z"/>
<path d="M924 9627 c3 -21 17 -38 27 -31 5 3 8 2 7 -3 -2 -4 7 -24 19 -44 12
-19 27 -58 33 -85 9 -42 8 -58 -10 -108 -42 -124 -134 -206 -229 -206 -47 0
-131 49 -176 102 -40 48 -87 156 -83 195 1 17 -1 35 -5 39 -7 8 -10 -41 -7
-111 2 -45 40 -127 79 -168 39 -43 98 -69 168 -75 53 -4 70 -1 117 22 31 15
68 40 83 56 15 16 30 27 34 25 14 -9 59 116 59 164 0 60 -21 132 -54 182 -27
40 -66 69 -62 46z"/>
<path d="M839 9609 c46 -18 79 -49 100 -95 12 -25 20 -49 17 -52 -3 -3 -6 -2
-6 3 0 4 -9 -4 -20 -18 -11 -14 -20 -29 -20 -34 0 -10 -59 -95 -73 -104 -5 -4
-6 -12 -3 -18 4 -6 2 -11 -4 -11 -6 0 -9 -4 -6 -9 3 -5 16 -7 29 -3 20 5 21 4
7 -13 -14 -17 -14 -17 5 -7 27 14 68 59 94 102 37 62 21 152 -37 213 -29 31
-73 57 -94 56 -7 0 -2 -5 11 -10z"/>
<path d="M640 9577 c-77 -51 -99 -166 -50 -260 23 -46 80 -101 80 -77 0 7 6 8
19 0 30 -16 51 -12 51 9 0 11 6 22 13 24 10 4 10 6 0 6 -7 1 -13 8 -13 16 0 8
-4 15 -9 15 -5 0 -11 13 -14 30 -4 16 -24 47 -45 68 -21 21 -42 47 -46 58 -7
15 -9 16 -13 4 -14 -46 -14 -46 -24 -27 -16 28 8 83 54 122 47 40 45 45 -3 12z"/>
<path d="M6953 9890 c-23 -14 -33 -27 -33 -45 0 -26 54 -95 75 -95 7 0 25 14
39 31 34 39 35 91 4 113 -29 21 -46 20 -85 -4z"/>
<path d="M2080 9746 c-128 -66 -133 -73 -138 -209 l-4 -112 36 -37 c45 -47
191 -121 214 -109 10 4 47 23 84 41 81 40 89 48 117 123 25 69 26 115 5 186
-12 43 -21 55 -47 66 -18 7 -65 32 -106 54 -41 23 -74 41 -75 40 0 0 -39 -20
-86 -43z m135 -82 c55 -36 80 -116 54 -167 -16 -32 -51 -67 -59 -62 -5 3 -10
-1 -13 -9 -4 -9 -15 -12 -32 -8 -37 7 -85 84 -85 137 0 30 -3 36 -10 25 -13
-20 -13 -86 1 -113 15 -30 50 -57 74 -57 14 0 16 -3 8 -11 -17 -17 -77 24 -97
65 -35 74 -8 150 69 193 48 27 58 28 90 7z"/>
<path d="M9380 9493 c-87 -37 -146 -113 -157 -200 -4 -41 -1 -58 22 -103 52
-103 94 -141 189 -173 51 -17 82 -15 126 11 23 13 24 13 6 -2 -27 -22 -8 -20
31 4 61 37 130 113 142 155 35 128 -15 252 -122 304 -53 26 -182 28 -237 4z
m158 -180 c19 -12 22 -20 17 -41 -10 -43 -34 -62 -75 -62 -45 0 -71 26 -73 71
-2 26 3 36 23 46 28 15 73 9 108 -14z"/>
<path d="M4497 8558 c-19 -29 -50 -79 -70 -111 -21 -31 -37 -60 -37 -63 0 -3
24 -47 53 -97 29 -51 64 -114 77 -142 l25 -50 114 0 114 0 59 100 c69 119 70
137 12 241 -22 38 -49 91 -61 119 l-21 50 -116 3 -116 3 -33 -53z"/>
<path d="M5557 8428 c-14 -24 -43 -74 -65 -113 l-40 -70 61 -118 62 -119 113
4 c111 4 114 5 137 34 13 16 47 73 75 127 l50 98 -59 79 c-33 44 -62 88 -66
100 -6 19 -14 20 -125 20 l-119 0 -24 -42z"/>
<path d="M4872 8230 c-17 -30 -44 -75 -61 -100 l-30 -44 77 -149 77 -148 115
2 c67 1 118 6 122 12 4 7 12 4 23 -6 13 -14 37 -17 130 -17 l113 0 23 38 c59
98 99 172 99 183 0 7 -28 61 -62 120 l-63 108 -115 3 c-63 2 -118 0 -121 -5
-3 -4 -12 4 -19 18 -17 31 -27 34 -167 37 l-111 3 -30 -55z"/>
<path d="M4482 7958 c-33 -62 -63 -124 -67 -138 -6 -19 8 -54 66 -167 l74
-143 40 0 c22 0 71 3 108 7 58 5 70 9 77 28 5 12 36 68 69 124 34 57 61 110
61 119 0 10 -25 62 -55 117 -31 55 -63 115 -72 133 l-17 32 -112 0 -112 0 -60
-112z"/>
<path d="M5552 7942 c-13 -26 -42 -76 -65 -111 l-41 -64 63 -121 c35 -66 68
-127 74 -133 10 -14 204 -18 223 -5 6 4 41 56 78 115 48 77 66 115 62 130 -3
12 -37 70 -75 130 l-70 107 -113 0 -113 -1 -23 -47z"/>
<path d="M5960 7714 c-22 -25 -130 -216 -130 -228 0 -6 25 -49 55 -96 30 -47
62 -106 71 -132 l16 -48 104 0 104 0 76 116 76 116 -16 38 c-8 21 -42 79 -76
130 -33 51 -60 98 -60 106 0 22 -203 20 -220 -2z"/>
<path d="M5533 7397 c-101 -161 -102 -179 -18 -305 30 -45 50 -82 45 -82 -6 0
-10 -3 -10 -7 0 -23 144 -57 216 -51 38 3 40 5 116 126 50 81 75 129 71 140
-9 23 -66 124 -112 197 l-38 60 -109 3 -109 2 -52 -83z"/>
<path d="M6274 7317 l-74 -118 19 -37 c11 -20 42 -74 69 -120 28 -46 54 -96
57 -113 l7 -29 101 3 101 4 79 141 79 142 -77 125 -77 125 -105 -3 -104 -2
-75 -118z"/>
<path d="M5903 7071 c-46 -74 -73 -129 -73 -147 0 -17 23 -66 56 -122 31 -51
62 -109 69 -130 l13 -37 109 -3 108 -2 29 52 c17 29 52 87 78 128 26 41 48 79
48 84 0 16 -59 124 -114 210 l-56 86 -97 0 -98 0 -72 -119z"/>
<path d="M6408 6881 l-57 -6 -39 -65 c-94 -158 -104 -181 -90 -198 11 -13 11
-14 0 -8 -18 11 5 -34 68 -131 28 -41 50 -82 50 -89 0 -11 23 -14 113 -12 100
1 105 2 47 8 l-65 7 53 3 c28 2 60 4 70 4 9 1 16 -5 14 -12 -5 -27 19 1 45 51
14 29 39 70 55 92 l28 41 -19 58 c-21 58 -63 147 -108 224 -27 46 -29 47 -165
33z"/>
<path d="M7792 8808 c-6 -6 -12 -18 -12 -25 0 -7 -8 -13 -17 -13 -28 0 -93 20
-93 28 0 18 -79 4 -130 -23 -130 -66 -290 -189 -290 -222 0 -7 -4 -13 -10 -13
-5 0 -10 -7 -10 -15 0 -8 -4 -15 -9 -15 -4 0 -14 -21 -21 -47 -8 -27 -17 -50
-21 -53 -13 -9 -26 -83 -21 -110 8 -36 8 -105 0 -185 -7 -66 -6 -72 17 -97 14
-15 25 -32 25 -37 0 -5 4 -12 9 -15 5 -4 7 4 5 16 -2 13 3 5 12 -17 9 -22 16
-46 17 -52 0 -7 10 -13 21 -13 19 -1 19 -2 4 -11 -10 -5 -18 -15 -18 -21 0 -6
3 -9 6 -5 20 20 187 -91 182 -121 -2 -12 22 -25 97 -53 115 -42 175 -55 175
-39 0 6 -12 15 -26 21 -15 5 -25 11 -23 13 7 8 59 -6 54 -14 -3 -4 2 -11 11
-14 8 -3 12 -2 9 4 -3 6 0 10 7 10 27 0 57 -12 62 -25 3 -9 0 -12 -8 -9 -8 3
-17 1 -21 -5 -4 -7 8 -11 35 -11 55 0 174 62 303 157 69 52 97 79 97 94 0 11
10 33 21 47 l22 27 -7 -30 c-4 -16 -5 -27 -1 -24 3 4 15 49 26 100 16 75 19
115 15 193 -4 67 -3 103 5 112 8 10 8 34 0 92 -18 125 -28 152 -56 152 -18 0
-22 4 -18 18 3 13 -10 31 -45 60 -27 23 -52 42 -55 42 -3 0 -19 13 -36 29 -18
17 -38 28 -46 25 -7 -3 -18 3 -24 14 -5 10 -36 32 -68 49 -69 36 -132 50 -151
31z m44 -79 c99 -30 214 -93 260 -141 l39 -42 -43 36 c-59 49 -192 114 -275
135 l-68 18 -82 -29 c-165 -56 -337 -154 -337 -191 0 -8 -4 -15 -8 -15 -19 0
-43 -89 -53 -196 -20 -196 16 -373 87 -432 84 -69 295 -152 388 -152 81 0 309
102 362 162 54 61 86 195 87 368 1 104 -2 123 -31 203 -17 49 -25 84 -18 78 7
-6 25 -52 41 -102 26 -86 27 -98 22 -223 -9 -197 -40 -294 -113 -354 -20 -17
-86 -56 -147 -88 -141 -73 -200 -80 -320 -40 -113 38 -241 104 -286 147 -22
21 -41 35 -44 31 -2 -4 -2 -2 -1 5 2 7 -3 25 -11 40 -22 46 -45 177 -45 260 0
137 39 304 83 351 50 54 338 191 403 192 23 0 73 -9 110 -21z m38 -169 c132
-63 192 -155 203 -312 7 -92 -11 -155 -65 -236 -67 -102 -200 -170 -310 -159
-68 7 -172 58 -212 104 -16 18 -34 33 -40 33 -13 0 -86 -46 -95 -60 -7 -12
-35 -14 -35 -2 0 4 25 20 56 37 37 20 54 35 50 45 -2 8 -16 47 -30 85 -33 90
-33 159 -1 250 14 39 26 74 27 80 6 20 116 108 165 131 107 51 187 52 287 4z"/>
<path d="M7645 8533 c-62 -25 -148 -86 -173 -123 -78 -116 -64 -318 30 -412
95 -95 234 -127 333 -76 96 50 131 83 167 155 30 62 33 75 33 163 0 79 -4 102
-23 137 -69 131 -245 205 -367 156z m170 -74 c122 -34 178 -203 115 -346 -27
-61 -55 -91 -105 -114 -118 -55 -273 9 -314 130 -25 76 -4 187 51 264 44 62
159 92 253 66z"/>
<path d="M7643 8394 c-46 -30 -82 -87 -84 -130 -2 -27 -2 -26 -8 6 -7 35 -7
35 -14 -15 -14 -100 42 -210 121 -236 47 -16 113 -14 144 3 28 15 89 82 108
118 19 36 15 130 -8 181 -33 74 -62 93 -145 97 -65 3 -76 1 -114 -24z"/>
<path d="M397 8722 c-52 -54 -26 -152 44 -167 25 -6 36 -2 59 20 15 15 30 39
33 53 10 54 -39 122 -88 122 -12 0 -33 -13 -48 -28z"/>
<path d="M1058 8721 c-27 -24 -33 -36 -33 -70 0 -52 27 -81 84 -88 37 -5 46
-2 72 23 27 25 30 34 26 68 -7 49 -50 96 -89 96 -16 0 -41 -12 -60 -29z"/>
<path d="M9435 7994 c-79 -29 -126 -103 -126 -199 0 -96 72 -189 167 -215 38
-11 50 -10 91 5 141 54 201 194 133 312 -55 96 -161 135 -265 97z m118 -75
c26 -7 44 -20 55 -40 10 -16 20 -29 25 -29 4 0 7 -24 7 -54 0 -39 -6 -60 -21
-80 -64 -81 -183 -73 -219 14 -17 40 -8 120 16 153 34 46 69 55 137 36z"/>
<path d="M9463 7880 c-39 -23 -67 -74 -59 -105 10 -39 55 -84 90 -90 45 -9
101 16 120 54 26 48 20 85 -18 125 -39 42 -82 47 -133 16z"/>
<path d="M1949 7674 c-18 -22 -13 -102 7 -126 32 -34 112 -17 133 29 18 39 13
60 -20 87 -36 31 -99 36 -120 10z"/>
<path d="M465 7333 c-52 -14 -105 -82 -105 -135 1 -35 35 -103 61 -122 70 -49
209 22 209 107 -1 43 -33 112 -62 130 -27 18 -75 27 -103 20z m-35 -48 c-7 -8
-8 -15 -2 -15 5 0 15 7 22 15 19 23 73 19 98 -7 28 -30 44 -76 36 -102 -15
-49 -83 -94 -126 -83 -45 12 -80 119 -49 150 18 18 13 31 -6 16 -10 -7 -7 -1
6 14 25 28 43 38 21 12z"/>
<path d="M2313 7244 c-28 -7 -103 -38 -168 -69 -99 -48 -129 -68 -199 -135
-88 -85 -119 -137 -132 -225 -7 -42 -9 -45 -12 -20 -7 52 17 134 51 173 l32
36 -34 -20 c-18 -10 -40 -29 -47 -40 -16 -23 -34 -155 -34 -241 0 -30 -5 -53
-10 -53 -7 0 -9 -18 -6 -47 3 -27 8 -94 11 -149 l7 -101 33 -16 c17 -8 57 -36
88 -60 97 -80 240 -175 328 -217 71 -35 91 -40 127 -36 46 6 216 83 315 142
90 55 230 171 244 202 l11 27 11 -25 c9 -24 10 -24 10 10 1 101 -20 452 -30
497 -13 58 -22 67 -159 160 -16 10 -10 1 15 -26 32 -33 42 -54 52 -104 7 -34
19 -96 27 -137 8 -41 15 -92 16 -113 0 -54 -28 -185 -50 -227 -40 -78 -116
-159 -216 -228 -11 -7 -1 -3 21 9 22 12 56 31 75 41 19 10 35 22 35 26 0 4 10
20 23 36 12 16 22 23 22 17 0 -7 5 -9 10 -6 6 4 7 11 4 17 -4 7 -2 8 4 4 9 -5
9 -11 0 -24 -22 -33 -129 -120 -175 -142 -63 -29 -93 -41 -93 -35 0 3 12 10
26 16 15 5 24 12 21 15 -3 3 -42 -6 -87 -20 -100 -32 -134 -32 -249 -2 -50 13
-88 20 -86 15 12 -19 -20 -19 -46 0 -15 11 -31 21 -34 21 -9 0 -178 116 -202
139 -13 12 -23 31 -23 42 0 18 1 19 25 3 15 -10 25 -12 25 -5 0 6 -4 11 -10
11 -5 0 -7 7 -4 15 4 8 10 12 15 9 12 -7 11 -2 -6 33 -8 17 -24 77 -34 135
-18 100 -18 107 -1 175 27 107 73 197 124 242 15 13 33 29 40 35 40 37 190
109 271 131 36 10 65 21 65 25 0 4 30 6 68 4 l67 -4 -30 26 c-29 26 -29 26 -3
10 31 -18 38 -20 38 -7 0 5 -13 14 -29 21 -57 23 -96 27 -148 14z"/>
<path d="M2255 7065 c-27 -8 -53 -14 -56 -15 -14 -1 -131 -82 -126 -87 3 -3
18 4 33 16 15 11 31 21 37 21 6 0 -6 -12 -26 -27 -20 -16 -44 -38 -53 -51 -8
-12 -19 -20 -24 -17 -4 3 -7 -3 -6 -13 0 -9 -4 -16 -11 -15 -6 2 -15 -6 -18
-17 -4 -11 -12 -20 -20 -20 -16 0 -40 -58 -55 -137 -10 -48 -10 -73 0 -112 7
-28 16 -49 20 -46 5 3 6 -4 3 -15 -3 -11 3 -32 13 -47 18 -28 20 -32 23 -54 0
-5 5 -8 10 -4 5 3 12 -4 16 -15 10 -32 114 -139 156 -160 24 -13 78 -23 153
-31 l116 -11 64 30 c36 17 86 50 112 74 53 48 119 144 117 170 -1 9 5 19 13
22 8 3 11 12 7 22 -4 11 -2 15 4 11 6 -4 13 6 17 24 21 105 -22 309 -65 309
-6 0 -7 -4 -4 -10 3 -5 -1 -10 -10 -10 -9 0 -34 18 -57 41 -38 37 -40 43 -29
62 12 18 11 23 -9 39 -12 10 -26 15 -31 12 -5 -3 -9 -1 -9 5 0 11 -160 50
-211 52 -32 1 -32 2 -9 9 24 8 24 8 -5 8 -16 1 -52 -6 -80 -13z m243 -106
c133 -76 203 -186 201 -312 l-2 -62 -8 69 c-12 92 -45 161 -106 222 -102 102
-221 130 -350 83 -142 -52 -243 -233 -212 -380 30 -144 141 -249 295 -279 75
-15 119 -4 200 49 64 42 100 77 134 131 17 27 20 30 15 10 -13 -47 -47 -90
-103 -133 -84 -65 -136 -81 -228 -73 -184 15 -319 147 -332 325 -6 83 21 171
74 243 100 139 284 185 422 107z m-26 -57 c107 -47 163 -135 162 -253 -1 -93
-22 -148 -76 -202 -117 -117 -274 -125 -397 -21 -68 59 -86 103 -86 214 0 111
18 155 86 214 89 76 207 94 311 48z"/>
<path d="M2267 6873 c-64 -24 -115 -67 -138 -117 -22 -50 -25 -162 -5 -209 30
-71 147 -157 212 -157 111 0 226 85 260 192 15 49 16 65 6 108 -7 28 -25 71
-42 95 -57 83 -194 124 -293 88z"/>
<path d="M2909 6304 c-21 -25 -151 -111 -284 -187 -66 -38 -109 -66 -95 -62
17 5 22 4 15 -3 -5 -6 -48 -23 -95 -39 -65 -21 -79 -28 -58 -31 15 -2 56 9 90
25 62 27 158 82 158 90 0 2 -5 1 -12 -3 -7 -4 -8 -3 -4 5 4 6 12 9 17 5 5 -3
35 12 67 33 31 21 61 40 68 43 6 3 47 29 91 59 54 35 80 58 76 67 -7 18 -18
18 -34 -2z"/>
<path d="M1041 7314 c-36 -30 -51 -55 -62 -103 -9 -40 3 -76 38 -113 35 -37
80 -44 128 -21 103 49 111 174 16 239 -46 31 -82 30 -120 -2z m116 -30 c27
-24 27 -25 3 -13 -24 12 -24 12 4 -21 23 -28 27 -40 22 -68 -6 -41 -38 -78
-72 -85 -53 -10 -125 71 -111 124 4 13 20 39 37 57 39 40 78 42 117 6z"/>
<path d="M9193 6679 c-86 -20 -135 -124 -97 -204 18 -39 81 -91 121 -101 35
-9 69 3 108 38 72 62 86 141 38 206 -45 60 -96 78 -170 61z m90 -23 c56 -23
72 -50 72 -120 0 -72 -17 -111 -57 -132 -41 -21 -75 -17 -124 16 -71 49 -92
115 -59 181 31 60 102 83 168 55z"/>
<path d="M1381 6073 c-72 -37 -94 -68 -99 -143 -4 -54 -1 -69 29 -127 42 -83
89 -117 158 -116 56 1 94 19 140 67 19 19 39 32 45 29 6 -3 8 -3 4 2 -4 4 -1
20 7 36 19 36 19 122 1 157 -32 62 -106 109 -183 117 -39 5 -58 1 -102 -22z
m187 -18 c58 -38 82 -89 82 -173 0 -39 -4 -73 -8 -76 -5 -3 -8 23 -8 57 0 78
-30 142 -77 162 -48 20 -123 29 -131 16 -4 -6 -15 -11 -25 -11 -19 0 -62 -41
-81 -79 -7 -13 -9 -37 -6 -55 4 -22 3 -27 -4 -16 -16 25 -11 93 10 127 44 73
173 98 248 48z m-28 -48 c30 -14 70 -89 70 -129 0 -79 -55 -128 -142 -128 -36
0 -50 6 -73 30 -26 27 -30 40 -33 101 -4 63 -2 73 19 96 13 14 33 29 44 33 30
13 87 11 115 -3z"/>
<path d="M1423 5961 c-35 -22 -48 -60 -38 -115 9 -43 32 -65 78 -73 78 -12
117 16 117 83 0 105 -74 155 -157 105z"/>
<path d="M316 3619 c-18 -14 -26 -30 -26 -53 0 -49 24 -76 68 -76 31 0 41 5
55 29 49 84 -23 158 -97 100z"/>
<path d="M7243 6439 c4 -112 8 -310 8 -439 1 -134 5 -216 9 -190 4 25 12 57
18 72 7 17 8 30 2 33 -17 10 -11 25 10 25 13 0 18 5 14 15 -4 8 1 37 10 64 11
36 17 112 22 299 8 279 10 268 -59 304 l-40 20 6 -203z"/>
<path d="M2058 5547 c-18 -11 -82 -47 -143 -79 -60 -33 -118 -67 -128 -77 -10
-10 -33 -58 -51 -107 -18 -49 -37 -97 -41 -106 -10 -26 11 -22 29 4 9 12 30
62 47 111 30 82 35 90 83 122 79 51 126 76 136 70 5 -3 38 8 73 26 l64 31 131
-75 c112 -65 135 -74 159 -67 27 7 24 9 -47 43 -41 19 -104 52 -140 72 -87 50
-129 58 -172 32z"/>
<path d="M2081 5481 c-7 -5 -11 -13 -8 -18 4 -6 -31 -27 -76 -47 -148 -66
-152 -69 -156 -112 -3 -35 -4 -37 -11 -14 -7 21 -8 19 -9 -15 -2 -48 -21 -90
-41 -90 -26 0 -22 -32 20 -137 46 -118 56 -132 90 -141 14 -3 59 -27 100 -51
81 -49 107 -56 117 -28 4 9 11 21 17 25 7 6 4 7 -6 3 -20 -6 -186 76 -206 102
-7 9 -10 26 -7 37 4 11 6 45 5 76 -1 43 3 58 15 62 8 4 15 13 15 22 0 8 6 15
13 15 7 0 21 14 30 30 10 17 23 30 28 30 6 0 8 4 5 9 -3 5 1 14 9 21 8 7 15 9
15 4 0 -5 11 4 25 21 22 25 29 28 45 17 16 -9 21 -9 28 4 8 14 10 14 25 0 8
-9 21 -16 27 -16 6 0 4 -7 -5 -17 -13 -13 -19 -13 -25 -4 -5 9 -10 10 -14 2
-4 -6 -1 -11 6 -12 7 0 0 -6 -16 -13 l-29 -13 27 -5 c15 -3 24 -3 21 0 -3 3 9
14 26 24 27 16 32 17 45 3 8 -8 13 -19 10 -23 -3 -5 6 -7 19 -4 15 2 25 0 25
-7 0 -6 9 -11 20 -11 11 0 20 -4 20 -10 0 -5 8 -10 19 -10 13 0 20 -10 25 -32
5 -27 9 -30 17 -18 18 26 1 -68 -20 -108 -11 -21 -32 -49 -48 -63 -49 -46
-153 -110 -165 -103 -7 4 -8 3 -4 -4 4 -7 -4 -22 -18 -36 -14 -13 -26 -29 -26
-36 0 -10 5 -9 18 3 9 8 66 39 125 67 59 29 116 63 127 77 32 42 73 180 65
221 -4 21 -7 45 -8 54 -1 9 -4 15 -8 13 -3 -3 -11 8 -18 23 -11 26 -11 26 5 7
16 -20 16 -20 9 3 -4 13 -16 43 -26 67 -19 42 -26 47 -146 105 -131 63 -139
65 -162 51z"/>
<path d="M2411 5368 c7 -12 29 -69 50 -127 l38 -105 -25 -61 c-14 -33 -35 -85
-47 -115 -18 -49 -26 -58 -71 -79 -28 -14 -60 -35 -71 -47 -12 -13 -54 -35
-94 -49 l-73 -27 -115 58 c-84 42 -127 57 -159 58 -24 1 -39 3 -34 4 15 5 12
20 -10 42 -11 11 -20 26 -20 33 1 6 7 1 15 -13 8 -14 14 -20 15 -13 0 7 -11
24 -25 39 -14 15 -28 39 -32 53 -13 55 -73 156 -73 123 0 -5 9 -35 21 -68 11
-32 21 -67 22 -76 1 -10 4 -18 8 -18 4 0 10 -7 13 -16 4 -11 2 -15 -8 -11 -16
6 -13 -6 11 -53 7 -14 13 -33 13 -42 0 -9 10 -20 23 -24 12 -3 68 -28 124 -55
56 -27 105 -49 108 -49 2 0 27 -14 55 -31 43 -26 53 -29 66 -18 19 16 50 34
82 48 38 18 24 22 -15 6 -21 -9 -47 -25 -59 -36 l-22 -21 -38 25 c-22 13 -91
50 -154 83 -82 42 -108 60 -92 62 25 4 142 -51 220 -102 30 -20 57 -36 61 -36
5 0 28 15 53 34 48 37 248 139 248 127 0 -5 -34 -31 -77 -59 -96 -65 -85 -68
16 -5 42 26 82 48 90 50 15 2 31 21 31 37 0 6 -7 1 -15 -10 -13 -16 -16 -17
-25 -4 -14 21 -4 61 36 151 19 42 34 84 34 92 0 9 5 19 10 22 7 4 8 11 2 18
-5 7 -20 40 -32 74 -12 35 -29 68 -36 74 -8 6 -14 20 -14 30 0 11 -4 19 -10
19 -5 0 -10 7 -10 15 0 8 -5 15 -10 15 -7 0 -7 -8 1 -22z"/>
<path d="M1234 4685 c-4 -8 -13 -15 -22 -15 -8 0 -12 -3 -9 -7 4 -3 -10 -14
-31 -23 -37 -17 -134 -94 -141 -113 -2 -5 2 -6 9 -2 9 6 9 3 1 -13 -16 -30
-39 -35 -44 -9 -3 13 -5 7 -6 -15 0 -21 2 -38 5 -38 20 0 49 28 65 65 24 55
78 104 91 82 12 -23 26 -901 13 -906 -5 -2 -27 -21 -49 -43 -37 -37 -38 -40
-34 -93 5 -62 32 -108 67 -113 l21 -3 2 -522 2 -522 7 370 c3 204 7 436 8 518
1 116 4 147 14 147 26 0 99 61 112 94 8 18 11 44 8 57 -9 38 -53 90 -88 105
-28 11 -34 20 -39 56 -4 24 -7 232 -7 463 l0 420 25 8 c14 5 26 13 26 18 0 5
9 9 20 9 13 0 20 7 20 20 0 24 -38 28 -46 5z m-4 -1030 c65 -34 81 -111 33
-157 -35 -32 -66 -48 -92 -48 -28 0 -63 54 -69 106 -4 39 -1 47 31 79 39 39
54 42 97 20z"/>
<path d="M1145 3609 c-30 -36 -28 -73 7 -121 21 -30 30 -35 26 -16 -2 6 6 14
17 16 18 4 18 3 5 -14 -10 -12 -3 -10 17 6 59 46 63 129 8 150 -40 15 -51 12
-80 -21z"/>
<path d="M2032 4445 c-102 -33 -268 -115 -331 -165 -29 -23 -54 -40 -55 -38
-2 1 -8 12 -14 23 -8 15 -11 16 -12 5 0 -9 4 -20 9 -25 6 -6 -5 -43 -30 -100
-23 -49 -50 -128 -62 -175 -14 -58 -28 -92 -44 -107 -28 -27 -33 -28 -33 -8 0
17 -26 20 -36 4 -11 -19 15 -34 59 -34 l41 0 17 -91 c11 -58 30 -117 53 -163
34 -67 36 -75 24 -107 -15 -41 0 -65 25 -40 21 21 40 20 61 -3 15 -17 17 -61
18 -472 l1 -454 8 420 c4 231 5 432 3 448 -6 29 6 36 25 14 6 -8 29 -22 52
-32 l41 -19 -8 -363 c-5 -270 -4 -363 5 -363 10 0 14 167 16 663 0 31 2 56 5
54 13 -8 110 -51 151 -67 86 -34 60 -8 -39 39 -162 78 -238 121 -266 150 l-28
29 37 28 37 28 18 -21 c18 -22 78 -63 94 -63 4 0 -14 15 -40 33 -48 32 -76 78
-39 63 16 -6 16 -5 3 16 -9 13 -24 23 -34 23 -13 0 -23 11 -30 33 -5 18 -13
29 -17 26 -7 -7 -11 10 -8 35 2 7 -2 10 -8 7 -11 -7 -16 -1 -25 37 -4 19 -3
26 4 22 5 -3 10 1 10 10 0 9 -4 14 -9 11 -11 -7 -35 49 -26 63 3 6 14 11 25
11 19 0 30 -19 30 -51 0 -11 22 -66 49 -123 43 -92 54 -108 104 -145 31 -22
61 -41 67 -41 5 0 10 -5 10 -12 0 -6 3 -9 6 -5 4 3 13 0 21 -8 17 -17 33 -19
33 -5 0 5 -3 9 -7 8 -15 -4 -97 55 -149 106 -55 55 -95 140 -97 207 -1 21 -5
35 -9 32 -5 -2 -8 5 -8 16 0 12 -5 21 -10 21 -21 0 30 181 66 233 12 18 12 18
23 0 9 -15 10 -13 5 12 -5 25 1 37 31 68 20 20 41 34 47 31 7 -4 8 -2 4 4 -7
11 45 42 94 57 24 7 24 6 6 -7 -13 -10 -15 -17 -8 -22 7 -4 12 -2 12 4 0 6 5
8 10 5 6 -3 10 -1 10 5 0 6 4 9 9 5 5 -3 12 -1 16 5 3 5 13 10 21 10 17 0 19
-36 2 -43 -8 -3 -6 -6 5 -6 11 -1 17 7 18 22 1 15 4 10 9 -13 7 -35 7 -35 9
-5 1 23 3 27 11 15 8 -12 10 -9 10 13 0 27 2 28 33 22 59 -13 136 -43 163 -64
15 -12 33 -21 41 -21 10 0 11 -5 4 -17 -6 -12 -5 -20 4 -28 7 -5 34 -50 60
-100 l47 -90 -5 -95 c-2 -52 -12 -128 -22 -168 -14 -62 -20 -73 -35 -69 -11 3
-17 0 -14 -7 4 -11 -93 -83 -108 -79 -4 2 -8 -4 -8 -14 0 -15 1 -15 18 0 10
10 22 17 26 17 4 0 19 9 33 20 40 31 67 25 107 -22 20 -23 36 -45 36 -49 0
-25 -324 -219 -365 -219 -19 0 -19 12 0 74 12 38 12 57 4 92 -6 24 -16 44 -22
44 -27 0 10 16 61 27 l57 12 -50 -5 c-80 -8 -105 -15 -105 -29 0 -8 -5 -26
-12 -42 -6 -15 -10 -32 -8 -38 1 -5 7 -50 14 -99 11 -90 28 -119 40 -70 4 14
9 24 12 21 8 -8 102 27 154 57 25 14 48 26 53 26 4 0 8 -186 9 -412 l2 -413 6
419 c4 351 7 420 19 424 8 3 34 23 58 45 l43 40 1 -49 c1 -27 5 -175 8 -329
l7 -280 2 331 2 332 23 15 c22 14 26 13 56 -5 32 -21 55 -18 33 4 -21 21 -13
67 24 151 29 64 38 99 42 159 4 75 5 77 33 83 49 11 52 36 5 39 -28 1 -28 2
-41 111 -9 71 -31 134 -66 191 -26 41 -29 51 -19 68 10 16 9 18 -3 13 -9 -3
-25 5 -38 19 -59 63 -283 166 -429 198 -8 2 -48 -7 -88 -19z m315 -87 c111
-50 193 -107 193 -133 0 -7 -28 -40 -62 -73 -35 -33 -60 -63 -57 -67 3 -3 37
24 74 61 l67 66 29 -48 c36 -61 66 -153 75 -233 l7 -61 -47 0 c-42 0 -46 2
-52 28 -10 46 -12 48 -13 10 -1 -33 -3 -37 -28 -36 -21 1 -28 6 -29 22 -1 18
-16 65 -46 145 -5 13 -11 21 -15 18 -3 -4 0 -13 7 -22 7 -9 10 -18 7 -21 -3
-3 -18 17 -32 46 -15 29 -22 49 -16 45 6 -3 14 2 18 12 4 10 16 26 28 35 11
10 16 17 11 18 -5 0 -18 -8 -29 -17 -16 -16 -20 -16 -31 -3 -29 37 -160 110
-235 130 -38 10 -42 14 -36 33 11 30 11 76 2 109 l-7 28 52 -21 c29 -11 104
-43 165 -71z m-272 -2 l-7 -76 -42 -10 c-73 -19 -130 -50 -189 -104 l-58 -54
-37 48 c-20 27 -46 53 -56 57 -17 8 -12 15 45 55 85 60 330 174 347 162 2 -1
1 -37 -3 -78z m-357 -195 l62 -60 -17 -35 c-9 -20 -21 -36 -25 -36 -5 0 -7 -3
-5 -8 3 -4 -5 -39 -18 -77 -21 -62 -27 -70 -50 -70 -24 -1 -25 2 -19 30 4 16
24 75 45 129 21 55 37 101 35 104 -7 7 -31 -47 -66 -148 -36 -103 -49 -120
-92 -120 -16 0 -28 5 -28 13 0 51 93 337 110 337 3 0 33 -27 68 -59z m-94
-341 c7 0 12 -9 13 -21 3 -34 43 -147 70 -195 28 -50 24 -63 -29 -90 l-29 -15
-29 64 c-29 64 -53 146 -65 226 l-7 44 32 -7 c18 -3 38 -6 44 -6z m931 -75
c-18 -77 -14 -100 5 -28 26 102 23 98 68 101 48 4 46 8 32 -91 -11 -76 -77
-247 -96 -247 -20 0 -65 67 -58 87 4 13 3 15 -4 4 -7 -10 -14 -10 -30 -2 -20
11 -20 11 -1 60 10 28 26 79 35 115 13 52 20 66 38 68 11 2 22 3 24 2 1 0 -5
-32 -13 -69z"/>
<path d="M676 4297 c-12 -26 0 -73 29 -111 14 -18 25 -42 25 -54 0 -11 7 -27
15 -36 12 -12 15 -47 15 -189 l0 -174 -29 -6 c-40 -8 -94 -58 -115 -106 -35
-77 1 -174 79 -218 22 -12 45 -26 51 -32 7 -5 14 -7 17 -4 11 10 17 -92 28
-492 6 -225 13 -412 15 -414 2 -3 1 203 -3 456 l-6 460 28 7 c70 18 126 98
127 182 2 69 -64 152 -134 169 l-28 7 0 174 c0 109 4 174 10 174 6 0 10 4 10
9 0 6 -15 11 -32 13 -26 2 -34 8 -37 28 -1 14 -6 27 -10 30 -12 9 -40 84 -44
115 -3 24 -5 27 -11 12z m174 -597 c55 -28 81 -69 82 -129 0 -109 -87 -187
-181 -161 -114 30 -166 185 -89 257 59 55 123 66 188 33z"/>
<path d="M713 3669 c-42 -27 -66 -79 -57 -125 14 -77 94 -127 158 -100 79 35
111 100 79 163 -36 75 -117 103 -180 62z m133 -40 c19 -18 24 -33 24 -70 0
-40 -4 -51 -31 -73 -53 -45 -119 -31 -145 31 -19 44 -11 83 24 118 22 23 33
26 65 22 22 -3 50 -16 63 -28z"/>
<path d="M2050 4091 c-44 -14 -104 -48 -124 -70 -10 -11 -22 -18 -26 -16 -4 3
-14 -3 -21 -13 -13 -15 -12 -16 4 -3 21 17 22 8 2 -23 -8 -12 -20 -47 -26 -77
-13 -68 7 -164 46 -215 36 -47 146 -99 210 -99 78 0 159 45 209 118 39 56 41
61 39 131 -2 118 -56 206 -150 248 -50 22 -127 31 -163 19z m150 -34 c93 -38
140 -119 140 -243 0 -49 -5 -68 -28 -105 -37 -56 -56 -73 -117 -100 -61 -27
-125 -21 -197 18 -92 50 -135 141 -118 247 11 68 30 106 72 141 79 67 155 80
248 42z"/>
<path d="M7702 3773 c-1 -156 2 -234 9 -238 6 -4 8 -14 5 -22 -3 -8 -1 -11 5
-8 6 4 18 0 27 -8 16 -14 195 -121 391 -234 52 -30 100 -62 107 -71 11 -16 15
-15 42 12 17 15 99 68 184 116 276 160 298 175 298 209 0 16 -4 32 -9 35 -4 3
-6 -5 -4 -18 4 -17 -4 -30 -34 -53 -71 -56 -419 -263 -442 -263 -7 0 -11 27
-11 74 0 44 -5 78 -11 82 -8 4 -9 -18 -4 -80 9 -103 8 -103 -86 -48 -35 21
-141 84 -235 140 -183 109 -205 125 -186 144 18 18 14 30 -8 23 -11 -3 -21 -5
-22 -3 -1 2 -4 102 -8 223 l-6 220 -2 -232z"/>
<path d="M9475 3840 c-4 -6 -39 -26 -78 -46 -39 -19 -76 -39 -82 -43 -5 -5
-39 -21 -75 -35 -111 -45 -131 -63 -182 -167 -25 -52 -56 -125 -68 -162 -12
-38 -35 -83 -50 -101 l-28 -32 23 -22 c13 -13 29 -40 36 -60 6 -20 27 -69 45
-109 19 -39 37 -86 41 -105 9 -46 100 -131 172 -159 31 -12 100 -44 153 -71
l97 -49 4 -52 3 -52 2 51 c1 28 8 56 15 62 6 5 68 33 136 62 142 59 167 73
174 100 7 26 2 25 -41 -10 -20 -16 -80 -48 -132 -70 -52 -23 -109 -50 -126
-61 -17 -10 -34 -16 -37 -12 -4 3 -7 30 -7 59 0 48 2 52 27 59 41 10 307 129
296 132 -4 2 -58 -18 -118 -43 -61 -25 -136 -56 -168 -67 l-58 -22 3 -53 c2
-28 3 -52 2 -52 -3 0 -252 123 -276 136 -42 23 -74 68 -96 136 -12 35 -42 101
-67 147 -26 46 -47 96 -47 110 0 14 9 48 21 74 12 27 18 54 14 59 -3 7 -1 8 5
4 8 -5 11 2 8 21 -2 15 -1 22 1 15 3 -8 25 33 50 90 58 135 56 131 84 145 119
58 283 134 303 139 22 5 26 3 26 -14 0 -32 -79 -94 -195 -153 -57 -30 -100
-55 -95 -57 5 -2 -4 -24 -21 -50 -40 -63 -37 -76 4 -16 20 31 55 64 95 89 151
96 184 115 179 102 -4 -10 1 -13 19 -9 22 4 24 8 18 38 -4 23 -2 34 5 34 7 0
10 -4 7 -9 -14 -21 91 -103 180 -141 37 -15 70 -33 74 -40 6 -9 9 -9 15 0 10
16 -2 25 -65 45 -95 31 -170 85 -197 143 -27 57 -4 61 69 14 35 -23 107 -62
160 -87 55 -26 107 -58 118 -73 30 -38 90 -135 90 -145 0 -5 11 -36 24 -70 39
-99 39 -104 15 -110 -15 -4 -20 -11 -15 -22 3 -9 -6 -39 -20 -68 -27 -53 -24
-54 14 -3 12 16 22 25 22 20 0 -5 7 2 16 14 9 13 22 21 30 18 19 -7 18 33 -1
54 -8 9 -35 72 -59 138 -37 100 -54 132 -95 180 -28 32 -61 64 -74 70 -12 6
-56 26 -98 45 -42 19 -103 52 -135 74 -81 54 -82 55 -89 43z"/>
<path d="M7148 3743 c64 -3 82 -7 82 -18 0 -10 -12 -15 -37 -16 -37 -2 -37 -2
-8 -8 17 -4 59 -21 95 -38 56 -27 71 -40 107 -96 23 -36 45 -77 48 -90 5 -17
-8 -57 -44 -135 -28 -61 -51 -117 -51 -124 0 -24 30 30 65 118 21 53 46 98 61
110 25 20 25 21 6 26 -11 3 -28 21 -37 39 -10 18 -24 39 -31 47 -16 15 -19 36
-5 27 12 -7 -1 41 -23 83 -13 25 -27 34 -76 48 -33 9 -60 21 -60 25 0 5 -39 8
-87 7 l-88 -2 83 -3z"/>
<path d="M9383 3427 c-18 -7 -40 -21 -50 -31 -18 -19 -18 -19 9 -3 38 23 41
21 13 -8 -14 -13 -25 -31 -25 -40 0 -12 7 -8 25 13 33 39 83 62 138 62 95 0
124 -27 148 -139 9 -45 8 -56 -9 -89 -39 -76 -154 -106 -242 -63 -38 18 -39
18 -30 0 14 -25 84 -42 142 -36 138 17 190 111 137 251 -30 80 -54 96 -148 95
-42 0 -90 -6 -108 -12z"/>
<path d="M10088 2393 c18 -4 22 -11 21 -36 l-1 -32 -8 30 c-4 17 -8 25 -9 19
-1 -6 -35 -11 -88 -13 -49 -1 -126 -6 -173 -10 -47 -4 -91 -5 -99 -1 -17 9
-51 1 -51 -11 0 -15 -67 -10 -80 6 -7 8 -22 15 -33 15 -20 0 -20 -1 3 -25 28
-30 22 -31 -27 -5 l-37 19 -13 -27 c-13 -26 -18 -28 -77 -29 -50 0 -68 -5 -84
-21 -14 -14 -17 -22 -9 -25 7 -2 2 -2 -10 0 -20 3 -63 -29 -63 -48 0 -4 -8 -9
-17 -11 -12 -2 11 -20 62 -47 76 -43 85 -45 185 -51 58 -3 243 -7 413 -8 l307
-1 0 159 0 160 -67 -1 c-38 -1 -58 -4 -45 -6z"/>
<path d="M115 2350 c3 -5 -2 -10 -12 -10 -10 0 -27 -7 -37 -15 -27 -21 -46
-19 -46 5 0 11 -4 20 -10 20 -6 0 -10 -90 -10 -250 l0 -250 298 0 c163 0 403
-2 532 -5 393 -8 1042 -12 920 -6 -84 5 -103 8 -70 12 l45 6 -42 1 c-42 2 -63
22 -23 22 11 0 20 7 20 15 0 8 -9 15 -20 15 -13 0 -20 7 -20 20 0 13 -7 20
-20 20 -11 0 -20 7 -20 15 0 8 9 15 19 15 11 0 21 6 23 12 3 9 76 13 294 15
159 1 304 6 322 10 18 4 -101 8 -265 8 -164 0 -309 3 -323 7 -14 3 -320 7
-680 8 -484 0 -650 3 -636 12 13 7 62 9 154 4 116 -6 1117 3 1110 10 -2 1 -70
3 -153 5 -82 1 -158 6 -167 11 -9 4 -62 8 -117 9 -80 0 -101 4 -101 15 0 10
14 14 53 15 28 1 77 4 107 9 43 6 23 8 -85 8 -134 0 -265 9 -274 18 -2 2 17 4
43 4 l48 0 -23 19 c-13 10 -30 16 -38 13 -10 -4 -13 -1 -8 11 4 12 -3 19 -28
27 -19 6 -40 8 -47 4 -8 -5 -9 -2 -5 10 5 12 3 16 -5 14 -7 -3 -14 -14 -16
-26 -2 -12 -8 -22 -13 -22 -9 0 -13 14 -10 39 2 7 -3 10 -9 6 -6 -4 -40 -1
-75 6 -59 12 -65 11 -101 -10 -22 -13 -43 -29 -47 -37 -4 -8 -12 -14 -18 -14
-5 0 -33 -17 -62 -38 -29 -21 -59 -42 -67 -47 -30 -16 5 12 98 80 50 37 92 69
92 70 0 4 -62 -3 -87 -11 -13 -4 -23 -2 -23 4 0 6 -18 13 -40 17 -22 4 -40 10
-40 14 0 5 -42 14 -92 21 -51 7 -108 21 -126 31 -35 20 -77 26 -67 9z"/>
<path d="M9008 2279 c13 -5 35 -18 48 -28 l25 -20 -23 -4 c-19 -3 -17 -5 7 -6
23 -1 27 -3 15 -11 -8 -5 -28 -10 -45 -11 -17 -1 -22 -3 -12 -6 26 -7 21 -23
-8 -23 -14 0 -25 -4 -25 -8 0 -5 -22 -8 -49 -8 -38 0 -55 -6 -80 -26 -17 -15
-31 -30 -31 -34 0 -5 5 -3 12 4 23 23 38 13 38 -27 0 -43 7 -40 -123 -63 -57
-10 -69 -16 -73 -35 -4 -14 -14 -23 -25 -23 -14 0 -19 -7 -19 -26 0 -21 -4
-25 -22 -23 -32 4 -89 -23 -83 -39 3 -8 5 -18 5 -23 0 -5 9 -9 20 -9 17 0 19
-3 10 -19 -7 -15 -7 -22 2 -28 7 -4 99 -11 203 -14 l190 -7 -211 3 c-116 1
-217 6 -224 10 -7 5 -88 8 -179 7 -241 -2 -267 -5 -91 -12 152 -6 150 -6 -82
-8 -193 -2 -238 1 -245 12 -4 7 -28 17 -53 21 -25 4 -42 4 -38 0 11 -11 -12
-36 -25 -28 -29 18 30 -56 65 -81 35 -25 38 -30 25 -43 -13 -13 -18 -11 -45
14 -57 52 -62 55 -62 39 0 -7 -7 -16 -15 -20 -8 -3 -15 -12 -15 -20 0 -8 -6
-17 -12 -19 -7 -3 -2 -6 10 -6 13 -1 47 -7 75 -15 29 -8 124 -17 212 -20 88
-3 281 -11 430 -18 l269 -12 31 -29 30 -29 -33 26 c-32 25 -38 26 -170 26 -75
0 -168 3 -206 7 -56 5 -68 4 -61 -7 7 -11 -36 -12 -241 -6 -157 4 -251 11
-255 17 -3 6 -18 12 -32 12 -20 2 -23 5 -14 16 10 11 6 12 -23 6 -51 -11 -55
-16 -26 -34 14 -10 51 -45 82 -80 48 -52 61 -61 81 -56 13 3 65 2 116 -2 84
-7 88 -8 47 -15 -32 -5 -22 -6 35 -3 44 1 67 0 50 -4 l-30 -7 34 -7 c18 -4
140 -7 270 -8 130 0 254 -4 276 -8 22 -4 -80 -7 -227 -6 -147 1 -266 -1 -264
-4 2 -3 -21 -4 -52 -2 l-56 3 25 -33 c14 -19 43 -59 64 -89 75 -108 78 -110
169 -112 l81 -2 -74 -5 -74 -6 60 -75 c100 -123 99 -123 195 -123 l83 0 -70
-7 c-53 -5 -21 -7 130 -10 l200 -4 -200 -6 c-110 -3 -310 -3 -445 0 l-245 5
227 5 227 5 -90 105 c-87 102 -91 105 -129 104 -22 -1 -37 2 -34 7 3 5 16 9
30 9 22 0 20 5 -38 88 -105 150 -95 143 -213 138 l-100 -5 88 14 c85 13 133
29 72 25 -16 -2 -38 1 -48 5 -19 8 -90 2 -120 -10 -13 -5 -30 6 -67 44 -34 35
-57 51 -75 51 -14 0 -25 -5 -25 -11 0 -7 -11 -9 -26 -6 -15 2 -41 1 -58 -3
-17 -5 -43 -11 -58 -14 -19 -4 -28 -13 -28 -26 0 -11 -7 -20 -15 -20 -14 0
-19 -12 -16 -32 0 -5 -8 -8 -19 -8 -11 0 -20 5 -20 10 0 6 -7 10 -16 10 -8 0
-12 -4 -9 -10 4 -6 -7 -10 -27 -9 -31 1 -32 1 -8 9 l25 8 -28 1 c-19 1 -27 -3
-25 -11 3 -9 42 -15 129 -18 l124 -6 -127 -2 -127 -2 61 -98 c33 -53 66 -103
73 -110 10 -11 77 -14 316 -14 l304 -1 -275 -7 c-151 -4 -287 -8 -302 -9 l-27
-1 64 -107 c36 -58 68 -110 73 -115 8 -8 1129 -24 1592 -21 181 1 267 -2 235
-7 -27 -4 -252 -9 -500 -9 -444 -1 -449 -1 -430 -20 19 -19 42 -20 545 -21
289 -1 650 -2 803 -1 l277 1 0 25 0 25 -162 3 -163 3 163 2 c100 1 162 6 162
12 0 6 -19 11 -42 11 -24 1 -115 5 -203 9 l-160 8 203 -3 202 -3 0 290 0 290
-572 -3 c-315 -2 -541 -1 -503 2 39 4 296 7 573 8 l502 1 0 39 c0 22 -5 42
-12 44 -10 4 -10 6 0 6 8 1 12 25 12 86 l0 84 -72 4 -73 3 73 2 72 2 0 120 0
120 -377 3 -378 2 378 3 377 2 0 30 0 30 -414 0 c-228 0 -422 3 -432 7 -12 4
-15 3 -10 -5 4 -7 -7 -5 -28 5 -20 9 -34 18 -32 21 2 2 14 -2 26 -8 12 -6 24
-9 27 -7 2 3 -28 22 -69 44 -40 21 -91 52 -113 68 -82 63 -134 95 -152 94 -14
0 -13 -2 5 -10z m-746 -533 c145 2 270 4 278 5 39 5 1153 -2 1148 -7 -3 -3
-256 -5 -561 -5 -309 1 -587 -3 -628 -9 -100 -13 -236 -16 -404 -8 l-140 7
120 -13 120 -12 -105 -5 c-86 -3 -111 -1 -140 13 -26 13 -30 17 -15 18 18 1
18 2 -2 10 -35 14 -27 18 22 10 25 -4 163 -5 307 -4z"/>
<path d="M0 1806 c0 -28 4 -35 23 -39 l22 -4 -22 -2 -23 -1 0 -880 0 -880
3125 0 c2771 0 3125 2 3125 15 0 13 -34 15 -232 17 l-233 3 228 2 228 3 -6 23
c-44 152 -60 189 -82 198 -27 10 -834 12 -870 3 -22 -6 -23 -12 -23 -88 0 -44
4 -98 9 -118 7 -30 6 -38 -5 -38 -11 0 -14 17 -14 69 0 37 -3 89 -6 114 -7 46
-7 46 -56 56 -30 7 -203 11 -438 11 l-389 0 -18 -24 c-10 -12 -29 -71 -42
-130 -13 -58 -26 -105 -28 -102 -2 2 6 53 19 114 18 90 20 114 10 124 -10 10
-116 14 -456 16 l-443 4 -27 -58 c-15 -32 -39 -88 -52 -124 -24 -62 -44 -96
-44 -74 0 6 4 14 8 20 10 10 92 217 92 230 0 11 -910 7 -910 -4 0 -4 -10 -18
-21 -32 l-21 -25 16 27 c9 15 16 30 16 33 0 3 -28 5 -62 6 -72 1 -68 5 15 14
55 6 58 8 83 53 15 26 55 91 90 144 35 54 64 100 64 103 0 3 -44 6 -97 7 l-98
2 104 5 104 6 35 65 c19 36 52 94 73 130 l39 65 -153 5 -152 5 159 5 158 5 64
110 c35 61 64 114 64 119 0 5 -30 6 -67 3 -38 -3 -113 -2 -168 2 -98 8 -97 8
68 9 192 2 185 -1 236 102 17 33 37 70 46 83 21 30 19 44 -3 24 -10 -10 -30
-17 -44 -17 -14 0 -46 -3 -72 -6 -41 -6 -46 -9 -46 -33 0 -35 -26 -71 -51 -71
-40 0 -57 18 -64 69 -5 38 -12 52 -27 57 -17 5 -14 9 23 27 50 26 56 36 32 64
-13 14 -30 20 -61 19 -24 -1 -48 5 -54 12 -16 18 -46 15 -60 -8 -7 -11 -19
-20 -26 -20 -7 0 -15 -7 -19 -16 -3 -8 -12 -13 -20 -10 -9 4 -18 -4 -25 -24
-10 -30 -10 -30 -87 -30 -68 0 -80 -3 -98 -23 -27 -29 -126 -178 -121 -182 1
-2 19 -8 38 -14 35 -10 35 -10 -15 -8 l-49 2 -98 -120 c-53 -66 -97 -123 -98
-127 0 -4 8 -9 18 -11 9 -2 6 -3 -7 -2 -14 2 -35 -8 -52 -24 -32 -30 -159
-220 -159 -238 0 -6 -8 -14 -18 -17 -28 -9 -252 -273 -252 -297 0 -4 8 -10 18
-12 10 -3 6 -5 -10 -6 -17 -1 -45 -16 -70 -38 l-43 -38 28 33 c31 38 28 52
-10 52 -42 0 -21 10 28 13 42 3 47 7 122 97 157 191 159 193 146 201 -8 5 -4
8 11 11 18 2 47 37 112 131 48 71 85 133 82 139 -4 6 -2 8 3 5 12 -7 89 70
173 172 41 49 50 65 39 72 -11 7 -11 9 2 9 8 0 25 10 37 23 31 33 132 181 126
186 -2 2 -54 10 -116 16 l-113 12 203 1 c194 0 224 3 208 19 -9 9 -55 11 -406
14 -283 3 -288 4 -120 9 96 4 -27 5 -275 4 -380 -1 -412 -1 -205 6 135 4 398
9 585 10 187 2 325 5 308 7 -20 3 -33 10 -33 19 0 10 -12 14 -42 14 -33 0 -39
3 -28 11 11 8 7 9 -17 4 -19 -4 -34 -2 -38 6 -9 14 12 28 45 30 37 3 -74 17
-155 20 l-70 3 85 5 c64 5 18 8 -180 14 -146 5 -285 12 -310 16 -56 9 206 4
479 -10 224 -11 224 -11 236 46 6 27 5 28 -8 13 -20 -26 -27 -22 -21 10 5 23
1 30 -21 40 -14 7 -36 12 -48 12 -12 0 -28 4 -36 9 -8 5 5 7 34 3 35 -3 46 -2
41 7 -4 6 -39 12 -84 13 -73 1 -74 2 -27 8 38 5 21 8 -75 10 -69 1 -159 6
-200 10 -52 6 -11 7 138 6 135 0 212 3 212 9 0 6 4 4 9 -3 8 -14 54 -12 166 5
l40 6 -35 8 c-19 4 -48 6 -65 3 -25 -4 -27 -3 -10 6 14 7 -38 9 -175 8 -107
-1 -337 6 -510 15 -194 10 -583 18 -1012 22 l-698 5 0 -34z m710 -203 c16 -16
36 -44 44 -64 15 -36 15 -37 -21 -72 -63 -63 -167 -62 -210 2 -30 44 -29 62 4
102 53 63 133 77 183 32z m662 -341 c27 -7 22 -20 -15 -36 -20 -8 -59 -44 -94
-87 -33 -41 -70 -83 -82 -93 -25 -23 -27 -42 -5 -50 10 -4 85 -4 168 -2 323
11 379 10 393 -10 19 -26 16 -40 -14 -73 -33 -35 -107 -51 -117 -26 -3 8 -11
15 -17 15 -8 0 -8 -4 1 -15 8 -9 9 -15 2 -15 -6 0 -13 4 -16 9 -3 5 -106 12
-228 16 -182 6 -231 4 -264 -7 -37 -13 -45 -13 -70 0 -21 12 -78 18 -209 23
-250 10 -375 20 -375 29 0 4 87 11 193 15 105 4 216 14 245 21 29 8 88 14 130
14 82 0 111 12 133 52 9 16 8 23 -2 29 -10 6 -6 9 12 9 34 0 193 140 178 155
-11 11 -19 11 -774 16 -462 3 -502 4 -280 9 320 7 1082 9 1107 2z"/>
<path d="M3784 1334 c-20 -62 -48 -124 -55 -124 -5 0 -6 -7 -3 -15 10 -25
-165 -21 -216 5 -22 11 -54 20 -72 20 -18 0 -55 12 -83 25 -57 28 -71 30 -78
13 -3 -9 -10 -6 -23 8 -17 19 -28 21 -75 19 -64 -4 -84 5 -76 34 7 30 0 26
-18 -8 -8 -17 -12 -38 -9 -48 4 -12 3 -14 -3 -6 -6 9 -19 -6 -42 -48 -18 -33
-30 -63 -26 -67 4 -4 165 -8 359 -9 l353 -3 16 38 c32 72 67 175 62 180 -2 3
-7 -4 -11 -14z"/>
<path d="M7100 1331 c0 -22 -16 -37 -22 -20 -6 19 -48 0 -48 -22 0 -10 -7 -19
-15 -19 -8 0 -15 -4 -15 -10 0 -5 -9 -10 -20 -10 -11 0 -20 -4 -20 -10 0 -5
-13 -10 -29 -10 -49 0 -91 -12 -91 -26 0 -8 -9 -14 -20 -14 -11 0 -20 7 -20
15 0 16 -29 20 -45 8 -6 -5 -7 -4 -3 1 4 5 -6 24 -22 43 -30 34 -40 61 -18 47
7 -5 8 -3 3 5 -4 8 -11 9 -16 4 -5 -5 1 -36 16 -74 45 -114 45 -113 57 -101 7
7 19 12 28 11 11 0 9 -3 -5 -9 -14 -6 4 -9 55 -8 42 0 79 6 83 12 6 8 10 7 14
-1 3 -10 65 -13 261 -13 142 0 263 4 270 8 15 10 -31 104 -82 167 l-33 40
-132 3 c-125 3 -131 2 -131 -17z"/>
<path d="M2946 1068 c-18 -29 -49 -83 -69 -119 l-37 -66 92 -7 c107 -7 402 -6
573 3 l120 6 23 64 c12 36 20 71 17 78 -2 8 -1 12 4 9 5 -3 16 11 24 32 l15
37 -162 6 c-88 3 -252 7 -364 8 l-202 1 -34 -52z"/>
<path d="M3725 1090 c-25 -48 -78 -201 -72 -207 11 -10 382 -16 570 -8 201 8
217 12 217 60 0 13 -11 37 -25 53 -15 19 -21 33 -15 37 23 14 8 22 -19 9 -34
-17 -61 -9 -61 16 0 10 -6 21 -12 24 -9 4 -8 5 2 4 8 -1 22 2 30 5 8 3 31 10
50 16 25 6 -40 10 -225 11 -143 1 -297 3 -342 5 -83 4 -83 4 -98 -25z"/>
<path d="M6085 1110 c-38 -4 -73 -6 -77 -3 -14 8 -8 -29 18 -121 14 -50 28
-97 30 -103 3 -10 87 -13 381 -13 208 0 384 4 391 9 14 8 -2 54 -64 186 l-26
55 -292 -1 c-160 -1 -322 -5 -361 -9z"/>
<path d="M6776 1111 c-7 -11 71 -199 91 -221 12 -13 73 -16 403 -19 282 -2
390 0 390 8 0 6 -34 63 -77 126 l-76 115 -363 0 c-208 0 -365 -4 -368 -9z"/>
<path d="M4495 1098 c-9 -28 -35 -171 -35 -193 0 -21 6 -22 83 -28 45 -4 159
-6 252 -5 l170 1 -109 8 c-130 9 -156 15 -156 34 0 14 -20 20 -60 17 -7 0 -21
8 -30 18 -9 11 -39 23 -66 27 l-49 9 3 39 c6 66 14 74 90 78 l67 3 -78 2 c-55
1 -79 -2 -82 -10z"/>
<path d="M5780 990 c-14 -4 -64 -8 -112 -9 -70 -1 -86 -4 -82 -15 6 -15 -62
-36 -121 -36 -20 0 -41 -5 -48 -10 -7 -6 -21 -17 -32 -24 -17 -13 -13 -15 45
-21 92 -9 550 -1 523 9 -13 4 -21 12 -18 16 2 4 -4 15 -15 25 -11 10 -20 24
-20 31 0 7 -15 17 -32 22 -18 6 -40 12 -48 15 -8 3 -26 1 -40 -3z"/>
<path d="M2803 828 c-13 -21 -46 -81 -74 -133 l-51 -95 409 0 c224 0 413 4
420 8 6 4 29 57 51 117 22 61 43 117 46 125 5 13 -41 15 -385 15 l-392 0 -24
-37z"/>
<path d="M3631 855 c-13 -16 -91 -222 -91 -239 0 -14 33 -16 293 -16 204 0
287 -3 277 -11 -10 -6 -115 -9 -299 -7 l-285 3 -29 -65 c-36 -80 -77 -197 -77
-222 0 -17 20 -18 425 -18 234 0 425 3 425 8 0 4 13 14 28 23 26 15 30 25 49
135 12 67 18 123 13 128 -5 5 -49 12 -97 16 -82 7 -84 7 -26 9 50 1 112 18
142 38 5 3 51 216 48 219 -1 1 -179 4 -395 6 -255 2 -396 -1 -401 -7z"/>
<path d="M6880 860 c-9 -6 59 -173 87 -216 9 -15 25 -24 40 -24 13 0 21 -4 18
-10 -4 -6 71 -11 207 -13 l213 -2 -222 -3 -223 -2 1 -22 c0 -13 26 -75 57
-138 46 -91 62 -116 82 -121 14 -3 24 -11 22 -17 -1 -9 109 -12 438 -12 270 0
440 4 440 9 0 17 -68 126 -130 210 l-60 81 -97 2 -98 2 88 3 c98 4 101 7 67
73 -25 48 -102 160 -127 182 -16 15 -61 17 -407 20 -213 2 -392 1 -396 -2z"/>
<path d="M7966 863 c-224 -3 -257 -5 -252 -18 3 -9 40 -67 81 -130 l76 -115
112 -2 112 -1 -102 -7 c-57 -3 -105 -9 -109 -13 -4 -3 16 -39 44 -79 28 -40
66 -99 84 -130 l33 -58 53 0 c48 0 53 -2 47 -19 -4 -15 0 -21 17 -24 16 -3 12
-5 -12 -6 -20 0 -46 -9 -60 -18 -22 -16 -24 -16 -38 5 l-14 22 -433 0 c-239 0
-440 -3 -449 -6 -24 -9 -20 -26 34 -134 28 -55 50 -105 50 -112 0 -7 -25 36
-55 97 -30 61 -66 120 -80 133 l-26 22 -437 -2 c-400 -3 -437 -4 -440 -20 -2
-9 11 -69 29 -132 l31 -116 1969 0 1969 0 0 395 0 395 -167 0 c-93 1 -450 2
-795 4 -441 1 -625 -1 -621 -8 33 -55 132 -168 158 -180 22 -11 66 -17 132
-18 l98 -2 -120 -5 c-74 -4 -125 -2 -134 4 -8 5 -17 9 -20 9 -3 -1 -5 2 -3 8
4 13 -83 134 -147 204 l-54 59 -151 1 c-83 0 -267 -1 -410 -3z"/>
<path d="M4446 849 c-10 -27 -36 -182 -36 -209 0 -20 6 -29 23 -34 12 -3 182
-6 378 -6 305 0 358 2 369 15 7 8 21 15 33 15 17 0 19 5 13 38 -3 20 -7 71 -8
112 l-1 75 -7 -65 c-4 -36 -7 -53 -8 -37 -2 23 -6 27 -31 27 -41 0 -91 20 -91
36 0 8 -6 14 -12 15 -7 1 -2 5 12 9 17 5 19 8 7 9 -9 1 -26 -5 -37 -11 -15
-10 -23 -10 -28 -2 -5 8 -98 14 -289 19 -235 6 -284 5 -287 -6z"/>
<path d="M5240 757 c0 -81 4 -109 15 -121 8 -8 15 -19 15 -25 0 -8 61 -11 188
-11 103 0 285 -3 404 -7 198 -6 218 -5 224 11 3 9 -8 69 -26 134 l-32 117
-394 3 -394 4 0 -105z"/>
<path d="M6060 844 c0 -30 42 -198 57 -226 l14 -28 388 0 c214 0 396 3 405 6
26 10 19 55 -23 145 -21 46 -41 92 -44 102 -6 16 -34 17 -402 17 -358 0 -395
-2 -395 -16z"/>
<path d="M2597 473 c-72 -114 -107 -175 -107 -188 0 -10 872 -1 892 9 9 4 22
24 29 44 6 21 29 81 50 135 22 53 39 102 39 107 0 6 -150 10 -414 10 l-414 0
-75 -117z"/>
<path d="M4408 584 c-10 -3 -20 -15 -23 -27 -12 -55 -45 -226 -45 -235 0 -6 9
-14 20 -17 11 -4 18 -11 15 -16 -4 -5 152 -9 399 -9 360 0 408 2 434 17 l29
17 -5 125 c-2 69 -7 129 -11 133 -7 9 -787 19 -813 12z"/>
<path d="M5257 578 c-16 -8 -17 -21 -12 -116 8 -131 12 -152 29 -152 7 0 19
-7 26 -15 11 -13 71 -15 425 -15 365 0 414 2 419 16 3 8 10 12 16 9 16 -10 12
12 -25 126 -19 60 -35 115 -35 124 0 8 -10 17 -22 19 -49 10 -804 14 -821 4z"/>
<path d="M6120 557 c0 -30 58 -215 78 -249 l16 -28 429 0 c364 0 431 2 443 15
13 13 7 30 -53 147 l-68 133 -422 3 -423 2 0 -23z"/>
</g>
</svg>
