<?xml version="1.0" standalone="no"?>
<!DOCTYPE svg PUBLIC "-//W3C//DTD SVG 20010904//EN"
 "http://www.w3.org/TR/2001/REC-SVG-20010904/DTD/svg10.dtd">
<svg version="1.0" xmlns="http://www.w3.org/2000/svg"
 width="365.000000pt" height="471.000000pt" viewBox="0 0 365.000000 471.000000"
 preserveAspectRatio="xMidYMid meet">
<metadata>
Created by potrace 1.16, written by Peter Selinger 2001-2019
</metadata>
<g transform="translate(0.000000,471.000000) scale(0.100000,-0.100000)"
fill="#000000" stroke="none">
<path d="M0 3631 c1 -833 4 -1081 13 -1085 9 -5 9 -7 0 -12 -18 -8 -16 -24 5
-40 16 -13 16 -14 0 -8 -17 6 -18 -62 -18 -1240 l0 -1246 1825 0 1825 0 0
2355 0 2355 -1825 0 -1825 0 0 -1079z m1780 711 c0 -12 3 -13 12 -4 9 9 16 8
30 -5 17 -15 18 -15 18 1 0 16 2 16 15 2 8 -8 27 -13 43 -11 15 1 33 -2 41 -9
11 -8 15 -8 18 1 3 9 11 8 29 -4 18 -12 28 -13 36 -5 8 8 15 7 24 -6 8 -10 13
-12 14 -4 0 18 13 15 38 -8 19 -18 22 -18 22 -4 0 13 4 11 21 -7 11 -13 18
-17 14 -9 -4 8 5 2 19 -13 14 -15 26 -25 26 -21 0 5 5 3 12 -4 7 -7 22 -12 35
-12 13 0 23 -5 23 -10 0 -6 3 -9 8 -8 8 3 58 -28 86 -54 10 -10 24 -15 29 -11
6 3 8 2 5 -3 -3 -5 3 -17 14 -26 10 -10 18 -15 18 -10 0 4 7 -2 15 -12 8 -11
15 -16 15 -11 0 5 7 -1 16 -13 12 -18 19 -20 29 -12 11 9 12 7 8 -9 -4 -15 2
-24 20 -32 14 -6 28 -20 30 -30 3 -11 11 -18 19 -16 7 2 10 2 6 0 -13 -8 -9
-31 7 -37 8 -3 12 -12 9 -21 -4 -10 0 -15 10 -15 9 0 19 -8 23 -17 8 -23 39
-53 55 -54 9 0 10 -2 1 -5 -13 -6 -6 -32 15 -53 7 -7 11 -20 8 -27 -4 -9 2
-14 17 -14 16 0 18 -3 9 -9 -17 -10 -15 -21 5 -43 9 -10 12 -18 8 -18 -5 0 -1
-6 10 -13 12 -10 16 -22 13 -40 -4 -19 -1 -24 10 -20 12 5 12 2 3 -15 -8 -15
-8 -22 -1 -22 5 0 10 4 10 9 0 5 7 12 16 15 14 5 15 4 5 -8 -7 -8 -10 -20 -6
-26 3 -5 1 -10 -4 -10 -6 0 -11 -5 -11 -11 0 -6 9 -8 20 -4 24 8 26 -1 5 -21
-20 -20 -19 -34 3 -34 15 -1 15 -2 1 -13 -18 -14 -13 -37 13 -55 10 -7 18 -19
18 -27 0 -7 8 -16 18 -19 23 -8 49 -49 33 -54 -6 -2 -11 -8 -11 -14 0 -13 26
-38 39 -38 14 0 14 -6 -1 -30 -11 -17 -10 -22 0 -29 7 -4 10 -14 7 -23 -3 -8
4 -36 15 -63 11 -27 19 -54 16 -61 -3 -7 3 -15 12 -19 13 -5 14 -8 3 -14 -11
-7 -9 -10 6 -15 20 -6 29 -46 10 -46 -6 0 -1 -7 11 -16 17 -12 20 -19 12 -34
-13 -25 -13 -30 5 -30 8 0 15 -7 15 -15 0 -8 6 -15 13 -15 7 0 4 -7 -7 -15
-19 -15 -19 -15 3 -15 15 0 21 -5 18 -12 -21 -51 -21 -52 -4 -45 18 7 21 -1 9
-21 -5 -7 -17 -10 -28 -7 -18 6 -18 6 0 -5 15 -10 16 -14 5 -21 -11 -7 -10 -9
4 -9 19 0 21 -8 7 -30 -6 -9 -5 -17 3 -22 9 -5 9 -12 2 -24 -9 -13 -6 -22 12
-40 13 -13 23 -29 23 -36 0 -9 -3 -9 -10 2 -5 8 -12 11 -16 7 -4 -3 -1 -13 6
-22 8 -10 9 -15 1 -15 -12 0 -15 -26 -3 -33 4 -2 2 -2 -5 -1 -18 4 -27 -16
-14 -29 8 -8 11 -8 11 1 0 7 5 12 11 12 6 0 8 -7 5 -17 -4 -9 -1 -20 6 -25 8
-5 9 -11 3 -15 -5 -5 -17 -17 -25 -27 -14 -17 -13 -18 7 -12 13 4 24 2 29 -5
4 -8 3 -9 -4 -5 -7 4 -12 1 -12 -8 0 -9 5 -16 11 -16 5 0 7 -5 3 -11 -5 -8
-10 -6 -16 5 -5 9 -17 16 -26 16 -15 -1 -15 -2 2 -11 15 -9 16 -13 5 -20 -12
-7 -11 -9 1 -9 8 0 21 -10 29 -21 11 -19 11 -21 -3 -16 -23 9 -20 -6 9 -39 26
-31 26 -47 -1 -20 -12 13 -19 14 -30 5 -18 -15 -18 -20 1 -13 8 4 15 2 15 -4
0 -6 -6 -12 -12 -14 -9 -3 -8 -9 5 -22 9 -10 17 -23 16 -29 0 -9 -2 -8 -6 1
-6 15 -23 16 -23 1 0 -6 7 -17 15 -25 8 -9 15 -20 15 -26 0 -6 -3 -8 -7 -5 -3
4 -13 -2 -21 -14 -13 -19 -12 -23 11 -47 21 -23 23 -29 12 -39 -8 -7 -20 -11
-27 -8 -14 6 -19 -47 -6 -60 4 -4 2 -18 -3 -32 -8 -21 -5 -29 12 -44 12 -11
19 -22 15 -26 -4 -4 -11 -1 -16 7 -5 8 -12 11 -15 8 -4 -4 2 -17 14 -29 24
-26 20 -38 -6 -18 -15 11 -15 10 1 -9 11 -12 14 -22 9 -22 -15 0 -23 -38 -9
-43 7 -3 5 -11 -6 -23 -16 -16 -16 -18 0 -30 16 -13 16 -13 -1 -14 -10 0 -15
-5 -12 -10 4 -6 1 -18 -7 -27 -10 -13 -10 -17 0 -20 18 -7 15 -23 -4 -23 -15
0 -15 -2 1 -26 16 -25 16 -26 -6 -19 -19 6 -21 4 -17 -13 4 -15 2 -19 -9 -15
-12 5 -14 1 -8 -17 5 -17 4 -21 -5 -15 -9 5 -11 4 -6 -3 9 -15 -23 -64 -37
-55 -5 3 -7 1 -4 -4 4 -6 -7 -26 -23 -44 -17 -19 -28 -42 -26 -51 2 -11 -1
-15 -11 -11 -17 7 -65 -36 -56 -50 3 -5 -3 -6 -17 -2 -19 6 -22 4 -17 -9 4
-10 1 -16 -9 -16 -9 0 -18 -8 -21 -19 -3 -13 -11 -17 -24 -14 -15 4 -18 2 -13
-11 5 -12 2 -15 -10 -10 -11 4 -16 0 -17 -12 -1 -17 -2 -17 -6 -2 -4 14 -8 15
-24 5 -10 -6 -19 -19 -19 -27 0 -12 -2 -13 -9 -1 -7 11 -14 11 -40 -2 -17 -8
-31 -11 -31 -7 0 12 -31 0 -49 -18 -9 -9 -25 -12 -43 -8 -26 5 -29 4 -24 -17
3 -12 3 -16 0 -9 -3 6 -14 12 -25 12 -10 0 -19 5 -19 12 0 9 -3 8 -12 -1 -10
-11 -10 -14 0 -18 6 -3 12 -9 12 -14 0 -6 -8 -5 -20 1 -11 6 -20 17 -20 25 0
8 -5 15 -11 15 -7 0 -9 -10 -7 -25 3 -14 1 -25 -3 -25 -5 0 -9 6 -9 13 0 8
-12 19 -27 26 -23 10 -26 10 -15 0 17 -18 15 -39 -3 -39 -8 0 -15 -5 -15 -12
0 -6 -3 -8 -6 -5 -4 4 -1 13 6 22 10 12 8 16 -15 25 -15 6 -30 8 -33 6 -2 -3
-13 -1 -23 5 -25 13 -24 -3 1 -26 11 -10 18 -20 16 -23 -3 -2 -17 8 -33 22
-15 14 -35 26 -43 26 -10 -1 -5 -9 14 -26 15 -14 25 -28 22 -32 -4 -3 -10 -2
-14 3 -4 6 -22 23 -41 38 -25 21 -36 25 -42 16 -6 -10 -11 -10 -23 0 -24 20
-19 1 6 -20 24 -22 17 -39 -8 -19 -12 11 -17 11 -23 2 -5 -9 -12 -9 -26 1 -12
10 -14 16 -7 21 7 4 12 2 12 -3 0 -6 5 -11 10 -11 16 0 11 17 -7 24 -9 4 -19
2 -23 -4 -5 -7 -11 -6 -20 5 -9 11 -16 12 -25 5 -7 -6 -21 -7 -31 -3 -18 6
-18 6 0 -15 27 -31 15 -36 -16 -7 -20 18 -28 21 -38 12 -10 -9 -14 -9 -17 1
-3 6 -9 12 -15 12 -6 0 -6 -6 2 -15 16 -19 0 -19 -26 0 -31 23 -51 18 -23 -6
23 -21 23 -21 2 -15 -12 4 -24 2 -28 -4 -4 -7 -12 -7 -25 0 -10 5 -26 7 -34 4
-9 -4 -23 -1 -31 6 -9 8 -28 9 -55 5 -26 -4 -40 -3 -40 4 0 6 -7 11 -16 11
-14 0 -14 -2 -3 -16 12 -14 11 -16 -6 -12 -14 3 -19 11 -17 28 1 14 -1 21 -5
15 -13 -16 -54 -37 -61 -30 -4 3 0 11 8 16 11 8 8 9 -10 3 -14 -3 -34 -14 -44
-23 -18 -15 -19 -15 -13 8 4 17 3 21 -5 13 -6 -6 -17 -8 -24 -5 -8 3 -14 0
-14 -6 0 -6 5 -11 11 -11 5 0 7 -5 4 -11 -5 -7 -13 -5 -24 5 -21 19 -38 20
-44 4 -2 -7 -8 -9 -13 -5 -5 5 -1 13 9 18 9 6 15 14 12 20 -4 5 -17 -3 -30
-17 -22 -24 -45 -26 -45 -3 0 6 4 8 9 4 5 -3 12 -1 16 5 10 16 -22 12 -39 -5
-21 -21 -28 -19 -21 8 4 15 3 18 -3 8 -8 -10 -14 -11 -32 -1 -18 10 -24 9 -31
-1 -6 -11 -11 -11 -20 -2 -10 10 -16 9 -31 -3 -16 -16 -20 -15 -53 10 -19 15
-43 26 -53 24 -9 -1 -23 1 -29 5 -8 5 -13 3 -13 -5 0 -9 -3 -9 -10 2 -5 8 -10
11 -10 6 0 -4 -11 -1 -25 8 -14 9 -31 14 -37 10 -8 -5 -9 -2 -5 10 5 14 3 16
-12 11 -12 -3 -21 0 -25 11 -5 13 -9 14 -21 4 -12 -10 -15 -10 -15 1 -1 14
-63 59 -81 59 -5 0 -9 7 -9 16 0 10 -6 14 -14 11 -14 -6 -51 25 -41 34 2 3 -5
11 -17 18 -16 10 -19 10 -12 -1 4 -7 -3 -4 -17 7 -31 26 -48 47 -49 60 0 6 11
-3 25 -20 13 -16 24 -26 25 -22 0 5 -16 25 -35 45 -19 20 -33 42 -30 49 2 7
-2 10 -11 6 -14 -5 -20 12 -6 20 4 2 1 2 -7 0 -22 -6 -41 28 -27 50 9 15 7 21
-8 32 -10 8 -15 19 -10 26 5 8 3 10 -6 4 -10 -6 -12 0 -8 24 2 17 1 31 -4 31
-4 0 -8 8 -8 18 0 11 -9 29 -20 42 -25 29 -25 30 7 24 l27 -5 -27 22 c-26 20
-27 22 -10 35 10 7 13 14 8 14 -6 0 -16 10 -24 21 -11 19 -11 21 3 16 13 -5
15 -2 10 17 -3 13 0 35 7 48 11 20 11 22 -3 10 -10 -8 -19 -9 -22 -4 -3 6 1
15 9 22 12 10 11 16 -10 38 -13 14 -22 28 -19 31 3 3 9 -1 14 -9 5 -8 12 -11
16 -7 4 4 2 13 -4 19 -9 9 -9 15 0 25 6 7 8 17 4 20 -4 4 -11 1 -15 -6 -5 -8
-11 -9 -15 -3 -3 5 1 13 10 16 15 6 15 8 -2 28 -19 20 -19 21 3 14 23 -7 23
-7 23 71 0 17 6 33 13 36 6 2 5 3 -4 2 -21 -3 -53 21 -40 30 6 3 11 1 11 -4 0
-6 4 -11 9 -11 13 0 21 39 9 47 -7 3 -8 1 -4 -5 4 -7 2 -12 -3 -12 -14 0 -14
13 1 28 8 8 8 15 -1 26 -7 8 -8 17 -4 19 14 9 7 118 -8 128 -7 4 -11 11 -7 14
3 3 13 -1 22 -10 22 -23 20 -9 -6 33 l-21 35 26 -18 c27 -17 37 -9 15 13 -8 8
-8 15 2 27 7 8 10 19 6 22 -4 4 -11 1 -16 -7 -5 -8 -13 -11 -17 -6 -4 5 -2 11
5 13 14 5 17 53 2 53 -5 0 -10 5 -10 11 0 8 5 7 15 -1 20 -17 32 -5 15 15 -10
12 -10 19 -2 27 8 8 9 15 1 25 -9 9 -8 17 1 28 9 10 9 15 1 15 -15 0 -14 37 2
43 9 4 8 8 -3 16 -12 8 -11 13 5 33 13 15 14 18 3 10 -11 -9 -18 -10 -23 -2
-3 5 -1 10 5 10 7 0 9 7 6 16 -8 22 4 40 15 23 7 -12 9 -12 9 0 0 8 -7 23 -17
33 -9 10 -11 18 -5 18 6 0 12 -6 15 -12 2 -7 12 2 21 21 10 18 13 30 7 27 -6
-4 -11 0 -11 9 0 11 5 15 14 12 10 -4 13 -1 9 9 -3 7 0 14 6 14 6 0 11 5 11
11 0 6 -10 8 -22 5 -13 -3 -17 -3 -10 0 6 3 12 12 12 20 0 8 7 14 16 14 8 0
12 5 8 11 -3 6 -3 14 2 18 17 12 44 69 39 83 -3 8 4 24 16 36 16 18 18 26 9
37 -9 11 -7 19 9 36 16 17 18 26 10 36 -14 16 3 17 19 1 9 -9 12 -8 12 4 0 9
-10 24 -22 32 -12 9 -17 16 -11 16 7 0 14 -4 17 -9 3 -5 14 -11 25 -14 15 -3
17 0 13 16 -4 15 -1 19 10 14 12 -4 14 -1 11 14 -3 10 -10 16 -17 12 -7 -4 -7
-1 1 7 10 11 15 11 30 -1 16 -13 17 -12 4 4 -10 13 -11 20 -2 31 22 26 32 78
18 95 -10 12 -9 14 5 8 10 -3 18 -2 18 3 0 6 -5 10 -11 10 -5 0 -7 5 -4 10 4
6 11 7 17 4 6 -4 8 1 3 15 -5 17 -2 21 17 22 13 0 17 3 11 6 -18 7 -16 33 3
33 8 0 13 4 9 9 -3 6 4 26 14 45 11 19 16 38 11 41 -14 9 1 37 16 31 9 -3 14
2 14 14 0 11 4 20 8 20 5 0 14 16 22 35 7 19 19 36 26 39 7 3 10 13 7 24 -3
12 1 22 11 25 9 4 16 14 16 22 0 10 5 13 12 9 8 -5 9 -2 5 9 -5 12 -1 17 13
17 11 0 20 7 20 15 0 9 7 18 16 22 8 3 13 11 10 18 -3 8 6 16 21 20 15 3 23
11 20 19 -5 13 27 48 36 39 3 -2 11 5 17 17 7 13 17 19 27 16 12 -5 14 -1 10
14 -3 11 -1 18 4 14 5 -3 9 1 10 8 0 10 2 10 6 1 2 -7 9 -13 14 -13 4 0 6 6 3
14 -3 9 4 16 21 20 14 4 23 11 20 15 -3 5 5 7 17 3 14 -3 19 -2 14 6 -4 7 -1
12 8 12 27 0 31 2 45 22 9 14 16 17 24 9 7 -7 17 -2 32 19 17 22 24 27 33 18
9 -9 12 -9 12 0 0 7 7 12 16 12 8 0 12 5 8 11 -4 8 0 9 15 4 13 -4 21 -2 21 5
0 6 5 8 12 4 20 -13 60 -10 65 4 3 7 12 11 19 8 7 -3 18 3 24 12 9 14 10 13 5
-8 -5 -22 -5 -23 6 -6 8 13 13 15 19 6 5 -8 11 -7 24 5 9 9 16 13 16 9 0 -3 7
-1 15 6 12 10 15 10 15 -1 1 -10 5 -8 15 5 13 17 15 17 30 2 13 -13 20 -13 35
-3 11 6 20 15 20 20 0 4 5 5 10 2 6 -3 10 -14 10 -23z m-495 -3631 c53 -24
125 -102 127 -138 4 -82 -12 -123 -66 -170 -91 -81 -211 -64 -282 39 -24 35
-29 51 -29 104 0 60 2 65 39 103 45 46 109 81 146 81 14 0 43 -9 65 -19z m426
-4 c24 -13 44 -28 44 -33 0 -5 -12 -25 -26 -43 l-27 -34 -27 21 c-39 31 -78
28 -120 -9 -39 -35 -47 -78 -19 -117 32 -46 108 -67 138 -37 8 8 19 15 24 15
13 0 62 -40 62 -50 0 -13 -80 -57 -117 -65 -86 -18 -203 89 -203 185 0 39 23
91 55 121 74 73 139 86 216 46z m174 -48 l0 -66 53 45 c29 25 62 57 73 70 16
21 25 24 55 19 20 -3 39 -9 42 -12 3 -3 -30 -41 -72 -85 l-78 -80 24 -29 c12
-16 44 -53 71 -83 26 -30 47 -60 47 -65 0 -14 -42 -22 -66 -12 -10 3 -45 34
-77 68 -32 33 -60 61 -63 61 -2 0 -4 -27 -4 -60 0 -48 -4 -61 -19 -70 -26 -13
-48 -4 -55 23 -3 12 -6 93 -6 179 0 166 1 169 50 165 24 -2 25 -5 25 -68z
m-1040 -80 l7 -141 80 4 c74 3 79 2 84 -18 3 -12 4 -33 2 -45 -3 -24 -5 -24
-111 -22 -60 1 -114 7 -121 12 -13 11 -32 324 -20 342 3 5 20 9 38 9 l34 0 7
-141z m1550 101 l0 -35 -81 -3 -82 -3 -4 -29 c-3 -17 -2 -32 0 -35 3 -3 36 -5
74 -5 60 0 68 -2 68 -19 0 -45 -9 -51 -76 -51 l-64 0 0 -36 0 -36 77 3 77 4 7
-35 c4 -19 5 -38 1 -42 -4 -4 -59 -4 -122 0 l-115 7 -8 65 c-8 62 -1 266 10
283 2 4 57 6 121 5 l117 -3 0 -35z m286 5 c69 -49 84 -76 84 -155 0 -65 -2
-71 -35 -105 -60 -63 -125 -83 -226 -70 l-54 6 0 181 0 180 95 -4 c85 -3 99
-7 136 -33z"/>
<path d="M1590 4215 c-172 -40 -319 -113 -469 -234 -68 -55 -160 -177 -203
-269 -66 -143 -79 -204 -85 -410 l-6 -183 -51 -34 c-101 -67 -148 -125 -180
-220 -14 -45 -16 -119 -17 -650 -1 -582 0 -602 20 -666 39 -124 121 -223 245
-298 117 -70 61 -66 902 -69 756 -3 762 -3 818 19 84 31 199 112 253 177 74
91 94 147 105 292 13 174 4 1079 -11 1150 -21 92 -66 170 -142 246 l-69 68 0
129 c0 209 -45 382 -142 544 -43 74 -177 210 -253 258 -75 48 -231 117 -316
139 -91 24 -314 30 -399 11z m347 -123 c148 -42 273 -114 373 -216 174 -176
244 -351 256 -640 3 -72 1 -144 -4 -161 -8 -28 -12 -30 -61 -33 -48 -3 -53 -1
-47 15 33 85 33 308 0 380 -47 102 -125 218 -199 294 -71 73 -209 144 -318
164 -112 21 -277 19 -352 -4 -149 -45 -307 -172 -406 -324 -54 -83 -72 -101
-99 -102 -39 -1 -68 -234 -41 -331 14 -52 30 -66 86 -74 40 -6 47 -4 60 17 9
12 22 23 29 23 16 0 26 51 26 136 0 33 9 103 20 154 23 110 73 196 148 257 26
21 49 41 50 45 2 5 8 8 12 8 5 0 38 18 74 41 128 80 236 88 425 32 73 -22 127
-60 200 -142 91 -103 125 -219 130 -450 1 -41 8 -89 16 -108 l14 -33 -34 0
c-57 0 -62 12 -68 187 -6 183 -18 232 -79 323 -52 78 -130 140 -216 171 -55
20 -85 24 -169 23 -100 -1 -105 -2 -190 -44 -63 -31 -105 -60 -145 -102 -103
-104 -128 -184 -128 -405 0 -146 5 -141 -139 -154 -128 -11 -168 -4 -186 31
-19 37 -4 388 20 467 46 151 132 285 236 368 34 28 78 63 98 78 75 60 169 98
311 128 104 22 164 18 297 -19z m-25 -509 c72 -34 113 -79 154 -167 20 -45 26
-73 27 -148 l2 -93 -260 -3 c-143 -1 -293 1 -332 4 l-73 6 0 88 c0 99 14 150
61 216 91 126 270 168 421 97z m168 -585 l0 -68 -162 -2 c-90 -1 17 -5 237 -8
390 -5 401 -6 446 -28 91 -44 174 -161 167 -234 l-3 -33 -15 27 c-14 24 -15
-3 -18 -299 -1 -179 -6 -331 -9 -337 -4 -6 -6 -26 -5 -46 1 -19 -5 -60 -13
-90 -9 -30 -18 -109 -21 -175 -6 -129 -22 -182 -69 -227 -32 -30 -32 -45 -1
-21 13 10 34 25 47 33 13 8 41 31 61 51 45 44 48 32 9 -37 -36 -63 -88 -109
-160 -143 l-56 -26 -750 0 c-700 0 -753 1 -797 18 -46 18 -131 77 -110 77 6 0
13 -4 17 -9 3 -5 38 -17 78 -27 65 -15 141 -17 771 -15 480 1 703 5 712 12 7
6 22 8 33 4 11 -3 28 -2 37 3 13 7 11 9 -12 9 -16 0 -76 4 -134 9 l-105 9 117
7 c87 5 126 12 157 27 62 32 117 90 130 138 8 28 10 193 9 530 -3 439 -5 491
-20 519 -19 35 -86 101 -121 121 -30 17 -1446 19 -1513 2 -50 -13 -139 -85
-157 -128 -7 -17 -13 -177 -16 -448 -5 -311 -9 -425 -18 -434 -17 -16 -30 21
-39 103 -3 35 -10 90 -15 123 -5 33 -9 188 -9 345 -1 175 -4 277 -10 265 -5
-11 -9 -40 -10 -65 -1 -25 -5 -65 -10 -90 -6 -32 -8 1 -7 110 2 147 4 158 29
206 34 65 100 124 167 148 47 16 86 19 359 20 169 0 271 2 226 4 l-81 3 4 57
c3 31 6 62 7 67 2 6 120 10 325 11 l321 1 0 -69z m219 -314 c3 -2 -1 -10 -8
-17 -9 -9 -127 -12 -502 -12 -459 0 -489 -1 -489 -17 0 -10 -6 -18 -14 -18 -8
0 -18 -14 -22 -32 l-7 -33 -12 50 c-8 30 -23 58 -40 73 l-27 23 558 -6 c307
-3 560 -8 563 -11z m-1185 -14 c31 -11 52 -43 60 -93 6 -34 4 -41 -25 -68 -46
-43 -87 -38 -113 14 -10 21 -20 55 -23 76 -4 32 -1 41 22 59 31 25 42 26 79
12z m1379 -32 c23 -27 22 -73 -4 -114 -38 -62 -75 -63 -121 -3 -38 51 -42 72
-18 102 38 48 108 55 143 15z m-641 -234 c47 -23 97 -73 114 -113 22 -52 18
-132 -8 -171 -37 -54 -88 -74 -199 -78 -81 -3 -103 -1 -135 16 -133 68 -138
232 -10 319 26 18 62 37 80 43 41 12 117 5 158 -16z m585 -99 c12 -8 25 -29
28 -47 9 -41 -20 -68 -75 -68 -38 0 -56 14 -79 58 -10 19 -8 26 13 47 29 29
80 33 113 10z m18 -255 c8 -7 15 -22 15 -34 0 -37 -23 -58 -72 -63 -39 -5 -47
-2 -62 18 -24 35 -21 78 7 89 27 12 93 6 112 -10z m-500 -131 c12 -37 -4 -69
-40 -85 -55 -22 -258 -19 -312 6 -39 17 -43 22 -43 55 l0 35 43 -7 c66 -12
286 -8 299 5 19 19 46 14 53 -9z"/>
<path d="M1148 617 c-79 -65 -43 -162 64 -174 40 -5 49 -2 81 27 49 42 50 84
6 135 -27 31 -37 35 -78 35 -33 0 -54 -6 -73 -23z"/>
<path d="M2530 535 l0 -104 33 5 c69 12 83 16 105 36 24 24 30 84 11 120 -13
25 -68 48 -114 48 l-35 0 0 -105z"/>
</g>
</svg>
