<?xml version="1.0" standalone="no"?>
<!DOCTYPE svg PUBLIC "-//W3C//DTD SVG 20010904//EN"
 "http://www.w3.org/TR/2001/REC-SVG-20010904/DTD/svg10.dtd">
<svg version="1.0" xmlns="http://www.w3.org/2000/svg"
 width="384.000000pt" height="483.000000pt" viewBox="0 0 384.000000 483.000000"
 preserveAspectRatio="xMidYMid meet">
<metadata>
Created by potrace 1.16, written by Peter Selinger 2001-2019
</metadata>
<g transform="translate(0.000000,483.000000) scale(0.100000,-0.100000)"
fill="#000000" stroke="none">
<path d="M0 2415 l0 -2415 1920 0 1920 0 0 805 c0 466 -4 805 -9 805 -5 0 -12
7 -15 16 -3 8 -2 12 3 9 17 -10 21 12 6 25 -13 11 -13 14 2 26 10 7 13 14 8
14 -6 0 -16 10 -24 21 -11 19 -11 21 3 16 13 -5 15 -2 10 17 -3 13 0 35 7 48
11 20 11 22 -3 10 -10 -8 -19 -9 -22 -4 -3 6 1 15 9 22 12 10 11 16 -10 38
-13 14 -22 28 -19 31 3 3 9 -1 14 -9 5 -8 12 -11 16 -7 4 4 2 13 -4 19 -9 9
-9 15 0 25 6 7 8 17 4 20 -4 4 -11 1 -15 -6 -5 -8 -11 -9 -15 -3 -3 5 1 13 10
16 15 6 15 8 -2 28 -19 20 -19 21 3 14 23 -7 23 -8 23 69 0 16 6 33 13 38 9 6
8 8 -3 4 -20 -6 -56 18 -41 28 6 3 11 1 11 -4 0 -6 4 -11 9 -11 13 0 21 39 9
47 -7 3 -8 1 -4 -5 4 -7 2 -12 -3 -12 -14 0 -14 13 1 28 8 8 8 15 -1 26 -7 8
-8 17 -4 19 14 9 7 118 -8 128 -7 4 -11 11 -7 14 3 3 13 -1 22 -10 22 -23 20
-9 -6 33 l-21 35 26 -18 c27 -17 37 -9 15 13 -8 8 -8 15 2 27 7 8 10 19 6 22
-4 4 -11 1 -16 -7 -5 -8 -13 -11 -17 -6 -4 5 -2 11 5 13 14 5 17 53 2 53 -5 0
-10 5 -10 11 0 8 5 7 15 -1 20 -17 32 -5 15 15 -9 11 -10 19 -1 28 8 10 7 17
-1 25 -8 8 -8 15 2 27 8 10 9 15 1 15 -15 0 -14 37 2 43 9 4 9 8 -2 15 -13 9
-13 13 0 28 8 10 9 15 2 11 -6 -4 -14 -3 -18 3 -3 5 -1 10 5 10 7 0 9 7 6 16
-4 9 -1 23 5 30 9 11 8 18 -1 29 -9 10 -9 15 -1 15 8 0 11 266 11 995 l0 995
-1920 0 -1920 0 0 -2415z m1921 1990 c6 -4 15 -1 20 6 6 10 9 11 9 2 0 -7 8
-13 18 -13 10 0 23 -5 30 -12 7 -7 12 -9 12 -5 0 4 19 -4 43 -17 23 -13 48
-21 56 -18 8 3 11 0 7 -6 -3 -6 -1 -14 5 -18 6 -3 15 0 20 7 7 12 9 11 9 -1 0
-8 14 -26 30 -39 16 -13 27 -27 24 -32 -3 -5 2 -6 10 -3 9 4 16 1 16 -6 0 -7
18 -31 40 -52 22 -22 40 -44 40 -49 0 -5 7 -9 15 -9 8 0 15 -4 15 -10 0 -5 8
-7 18 -3 9 3 14 3 10 -1 -12 -14 39 -59 60 -54 13 4 19 1 17 -6 -6 -16 17 -43
40 -48 11 -2 19 -9 18 -14 -1 -6 17 -9 42 -8 35 2 43 0 38 -12 -6 -17 8 -19
25 -2 6 6 15 8 19 4 4 -4 1 -11 -7 -16 -12 -8 -12 -10 -1 -10 8 0 11 -6 7 -17
-6 -17 -5 -17 8 0 17 22 22 22 58 -4 25 -18 32 -19 39 -8 7 10 9 8 8 -11 -2
-39 0 -46 10 -31 8 12 14 13 37 2 22 -10 29 -10 36 1 5 8 6 1 2 -17 -6 -26 -5
-28 8 -18 12 11 18 10 31 -5 8 -9 16 -21 17 -27 1 -5 8 -9 17 -7 11 3 14 -2 9
-15 -6 -17 -5 -17 8 0 17 23 29 22 21 -2 -6 -21 24 -39 36 -20 4 8 10 6 18 -7
6 -11 11 -15 11 -10 0 5 7 3 15 -4 8 -7 24 -10 34 -7 15 3 18 1 14 -11 -5 -12
-1 -14 15 -10 19 5 21 3 16 -20 -6 -25 -6 -26 8 -8 11 14 17 16 22 7 6 -9 11
-9 22 0 13 10 13 8 4 -16 -12 -33 -8 -42 10 -20 19 23 31 18 20 -10 -10 -27
-2 -32 19 -12 11 10 13 9 8 -5 -3 -10 0 -24 8 -31 7 -8 13 -22 12 -33 -1 -11
3 -18 12 -16 9 2 11 -3 7 -14 -4 -10 -3 -20 1 -23 19 -13 43 -61 32 -61 -7 0
-4 -9 7 -21 15 -17 16 -23 5 -40 -11 -19 -10 -20 11 -14 16 4 19 4 9 -3 -9 -7
-12 -19 -7 -38 5 -21 4 -25 -3 -14 -6 8 -13 11 -17 7 -4 -3 -1 -13 5 -21 7 -8
10 -20 6 -27 -4 -6 -1 -15 6 -20 12 -8 12 -10 0 -18 -17 -11 3 -26 22 -15 13
8 -11 -26 -27 -37 -4 -4 -3 -10 4 -14 7 -4 16 -1 21 6 5 8 9 10 9 6 0 -4 -7
-19 -16 -32 -13 -20 -14 -28 -4 -40 7 -8 9 -15 5 -15 -4 0 -1 -7 6 -17 11 -13
11 -17 2 -20 -15 -5 -17 -39 -3 -48 17 -11 11 -25 -7 -18 -15 6 -16 4 -5 -9 7
-8 9 -23 6 -32 -4 -11 -2 -16 6 -14 7 2 15 -3 17 -9 3 -7 -1 -13 -7 -13 -10 0
-9 -4 0 -15 7 -9 9 -19 5 -23 -4 -4 -10 -1 -12 6 -3 6 -9 10 -14 6 -15 -9 18
-35 35 -28 20 8 20 -1 1 -23 -8 -10 -15 -20 -14 -23 0 -3 -4 -17 -10 -32 -7
-18 -7 -28 -1 -28 6 0 10 5 10 10 0 6 5 10 11 10 6 0 8 -9 4 -20 -5 -15 -2
-20 11 -20 14 0 15 -3 6 -12 -8 -8 -15 -8 -27 2 -12 10 -15 10 -15 -1 0 -17
34 -40 52 -35 7 1 10 1 6 -1 -5 -3 -8 -11 -8 -19 0 -8 -4 -14 -10 -14 -5 0
-10 5 -10 10 0 6 -8 10 -17 10 -15 0 -16 -2 -3 -10 8 -5 15 -14 15 -20 0 -6 7
-15 15 -21 13 -9 12 -10 -2 -5 -21 6 -23 -4 -5 -23 10 -11 8 -12 -10 -6 -26 7
-32 -10 -7 -19 9 -4 14 -9 11 -13 -4 -3 5 -17 20 -31 24 -22 25 -24 5 -18 -27
9 -62 -18 -37 -28 8 -3 15 -1 15 4 0 6 5 10 10 10 16 0 12 -18 -8 -38 -18 -18
-18 -20 0 -45 16 -22 17 -27 5 -27 -9 0 -17 6 -20 13 -2 6 -8 9 -12 5 -5 -5 2
-16 13 -27 25 -21 32 -52 8 -32 -12 10 -14 5 -11 -34 2 -30 9 -51 20 -59 13
-9 15 -15 7 -20 -7 -4 -12 -2 -12 5 0 7 -3 9 -7 6 -3 -4 4 -18 17 -32 13 -14
18 -25 12 -25 -7 0 -12 4 -12 8 0 4 -9 8 -21 9 l-21 2 21 -18 c22 -19 28 -41
11 -41 -5 0 -10 -4 -10 -10 0 -5 7 -10 15 -10 8 0 15 -5 15 -11 0 -6 -9 -8
-22 -4 -16 4 -19 3 -9 -3 10 -7 10 -14 2 -30 -14 -27 -14 -39 1 -24 20 20 27
14 15 -12 -11 -24 -13 -24 -32 -8 -20 17 -20 17 -1 -5 15 -19 17 -25 6 -38
-11 -13 -10 -14 4 -9 9 3 16 1 16 -5 0 -6 -8 -11 -17 -11 -16 -1 -15 -3 4 -19
12 -10 19 -21 16 -25 -3 -3 -12 -1 -20 6 -19 16 -27 3 -9 -15 14 -14 14 -19 1
-44 -12 -24 -13 -29 -1 -33 12 -4 11 -12 -4 -43 -18 -37 -18 -40 -3 -64 17
-25 17 -26 -7 -18 -22 7 -23 6 -12 -8 16 -19 6 -41 -15 -32 -13 4 -14 3 -3
-10 9 -11 9 -15 1 -15 -7 0 -9 -4 -6 -10 3 -5 1 -10 -4 -10 -6 0 -11 -6 -11
-14 0 -8 -6 -17 -12 -19 -8 -3 -6 -6 5 -6 21 -1 23 -21 2 -21 -9 0 -12 -6 -8
-16 4 -11 1 -15 -13 -12 -14 2 -19 -3 -18 -20 0 -15 -3 -19 -9 -13 -7 7 -31
-11 -69 -49 -36 -35 -65 -57 -74 -53 -17 6 -19 -18 -2 -35 9 -9 9 -12 0 -12
-7 0 -12 5 -12 10 0 6 -7 10 -15 10 -18 0 -19 -12 -3 -28 9 -9 9 -12 1 -12 -7
0 -15 5 -18 11 -4 6 -16 -1 -30 -17 -12 -14 -28 -23 -34 -20 -15 10 -14 -7 2
-23 10 -11 8 -12 -11 -6 -21 6 -23 4 -18 -17 3 -12 3 -17 0 -10 -9 20 -27 14
-21 -8 4 -16 2 -18 -13 -10 -26 14 -30 13 -23 -7 5 -12 2 -15 -10 -10 -12 4
-14 2 -10 -10 5 -12 1 -14 -18 -8 -18 5 -20 4 -9 -4 12 -8 12 -13 2 -23 -8 -8
-12 -8 -12 -1 0 6 -7 14 -16 17 -12 4 -15 2 -10 -9 3 -9 0 -15 -10 -15 -11 0
-15 -6 -11 -20 4 -16 2 -18 -13 -10 -27 15 -34 12 -19 -7 13 -15 12 -16 -9
-11 -16 5 -31 -2 -55 -23 -19 -18 -39 -28 -50 -25 -14 3 -17 0 -13 -17 3 -12
3 -16 0 -9 -9 18 -24 15 -50 -13 -14 -15 -25 -21 -29 -14 -5 7 -14 4 -26 -7
-10 -9 -19 -13 -19 -9 0 5 -15 -6 -34 -24 -18 -18 -40 -31 -47 -30 -14 2 -31
-3 -86 -27 -40 -18 -44 -18 -37 4 5 15 4 15 -9 -1 -15 -18 -17 -18 -41 -2 -14
10 -26 13 -26 7 0 -6 6 -12 13 -15 6 -3 -3 -5 -21 -4 -21 0 -28 3 -20 8 7 4 9
11 5 15 -3 4 -13 1 -22 -6 -13 -11 -19 -10 -35 5 -11 10 -23 15 -27 12 -4 -4
2 -14 13 -22 10 -8 14 -15 8 -15 -5 0 -20 9 -32 20 -12 12 -23 16 -27 10 -4
-7 -13 -6 -26 1 -15 7 -24 7 -35 -2 -13 -11 -18 -6 -15 14 1 5 -3 6 -9 2 -6
-3 -17 1 -26 10 -23 22 -31 10 -10 -14 17 -19 17 -19 -3 -14 -11 3 -23 14 -26
24 -6 19 -25 17 -25 -2 0 -6 4 -8 8 -5 5 3 9 -1 9 -8 0 -10 -6 -10 -24 -2 -27
13 -29 21 -5 36 16 11 16 11 -1 6 -10 -3 -28 -1 -40 5 -20 9 -21 9 -4 -4 23
-19 8 -30 -17 -12 -12 9 -16 20 -12 31 5 14 4 15 -8 5 -14 -12 -46 -5 -46 10
0 5 -3 8 -7 8 -21 -3 -33 2 -27 13 5 7 3 8 -6 3 -10 -6 -9 -11 5 -21 10 -7 23
-15 29 -17 6 -2 8 -7 5 -11 -3 -3 -18 3 -32 15 -15 11 -27 17 -27 12 0 -4 -5
-1 -10 7 -9 13 -11 13 -20 0 -7 -12 -10 -12 -10 -1 0 7 -6 11 -14 8 -9 -4 -13
-1 -10 6 2 7 -9 20 -26 29 -16 9 -30 13 -30 8 0 -6 5 -10 12 -10 6 0 9 -2 6
-5 -11 -11 -39 8 -34 22 4 9 1 13 -6 11 -7 -3 -19 2 -26 9 -8 8 -23 11 -33 8
-11 -4 -19 -2 -19 5 0 7 -7 7 -22 -1 -20 -11 -22 -11 -10 3 8 10 9 19 3 22 -5
3 -12 0 -15 -6 -3 -10 -9 -8 -19 5 -10 12 -17 14 -22 8 -3 -6 -1 -11 5 -11 6
0 8 -5 4 -11 -3 -6 -9 -7 -13 -3 -3 5 -13 9 -21 9 -9 0 -14 7 -12 19 3 17 1
18 -11 7 -20 -16 -60 6 -52 28 4 11 1 11 -13 -2 -23 -21 -33 -22 -26 -2 4 8 1
15 -6 15 -10 0 -9 4 1 17 12 17 12 17 -5 1 -17 -15 -20 -15 -38 2 -11 10 -26
16 -33 14 -7 -3 -20 5 -29 17 -13 20 -16 20 -22 6 -3 -9 -11 -14 -16 -11 -6 4
-5 10 3 15 22 13 4 20 -25 9 -28 -10 -66 1 -66 20 0 15 11 12 25 -7 12 -16 14
-16 31 1 17 18 17 18 -3 12 -13 -4 -25 -1 -33 9 -9 11 -16 12 -25 5 -9 -8 -15
-8 -20 0 -3 6 -12 8 -18 4 -7 -3 -3 2 8 12 19 16 19 16 1 10 -12 -4 -23 -1
-28 6 -6 10 -8 10 -8 1 0 -7 -4 -13 -9 -13 -5 0 -7 9 -4 20 3 11 0 20 -6 20
-6 0 -11 -4 -11 -10 0 -5 -4 -10 -10 -10 -5 0 -10 6 -10 14 0 8 -5 18 -12 22
-7 4 -8 3 -4 -4 13 -21 -6 -12 -30 14 -18 18 -30 23 -46 18 -16 -5 -20 -3 -15
10 3 8 2 18 -3 21 -6 4 -10 2 -10 -3 0 -5 -6 -9 -14 -9 -8 0 -12 6 -10 12 5
12 -44 40 -54 31 -2 -3 -17 3 -31 13 -14 10 -45 26 -68 36 -24 11 -43 24 -43
31 0 7 -9 16 -20 19 -11 3 -20 11 -20 17 0 6 -10 20 -23 32 -13 12 -22 27 -20
33 2 6 -1 14 -6 18 -6 3 -11 17 -11 29 0 13 -6 28 -13 34 -7 6 -12 29 -12 51
0 23 -3 41 -7 41 -5 0 -8 5 -8 11 0 6 7 8 16 5 14 -5 15 -4 5 8 -17 20 -34
219 -18 209 4 -2 7 3 7 11 0 9 -5 16 -11 16 -6 0 -8 9 -4 20 4 12 1 28 -7 37
-11 14 -11 16 2 11 12 -4 15 4 16 38 1 24 -3 44 -7 44 -5 0 -9 5 -9 10 0 6 8
10 18 10 13 0 14 2 3 9 -7 5 -10 14 -7 20 4 6 0 14 -9 17 -9 4 -12 10 -7 13 5
3 13 17 17 30 5 18 4 22 -6 16 -9 -6 -10 -4 -6 8 4 10 10 24 14 34 4 11 3 14
-5 9 -9 -5 -9 0 -2 20 8 19 8 30 0 38 -15 15 -12 26 6 26 13 0 14 3 5 14 -8
10 -9 16 -1 21 5 3 10 15 10 26 0 11 -4 18 -8 15 -5 -3 -9 1 -9 9 0 8 4 15 9
15 4 0 8 5 8 11 0 6 -7 8 -17 5 -14 -6 -14 -4 2 14 16 18 17 23 5 30 -11 7
-11 12 -2 23 10 11 9 17 -4 28 -14 12 -14 14 3 26 15 12 16 15 3 23 -10 7 -11
12 -4 18 15 10 25 42 14 42 -6 0 -10 -5 -10 -11 0 -5 -5 -7 -11 -3 -8 4 -7 9
2 15 15 9 20 111 5 121 -6 4 -5 12 4 23 11 14 11 18 1 25 -9 5 -10 13 -5 21
13 22 15 51 4 64 -8 9 -8 14 0 17 6 2 12 38 14 81 3 68 2 77 -12 72 -13 -5
-13 -2 2 14 14 15 15 24 7 40 -14 26 -14 31 2 25 9 -3 13 6 13 31 0 19 -4 35
-10 35 -5 0 -6 3 -3 7 4 3 2 12 -5 20 -9 11 -7 12 7 7 14 -6 16 -3 11 14 -4
12 -3 29 3 39 5 10 11 40 13 65 3 28 12 56 24 69 12 14 14 20 4 15 -8 -5 3 8
24 28 22 20 43 36 48 36 4 0 5 7 2 15 -4 8 -2 15 4 15 5 0 22 10 36 21 22 17
25 24 14 31 -9 6 -5 7 11 3 19 -6 23 -4 18 8 -4 11 -2 14 9 10 8 -3 14 1 14 8
0 12 2 12 9 0 7 -11 14 -10 40 8 17 12 31 27 31 32 0 6 5 7 10 4 6 -3 10 -1
10 5 0 7 7 9 16 6 8 -3 12 -2 9 4 -11 19 6 32 23 18 10 -7 14 -9 10 -4 -9 11
19 39 32 31 5 -3 10 1 10 9 0 19 16 21 24 4 3 -7 3 -2 0 10 -5 21 -3 23 15 17
17 -5 20 -3 14 11 -4 12 -3 15 5 10 7 -4 12 -2 12 4 0 6 4 9 10 5 9 -6 50 13
61 29 4 5 12 6 17 2 7 -4 9 2 7 15 -3 15 0 19 11 15 8 -3 17 1 21 9 4 11 9 13
18 5 9 -7 15 -3 23 16 7 14 16 23 21 19 5 -3 12 -1 16 5 4 6 10 8 15 5 5 -3
20 6 34 20 16 15 26 21 27 13 0 -10 2 -10 6 0 2 6 11 12 19 12 7 0 11 6 9 13
-6 17 61 58 82 50 10 -4 14 -2 10 4 -4 6 1 17 10 24 15 12 16 12 10 -5 -6 -16
-5 -17 8 -6 8 7 15 9 15 6 0 -4 7 0 16 8 18 19 38 21 28 4 -4 -7 2 -4 14 6 12
11 22 14 22 8 0 -7 8 -7 24 1 13 7 22 15 20 18 -2 4 5 5 16 2 12 -3 20 0 20 6
0 7 6 11 13 9 19 -3 57 12 57 24 0 5 6 8 12 6 7 -3 18 1 25 8 7 7 23 11 37 10
19 -2 23 1 19 18 -3 13 -1 17 4 10 9 -13 42 -12 63 1 17 10 21 11 68 13 18 1
31 6 28 11 -6 10 37 6 55 -4z m-548 -3731 c50 -17 56 -28 33 -60 -12 -15 -27
-19 -83 -19 -54 0 -68 -3 -71 -16 -3 -17 27 -33 84 -44 32 -6 72 -42 93 -83
18 -34 -20 -109 -65 -128 -45 -19 -72 -18 -148 7 -68 23 -76 38 -35 75 17 15
24 16 57 5 50 -17 106 -11 110 11 2 13 -10 21 -49 32 -132 40 -177 116 -106
183 56 55 101 64 180 37z m403 3 c1 -1 3 -81 5 -177 l4 -175 -37 -3 -38 -3 0
70 0 71 -75 0 -74 0 -3 -67 -3 -68 -36 -3 -36 -3 -5 114 c-2 62 -2 144 0 180
l4 67 34 0 34 0 0 -70 0 -71 77 3 c70 3 78 5 79 23 0 11 1 44 2 74 l2 54 32
-7 c17 -3 32 -7 34 -9z m344 -17 c17 -12 45 -41 61 -63 23 -32 29 -50 29 -94
0 -63 -16 -99 -64 -140 -91 -81 -223 -60 -288 45 -29 48 -30 136 0 183 23 38
71 77 111 90 44 14 116 4 151 -21z m339 5 c67 -34 100 -111 71 -166 -15 -27
-83 -59 -140 -66 l-49 -6 -3 -50 c-3 -46 -5 -51 -32 -58 -16 -5 -33 -6 -38 -3
-4 3 -8 86 -8 185 l0 179 85 0 c56 0 96 -5 114 -15z"/>
<path d="M1759 4341 c-66 -21 -154 -78 -200 -130 -27 -30 -49 -59 -49 -63 0
-4 -30 -8 -66 -8 l-67 0 -91 -68 c-148 -110 -249 -173 -456 -282 -221 -117
-273 -151 -300 -195 -19 -31 -20 -60 -21 -941 -2 -806 0 -912 13 -939 33 -63
60 -75 428 -198 140 -46 318 -108 395 -137 77 -28 255 -90 395 -137 140 -47
293 -101 340 -120 103 -42 191 -53 248 -30 21 9 104 56 183 105 499 309 603
382 638 454 21 44 21 48 21 913 0 868 0 869 -21 913 -15 29 -37 54 -68 73 -49
31 -241 109 -381 154 -98 31 -382 136 -392 144 -4 3 -13 38 -22 78 -23 111
-86 233 -159 306 -86 87 -138 111 -252 114 -49 1 -102 -2 -116 -6z m237 -84
c60 -30 132 -107 163 -172 54 -116 73 -196 78 -330 3 -76 0 -147 -6 -170 -9
-36 -10 -34 -5 25 4 53 -1 90 -31 205 -20 77 -51 173 -70 212 -39 84 -113 164
-178 193 -48 22 -130 26 -189 8 -90 -27 -228 -200 -269 -336 -19 -67 -20 -80
-10 -169 6 -53 9 -98 6 -101 -22 -22 -36 97 -24 203 5 44 21 123 37 174 24 84
33 102 81 153 92 100 181 140 296 134 51 -2 84 -10 121 -29z m-83 -101 c51
-22 116 -84 142 -137 43 -83 49 -83 -176 -8 -161 53 -199 68 -199 80 0 14 61
59 88 65 15 3 32 7 37 9 25 8 78 4 108 -9z m-40 -249 c125 -42 226 -82 238
-94 31 -31 46 -145 31 -244 -15 -105 -37 -152 -105 -224 -60 -63 -60 -69 0
-81 68 -13 165 50 219 141 32 55 64 184 64 257 0 62 6 68 45 42 23 -15 85 -35
315 -105 85 -25 225 -74 289 -100 23 -9 21 -12 -37 -39 -34 -16 -94 -41 -134
-55 -96 -35 -155 -70 -172 -103 -7 -15 -18 -60 -24 -100 -6 -40 -16 -79 -22
-87 -19 -23 -210 -115 -238 -115 -43 0 -288 92 -385 145 -48 26 -118 55 -155
65 -98 26 -529 193 -595 230 -31 17 -89 38 -128 47 -39 8 -126 38 -193 67 -66
29 -130 56 -140 60 -24 8 -25 8 69 45 44 18 100 44 125 59 25 15 74 40 110 57
118 55 237 124 268 157 18 17 34 29 38 26 3 -3 7 -46 10 -95 10 -205 24 -254
87 -310 32 -28 41 -31 63 -23 14 6 36 10 49 10 33 0 36 19 9 80 -37 86 -30
223 16 327 24 54 -6 58 283 -40z m-737 -498 c3 -5 -17 -34 -44 -64 -96 -105
-107 -220 -27 -283 29 -23 31 -38 8 -64 -20 -22 -61 -23 -85 -1 -29 26 -22 43
17 43 19 0 35 3 35 8 0 4 -23 33 -50 65 -45 52 -50 64 -50 105 0 74 56 163
122 195 30 15 63 13 74 -4z m206 -133 c291 -105 358 -132 358 -145 0 -3 -4
-12 -9 -20 -7 -11 -28 -6 -109 28 -55 22 -164 63 -243 90 -147 52 -166 62
-155 80 11 17 27 14 158 -33z m559 -152 c11 -14 10 -18 -6 -27 -63 -35 -105
-124 -105 -226 l-1 -56 -35 39 c-35 37 -36 40 -32 106 3 50 10 76 27 101 47
69 121 100 152 63z m234 -155 c83 -29 155 -56 162 -61 9 -7 9 -16 1 -33 l-10
-23 -75 35 c-41 19 -117 48 -169 65 -85 27 -106 42 -87 61 11 12 24 9 178 -44z
m-1237 -304 c74 -23 132 -61 132 -85 0 -16 -38 -50 -57 -50 -9 0 -24 6 -32 14
-24 20 -108 49 -126 43 -9 -4 -15 -19 -15 -41 0 -41 16 -54 98 -81 69 -22 118
-70 127 -124 13 -81 -34 -151 -101 -151 -19 0 -68 18 -116 43 -75 38 -83 45
-86 74 -4 44 20 49 98 18 74 -29 115 -32 124 -9 11 28 -21 61 -79 83 -123 46
-145 71 -145 163 0 47 4 56 37 90 20 21 43 38 50 38 6 0 48 -11 91 -25z m242
-75 c11 -7 14 -30 13 -99 -1 -60 3 -93 10 -98 7 -5 44 -17 83 -29 l72 -21 6
45 c3 25 6 62 6 84 0 46 19 58 55 34 l25 -17 -3 -215 c-4 -231 -8 -246 -51
-226 -24 11 -25 16 -28 104 l-3 92 -65 23 c-36 12 -75 23 -87 23 -22 0 -23 -4
-23 -80 0 -71 -2 -80 -18 -80 -33 0 -52 23 -53 65 -1 22 -1 120 0 217 1 184 0
178 41 187 3 0 12 -3 20 -9z m523 -170 c54 -20 94 -54 117 -99 18 -36 31 -166
24 -241 -6 -55 -12 -70 -39 -97 -26 -26 -42 -33 -70 -33 -62 0 -114 21 -165
67 -61 55 -80 107 -80 219 0 99 9 126 57 170 44 40 77 43 156 14z m331 -111
c71 -14 142 -61 168 -109 10 -20 18 -55 18 -83 0 -42 -5 -53 -31 -78 -42 -40
-68 -44 -144 -25 -81 20 -78 21 -71 -9 3 -13 3 -49 0 -80 -7 -59 -26 -72 -58
-39 -24 23 -24 389 0 423 12 16 23 21 38 17 11 -3 47 -11 80 -17z m745 -197
c7 -24 34 -63 76 -107 36 -39 84 -92 108 -120 56 -65 75 -85 85 -85 12 0 33
-50 27 -61 -13 -19 -35 -6 -140 87 -206 180 -185 153 -185 237 0 64 4 87 16
87 2 0 8 -17 13 -38z m-1979 -215 c137 -176 161 -209 158 -213 -5 -4 -171 51
-245 81 -23 9 -44 24 -47 33 -10 37 -17 150 -10 175 l6 27 52 -29 c28 -16 67
-50 86 -74z m2003 -33 c38 -36 101 -86 139 -111 38 -25 74 -56 80 -69 14 -30
20 -25 -177 -140 -82 -48 -200 -122 -261 -165 -62 -44 -117 -79 -122 -79 -23
0 -23 23 0 44 13 11 43 62 65 111 22 50 63 140 91 200 28 61 60 144 72 185 23
79 28 90 37 90 3 0 37 -30 76 -66z m-1583 -263 c63 -22 178 -63 255 -91 77
-28 205 -73 285 -99 145 -47 196 -68 187 -77 -10 -10 -820 276 -841 297 -15
14 -10 12 114 -30z m1060 -160 c22 -6 25 -13 26 -51 1 -25 5 -67 9 -95 5 -37
3 -55 -9 -70 -15 -20 -16 -19 -146 25 -72 24 -133 47 -135 50 -7 11 97 118
130 134 31 16 82 19 125 7z"/>
<path d="M1540 2316 c-4 -13 -6 -67 -3 -121 7 -110 11 -116 104 -140 75 -20
79 -14 79 109 0 117 -8 132 -89 161 -60 21 -80 19 -91 -9z"/>
<path d="M1940 2163 l0 -58 61 -12 c74 -14 85 -11 93 28 11 55 -16 77 -116 95
l-38 6 0 -59z"/>
<path d="M1953 585 c-30 -21 -44 -75 -32 -120 13 -45 43 -65 100 -65 40 0 53
5 79 32 28 28 32 36 27 72 -8 57 -52 96 -110 96 -23 0 -52 -7 -64 -15z"/>
</g>
</svg>
