<?xml version="1.0" standalone="no"?>
<!DOCTYPE svg PUBLIC "-//W3C//DTD SVG 20010904//EN"
 "http://www.w3.org/TR/2001/REC-SVG-20010904/DTD/svg10.dtd">
<svg version="1.0" xmlns="http://www.w3.org/2000/svg"
 width="518.000000pt" height="512.000000pt" viewBox="0 0 518.000000 512.000000"
 preserveAspectRatio="xMidYMid meet">
<metadata>
Created by potrace 1.16, written by Peter Selinger 2001-2019
</metadata>
<g transform="translate(0.000000,512.000000) scale(0.100000,-0.100000)"
fill="#000000" stroke="none">
<path d="M0 2560 l0 -2560 2590 0 2590 0 0 2560 0 2560 -2590 0 -2590 0 0
-2560z m4020 2220 c189 -29 418 -150 535 -282 81 -93 180 -285 199 -388 l7
-35 -16 25 c-16 25 -16 25 -11 2 4 -21 2 -23 -20 -18 -22 6 -24 4 -18 -18 3
-13 1 -27 -5 -30 -6 -4 -11 -18 -11 -31 0 -13 -4 -27 -10 -30 -5 -3 -10 -21
-10 -40 0 -22 -8 -41 -21 -54 -20 -18 -21 -30 -21 -153 0 -73 -3 -153 -7 -178
-6 -33 -9 -3 -10 110 -2 326 -45 491 -165 642 -98 123 -259 224 -406 254 -106
22 -819 32 -1919 27 -980 -4 -970 -3 -1090 -69 -157 -86 -272 -201 -350 -354
-30 -58 -51 -95 -48 -83 3 13 1 26 -4 29 -5 3 -9 14 -9 25 0 12 -7 19 -20 19
-13 0 -18 5 -14 15 4 8 4 15 1 15 -7 0 -75 -43 -94 -60 -19 -16 -25 -12 -18
13 5 19 4 19 -5 5 -6 -10 -12 -31 -13 -48 -1 -16 -6 -30 -10 -30 -22 0 34 184
87 287 38 73 58 99 133 176 140 143 305 228 501 256 84 12 2782 13 2862 1z
m-2563 -478 c6 -4 13 -34 15 -67 l3 -59 47 -15 c46 -14 46 -14 87 18 l41 33
75 -79 74 -78 -46 -41 -47 -42 13 -42 12 -42 67 4 67 3 6 -115 c3 -71 1 -120
-5 -129 -8 -10 -26 -12 -77 -7 -73 8 -79 3 -79 -54 0 -21 11 -37 41 -62 l41
-34 -72 -87 c-39 -48 -74 -87 -78 -87 -3 0 -20 14 -38 31 l-31 30 -54 -13 -54
-13 -5 -65 -5 -65 -127 -3 -127 -3 -5 43 c-3 24 -7 54 -8 68 -3 21 -11 26 -55
36 -50 11 -52 11 -79 -17 -26 -27 -64 -39 -64 -21 0 5 -29 41 -65 80 -36 40
-65 76 -65 80 0 5 14 21 30 37 21 20 30 38 30 61 0 60 -6 64 -81 64 l-70 0 3
128 3 127 60 3 c90 4 111 47 55 112 -16 19 -29 38 -30 41 0 12 136 149 149
149 8 0 29 -12 48 -26 l34 -26 52 19 c51 18 52 19 49 55 -6 72 3 78 136 78 64
0 122 -4 129 -8z m2523 -56 c5 -57 6 -60 40 -72 51 -18 54 -18 106 22 l47 36
78 -83 c43 -46 78 -89 79 -95 0 -7 -17 -26 -37 -44 l-37 -32 15 -42 14 -41 69
-5 69 -5 -2 -120 c-2 -80 -6 -122 -14 -128 -7 -4 -40 -5 -74 -2 l-63 7 0 -45
c0 -38 5 -49 30 -70 17 -14 30 -33 30 -42 0 -18 -123 -160 -146 -169 -7 -3
-32 10 -54 29 -33 28 -45 33 -60 25 -10 -6 -36 -14 -57 -18 l-38 -8 -5 -59 -5
-60 -120 0 -120 0 -5 65 -5 65 -53 14 -53 14 -29 -34 c-18 -22 -32 -31 -38
-24 -5 6 -39 43 -76 84 l-67 74 35 29 c28 23 36 37 36 61 0 51 -12 61 -84 65
-61 4 -65 6 -70 31 -7 38 -1 194 8 209 4 7 28 12 55 12 83 0 99 52 36 121
l-37 42 75 75 76 76 41 -29 c40 -28 42 -28 88 -14 l47 15 3 62 3 61 82 4 c45
2 105 3 132 3 l50 -1 5 -59z m-1339 1 c25 -21 86 -101 276 -362 106 -146 309
-454 318 -483 4 -16 -1 -36 -19 -67 -30 -50 -29 -50 -218 -61 l-108 -6 -1
-136 c-1 -76 -5 -465 -8 -867 l-6 -730 -270 0 -270 0 -6 835 c-3 459 -9 849
-13 866 l-7 32 -145 7 -144 7 -25 42 c-43 73 -33 107 77 263 34 48 98 140 142
203 156 224 170 246 211 300 115 158 136 180 163 180 15 0 39 -10 53 -23z
m-1079 -1378 l3 -71 59 -24 c33 -13 68 -22 78 -18 10 3 33 23 50 45 18 22 37
38 43 37 6 -2 54 -47 106 -102 l94 -99 -53 -47 c-52 -46 -52 -47 -38 -76 8
-16 19 -41 25 -56 10 -27 13 -28 80 -28 42 0 73 -5 77 -12 4 -6 7 -72 7 -147
l0 -136 -87 -3 c-84 -3 -86 -3 -91 -30 -3 -15 -11 -44 -17 -65 -8 -25 -8 -41
-2 -45 48 -33 84 -67 84 -81 -1 -9 -39 -56 -85 -105 -95 -99 -90 -98 -160 -28
l-30 30 -78 -26 -77 -25 0 -74 0 -73 -150 0 -150 0 6 78 6 77 -72 23 -73 22
-34 -40 c-19 -22 -40 -40 -46 -40 -16 0 -177 175 -177 192 0 7 21 28 46 47 45
34 46 35 39 80 -11 76 -16 80 -96 83 l-71 3 0 139 c0 76 4 142 9 147 4 4 34 9
67 11 l58 3 20 52 19 52 -42 38 c-23 21 -46 41 -52 45 -6 3 23 44 66 93 43 49
77 92 77 96 0 19 27 7 72 -30 l47 -39 66 26 65 26 0 66 c0 37 3 70 7 73 3 4
73 7 154 7 l148 0 3 -71z m2376 59 c7 -7 12 -39 12 -76 l0 -63 37 -15 c77 -32
94 -30 149 20 l51 45 31 -43 c17 -23 56 -68 86 -99 31 -31 56 -60 56 -64 0 -5
-23 -28 -50 -53 l-51 -45 19 -55 19 -55 72 -3 72 -3 -3 -142 -3 -142 -72 -3
-71 -3 -16 -46 c-9 -26 -16 -51 -16 -55 0 -5 23 -33 51 -63 l50 -53 -87 -91
c-49 -50 -95 -91 -103 -91 -8 0 -32 17 -53 37 l-38 37 -57 -18 c-32 -10 -63
-22 -69 -27 -7 -6 -10 -34 -6 -79 l5 -70 -29 0 c-16 0 -78 -1 -139 -1 -60 -1
-118 -1 -127 0 -16 1 -18 12 -18 76 0 73 0 75 -27 80 -16 4 -46 14 -68 24
l-41 19 -47 -44 -46 -44 -91 88 c-49 49 -90 96 -90 105 0 8 21 34 46 56 l46
41 -15 32 c-8 18 -17 42 -19 53 -3 17 -13 21 -80 25 -42 3 -82 10 -88 16 -7 7
-10 59 -8 145 l3 134 75 3 76 3 29 66 28 66 -29 21 c-16 11 -40 31 -54 43
l-25 22 83 80 c45 44 82 84 82 90 0 18 26 12 45 -9 10 -12 33 -30 51 -41 33
-20 33 -20 71 -1 21 11 51 22 67 26 l28 7 -7 64 c-3 36 -4 69 0 75 9 15 288
13 303 -2z m-2570 -1644 c21 -15 22 -21 22 -171 0 -176 -7 -199 -70 -257 -97
-88 -227 -65 -301 52 -29 45 -29 48 -29 198 0 125 3 155 16 168 18 18 56 21
85 6 17 -10 19 -23 19 -160 0 -160 3 -170 57 -191 28 -11 77 10 93 40 5 11 10
82 10 159 0 157 -1 155 70 171 3 0 16 -6 28 -15z m872 -5 c48 -22 100 -65 100
-84 0 -6 -11 -22 -25 -35 l-25 -24 -68 18 c-66 17 -83 16 -130 -7 -52 -25 -68
-115 -32 -175 28 -46 79 -66 130 -52 22 6 40 15 40 20 0 4 -14 22 -31 39 -22
22 -29 38 -27 58 l3 28 85 0 85 0 3 -81 c3 -74 1 -84 -22 -110 -36 -43 -110
-77 -170 -77 -85 -2 -178 61 -225 151 -19 37 -15 155 7 204 55 121 190 178
302 127z m-474 -25 c65 -40 94 -84 94 -143 0 -69 -26 -111 -89 -143 -41 -21
-67 -28 -112 -28 l-59 0 0 -44 c0 -72 -13 -96 -54 -96 -64 0 -66 6 -66 250 0
198 2 220 18 230 10 6 58 9 118 8 92 -3 105 -6 150 -34z m994 -20 c77 -81 81
-169 9 -234 l-38 -36 39 -48 c21 -26 42 -56 45 -67 10 -30 -12 -49 -55 -49
-42 0 -62 19 -112 104 -24 41 -31 46 -63 46 l-35 0 0 -64 c0 -77 -12 -91 -69
-81 -44 7 -46 11 -56 90 -7 53 10 369 21 386 4 7 55 9 136 7 l129 -3 49 -51z
m387 44 c32 -52 173 -402 173 -431 0 -34 -19 -47 -67 -47 -45 0 -63 17 -63 60
0 20 -4 21 -92 18 l-91 -3 -12 -35 c-10 -30 -16 -35 -48 -38 -47 -4 -77 12
-77 43 0 21 35 118 131 363 l33 82 52 0 c31 0 56 -5 61 -12z m465 2 c45 -13
110 -61 152 -113 25 -31 31 -49 34 -101 5 -82 -8 -122 -60 -175 -62 -65 -125
-91 -225 -91 -45 0 -93 4 -106 9 l-24 10 -5 223 c-3 123 -3 229 0 236 5 15
180 17 234 2z m596 -35 c5 -68 -11 -79 -122 -83 l-96 -4 0 -34 0 -33 88 -3
c86 -3 87 -3 90 -30 7 -55 -11 -68 -93 -68 -58 0 -75 -3 -75 -14 0 -8 -3 -21
-6 -30 -5 -14 7 -16 95 -16 89 0 101 -2 111 -19 14 -27 13 -88 -2 -98 -18 -11
-301 -4 -313 8 -10 10 -27 447 -18 462 2 4 80 6 171 5 l167 -3 3 -40z"/>
<path d="M1243 3943 c-18 -10 -50 -35 -72 -55 -53 -50 -61 -100 -31 -180 24
-64 58 -98 124 -123 56 -22 100 -15 155 25 56 41 81 94 81 174 0 73 -6 96 -26
96 -8 0 -14 5 -14 10 0 6 -21 24 -47 40 -55 35 -120 40 -170 13z"/>
<path d="M3849 3950 c-61 -7 -143 -67 -160 -117 -23 -72 13 -180 76 -222 53
-36 131 -40 184 -10 60 33 94 88 99 159 4 48 0 65 -18 95 -42 68 -110 104
-181 95z"/>
<path d="M1370 2551 c-97 -32 -180 -109 -204 -190 -11 -39 -13 -65 -5 -116 11
-79 25 -108 76 -156 61 -59 98 -74 183 -74 90 0 139 22 194 87 39 45 76 148
76 209 -1 73 -76 181 -153 221 -44 22 -128 32 -167 19z"/>
<path d="M1076 2162 c-7 -12 20 -78 45 -111 24 -30 25 -49 1 -28 -10 10 -24
17 -30 17 -6 0 -9 7 -6 15 4 8 1 15 -4 15 -6 0 -18 13 -28 28 -16 28 -52 57
-60 49 -6 -5 30 -105 54 -152 31 -61 89 -109 179 -150 75 -34 84 -41 93 -74 5
-20 10 -42 10 -48 0 -9 20 -13 64 -13 35 0 71 -3 80 -6 13 -5 16 1 16 31 0 42
15 75 34 75 12 0 60 19 143 56 18 8 35 19 38 24 14 22 41 9 54 -25 7 -19 18
-35 24 -35 7 0 29 18 50 39 l38 40 -26 17 c-26 17 -27 17 -50 -12 -28 -35 -41
-27 -27 15 10 28 9 31 -9 31 -11 0 -34 -7 -50 -16 -17 -8 -37 -13 -45 -10 -7
3 -20 -2 -29 -10 -8 -9 -15 -12 -15 -7 -1 30 -18 33 -76 12 -49 -17 -73 -20
-144 -14 -113 8 -110 7 -105 15 3 4 -22 22 -55 39 -66 35 -96 69 -133 149 -14
30 -28 49 -31 44z"/>
<path d="M3735 2550 c-80 -18 -155 -79 -194 -157 -31 -63 -35 -111 -15 -184
33 -119 142 -199 271 -199 219 0 338 305 181 462 -63 63 -166 96 -243 78z"/>
<path d="M4130 2196 c0 -7 -16 -45 -35 -83 -95 -190 -278 -250 -471 -156 -29
14 -70 42 -90 62 -37 37 -84 118 -84 145 0 12 -7 14 -28 10 -16 -3 -45 -1 -65
4 -34 10 -35 9 -27 -11 94 -245 124 -279 292 -336 l83 -28 3 -52 c3 -45 6 -52
20 -46 9 3 38 9 65 12 37 5 52 2 67 -12 20 -18 20 -17 20 42 l0 61 53 12 c65
16 79 23 144 72 60 46 105 110 133 193 11 32 20 60 20 63 0 2 -23 2 -51 -2
l-51 -7 6 35 c4 20 4 36 1 36 -3 0 -5 -6 -5 -14z"/>
<path d="M3495 1161 c-3 -2 -5 -55 -5 -118 l0 -113 43 0 c52 0 108 27 124 60
21 42 16 105 -11 136 -19 23 -34 29 -85 34 -34 3 -64 4 -66 1z"/>
</g>
</svg>
